<mxfile host="app.diagrams.net" agent="Mozilla/5.0 (Windows NT 10.0; Win64; x64) AppleWebKit/537.36 (KHTML, like Gecko) Chrome/136.0.0.0 Safari/537.36 Edg/136.0.0.0" version="27.0.9">
  <diagram name="Page-1" id="61IYFZVAsTF3OJjk4X6-">
    <mxGraphModel dx="2058" dy="1116" grid="1" gridSize="10" guides="1" tooltips="1" connect="1" arrows="1" fold="1" page="1" pageScale="1" pageWidth="700" pageHeight="1200" math="0" shadow="0">
      <root>
        <mxCell id="0" />
        <mxCell id="1" parent="0" />
        <mxCell id="bMoABtOeyOEBQM-wrku_-1" style="edgeStyle=orthogonalEdgeStyle;rounded=0;orthogonalLoop=1;jettySize=auto;html=1;entryX=0;entryY=0.5;entryDx=0;entryDy=0;" parent="1" source="bMoABtOeyOEBQM-wrku_-2" target="bMoABtOeyOEBQM-wrku_-7" edge="1">
          <mxGeometry relative="1" as="geometry" />
        </mxCell>
        <mxCell id="bMoABtOeyOEBQM-wrku_-2" value="&lt;span style=&quot;color: rgb(255, 153, 153); font-family: &amp;quot;Courier New&amp;quot;;&quot;&gt;car&lt;/span&gt;" style="rounded=0;whiteSpace=wrap;html=1;" parent="1" vertex="1">
          <mxGeometry x="90" y="98.88" width="50" height="25" as="geometry" />
        </mxCell>
        <mxCell id="bMoABtOeyOEBQM-wrku_-3" value="" style="group" parent="1" vertex="1" connectable="0">
          <mxGeometry x="300" y="63.879999999999995" width="88.75" height="90" as="geometry" />
        </mxCell>
        <mxCell id="bMoABtOeyOEBQM-wrku_-4" value="" style="shape=trapezoid;perimeter=trapezoidPerimeter;whiteSpace=wrap;html=1;fixedSize=1;rotation=90;size=16.25;verticalAlign=middle;textDirection=rtl;fillColor=#e1d5e7;strokeColor=#9673a6;" parent="bMoABtOeyOEBQM-wrku_-3" vertex="1">
          <mxGeometry x="-6.25" y="13.75" width="95" height="67.5" as="geometry" />
        </mxCell>
        <mxCell id="bMoABtOeyOEBQM-wrku_-5" value="Text Encoder" style="text;html=1;align=center;verticalAlign=middle;whiteSpace=wrap;rounded=0;" parent="bMoABtOeyOEBQM-wrku_-3" vertex="1">
          <mxGeometry x="11.25" y="30" width="60" height="30" as="geometry" />
        </mxCell>
        <mxCell id="bMoABtOeyOEBQM-wrku_-6" style="edgeStyle=orthogonalEdgeStyle;rounded=0;orthogonalLoop=1;jettySize=auto;html=1;exitX=1;exitY=0.5;exitDx=0;exitDy=0;entryX=0.5;entryY=1;entryDx=0;entryDy=0;" parent="1" source="bMoABtOeyOEBQM-wrku_-7" target="bMoABtOeyOEBQM-wrku_-4" edge="1">
          <mxGeometry relative="1" as="geometry" />
        </mxCell>
        <mxCell id="bMoABtOeyOEBQM-wrku_-7" value="&lt;font face=&quot;Courier New&quot;&gt;A photo of a &lt;font style=&quot;color: rgb(255, 153, 153);&quot;&gt;{object}&lt;/font&gt;&lt;font style=&quot;color: rgb(0, 0, 0);&quot;&gt;.&lt;/font&gt;&lt;/font&gt;" style="rounded=0;whiteSpace=wrap;html=1;" parent="1" vertex="1">
          <mxGeometry x="180" y="86.38" width="100" height="50" as="geometry" />
        </mxCell>
        <mxCell id="bMoABtOeyOEBQM-wrku_-8" style="edgeStyle=orthogonalEdgeStyle;rounded=0;orthogonalLoop=1;jettySize=auto;html=1;exitX=1;exitY=0.5;exitDx=0;exitDy=0;entryX=0;entryY=0.5;entryDx=0;entryDy=0;" parent="1" source="bMoABtOeyOEBQM-wrku_-9" target="bMoABtOeyOEBQM-wrku_-7" edge="1">
          <mxGeometry relative="1" as="geometry" />
        </mxCell>
        <mxCell id="bMoABtOeyOEBQM-wrku_-9" value="&lt;span style=&quot;color: rgb(255, 153, 153); font-family: &amp;quot;Courier New&amp;quot;;&quot;&gt;dog&lt;/span&gt;" style="rounded=0;whiteSpace=wrap;html=1;" parent="1" vertex="1">
          <mxGeometry x="90" y="75" width="50" height="25" as="geometry" />
        </mxCell>
        <mxCell id="bMoABtOeyOEBQM-wrku_-10" style="edgeStyle=orthogonalEdgeStyle;rounded=0;orthogonalLoop=1;jettySize=auto;html=1;exitX=1;exitY=0.5;exitDx=0;exitDy=0;entryX=0;entryY=0.5;entryDx=0;entryDy=0;" parent="1" source="bMoABtOeyOEBQM-wrku_-11" target="bMoABtOeyOEBQM-wrku_-7" edge="1">
          <mxGeometry relative="1" as="geometry" />
        </mxCell>
        <mxCell id="bMoABtOeyOEBQM-wrku_-11" value="&lt;font face=&quot;Courier New&quot; color=&quot;#ff9999&quot;&gt;plane&lt;/font&gt;" style="rounded=0;whiteSpace=wrap;html=1;" parent="1" vertex="1">
          <mxGeometry x="90" y="50" width="50" height="25" as="geometry" />
        </mxCell>
        <mxCell id="bMoABtOeyOEBQM-wrku_-12" style="edgeStyle=orthogonalEdgeStyle;rounded=0;orthogonalLoop=1;jettySize=auto;html=1;exitX=1;exitY=0.5;exitDx=0;exitDy=0;entryX=0;entryY=0.5;entryDx=0;entryDy=0;" parent="1" source="bMoABtOeyOEBQM-wrku_-13" target="bMoABtOeyOEBQM-wrku_-7" edge="1">
          <mxGeometry relative="1" as="geometry" />
        </mxCell>
        <mxCell id="bMoABtOeyOEBQM-wrku_-13" value="&lt;font face=&quot;Courier New&quot; color=&quot;#ff9999&quot;&gt;banana&lt;/font&gt;" style="rounded=0;whiteSpace=wrap;html=1;" parent="1" vertex="1">
          <mxGeometry x="90" y="151" width="50" height="25" as="geometry" />
        </mxCell>
        <mxCell id="bMoABtOeyOEBQM-wrku_-14" value="&lt;span style=&quot;color: rgb(0, 0, 0); font-family: &amp;quot;Times New Roman&amp;quot;; font-size: 12px; font-style: normal; font-variant-ligatures: normal; font-variant-caps: normal; font-weight: 400; letter-spacing: normal; orphans: 2; text-align: center; text-indent: 0px; text-transform: none; widows: 2; word-spacing: 0px; -webkit-text-stroke-width: 0px; white-space: normal; text-decoration-thickness: initial; text-decoration-style: initial; text-decoration-color: initial; float: none; display: inline !important;&quot;&gt;…&lt;/span&gt;" style="text;whiteSpace=wrap;html=1;connectable=1;" parent="1" vertex="1">
          <mxGeometry x="506.5" y="111" width="19" height="40" as="geometry" />
        </mxCell>
        <mxCell id="bMoABtOeyOEBQM-wrku_-15" value="&lt;b style=&quot;font-family: &amp;quot;Times New Roman&amp;quot;;&quot;&gt;T&lt;/b&gt;&lt;sub style=&quot;font-family: &amp;quot;Times New Roman&amp;quot;; font-size: 10px;&quot;&gt;1&lt;/sub&gt;" style="connectable=1;recursiveResize=0;strokeColor=#9673a6;fillColor=#e1d5e7;align=center;whiteSpace=wrap;html=1;strokeWidth=0.5;" parent="1" vertex="1">
          <mxGeometry x="376" y="179" width="40" height="40" as="geometry">
            <mxRectangle width="40" height="38" as="alternateBounds" />
          </mxGeometry>
        </mxCell>
        <mxCell id="bMoABtOeyOEBQM-wrku_-16" value="&lt;b style=&quot;font-family: &amp;quot;Times New Roman&amp;quot;;&quot;&gt;T&lt;/b&gt;&lt;sub style=&quot;font-family: &amp;quot;Times New Roman&amp;quot;; font-size: 10px;&quot;&gt;2&lt;/sub&gt;" style="connectable=1;recursiveResize=0;strokeColor=#9673a6;fillColor=#e1d5e7;align=center;whiteSpace=wrap;html=1;strokeWidth=0.5;" parent="1" vertex="1">
          <mxGeometry x="416" y="179" width="40" height="40" as="geometry">
            <mxRectangle width="40" height="38" as="alternateBounds" />
          </mxGeometry>
        </mxCell>
        <mxCell id="bMoABtOeyOEBQM-wrku_-17" value="&lt;b style=&quot;font-family: &amp;quot;Times New Roman&amp;quot;;&quot;&gt;T&lt;/b&gt;&lt;sub style=&quot;font-family: &amp;quot;Times New Roman&amp;quot;; font-size: 10px;&quot;&gt;3&lt;/sub&gt;" style="connectable=1;recursiveResize=0;strokeColor=#9673a6;fillColor=#e1d5e7;align=center;whiteSpace=wrap;html=1;strokeWidth=0.5;" parent="1" vertex="1">
          <mxGeometry x="456" y="179" width="40" height="40" as="geometry">
            <mxRectangle width="40" height="38" as="alternateBounds" />
          </mxGeometry>
        </mxCell>
        <mxCell id="bMoABtOeyOEBQM-wrku_-18" value="&lt;span style=&quot;font-family: &amp;quot;Times New Roman&amp;quot;;&quot;&gt;…&lt;/span&gt;" style="connectable=1;recursiveResize=0;strokeColor=#9673a6;fillColor=#e1d5e7;align=center;whiteSpace=wrap;html=1;strokeWidth=0.5;" parent="1" vertex="1">
          <mxGeometry x="496" y="179" width="40" height="40" as="geometry">
            <mxRectangle width="40" height="38" as="alternateBounds" />
          </mxGeometry>
        </mxCell>
        <mxCell id="bMoABtOeyOEBQM-wrku_-19" value="&lt;b style=&quot;font-family: &amp;quot;Times New Roman&amp;quot;;&quot;&gt;T&lt;/b&gt;&lt;sub style=&quot;font-family: &amp;quot;Times New Roman&amp;quot;; font-size: 10px;&quot;&gt;N&lt;/sub&gt;" style="connectable=1;recursiveResize=0;strokeColor=#9673a6;fillColor=#e1d5e7;align=center;whiteSpace=wrap;html=1;strokeWidth=0.5;" parent="1" vertex="1">
          <mxGeometry x="536" y="179" width="40" height="40" as="geometry">
            <mxRectangle width="40" height="38" as="alternateBounds" />
          </mxGeometry>
        </mxCell>
        <mxCell id="bMoABtOeyOEBQM-wrku_-20" value="…" style="connectable=1;recursiveResize=0;strokeColor=inherit;fillColor=none;align=center;whiteSpace=wrap;html=1;strokeWidth=0.5;fontFamily=Times New Roman;" parent="1" vertex="1">
          <mxGeometry x="496" y="229" width="40" height="40" as="geometry">
            <mxRectangle width="40" height="40" as="alternateBounds" />
          </mxGeometry>
        </mxCell>
        <mxCell id="bMoABtOeyOEBQM-wrku_-21" value="&lt;b&gt;I&lt;/b&gt;&lt;sub&gt;1&lt;/sub&gt;⋅&lt;b&gt;T&lt;/b&gt;&lt;sub style=&quot;font-size: 10px;&quot;&gt;2&lt;/sub&gt;" style="connectable=1;recursiveResize=0;strokeColor=inherit;fillColor=none;align=center;whiteSpace=wrap;html=1;strokeWidth=0.5;fontFamily=Times New Roman;" parent="1" vertex="1">
          <mxGeometry x="416" y="229" width="40" height="40" as="geometry">
            <mxRectangle width="40" height="40" as="alternateBounds" />
          </mxGeometry>
        </mxCell>
        <mxCell id="bMoABtOeyOEBQM-wrku_-22" style="edgeStyle=orthogonalEdgeStyle;rounded=0;orthogonalLoop=1;jettySize=auto;html=1;exitX=0.5;exitY=1;exitDx=0;exitDy=0;entryX=0.5;entryY=0;entryDx=0;entryDy=0;" parent="1" source="bMoABtOeyOEBQM-wrku_-23" target="bMoABtOeyOEBQM-wrku_-40" edge="1">
          <mxGeometry relative="1" as="geometry" />
        </mxCell>
        <mxCell id="bMoABtOeyOEBQM-wrku_-23" value="&lt;b&gt;I&lt;/b&gt;&lt;sub&gt;1&lt;/sub&gt;⋅&lt;b&gt;T&lt;/b&gt;&lt;sub style=&quot;font-size: 10px;&quot;&gt;3&lt;/sub&gt;" style="connectable=1;recursiveResize=0;strokeColor=#6c8ebf;fillColor=#dae8fc;align=center;whiteSpace=wrap;html=1;strokeWidth=1;perimeterSpacing=0;fontFamily=Times New Roman;" parent="1" vertex="1">
          <mxGeometry x="456" y="229" width="40" height="40" as="geometry">
            <mxRectangle width="40" height="40" as="alternateBounds" />
          </mxGeometry>
        </mxCell>
        <mxCell id="bMoABtOeyOEBQM-wrku_-24" value="&lt;b&gt;I&lt;/b&gt;&lt;sub&gt;1&lt;/sub&gt;⋅&lt;b&gt;T&lt;/b&gt;&lt;sub style=&quot;font-size: 10px;&quot;&gt;3&lt;/sub&gt;" style="connectable=1;recursiveResize=0;strokeColor=inherit;fillColor=none;align=center;whiteSpace=wrap;html=1;strokeWidth=0.5;fontFamily=Times New Roman;" parent="1" vertex="1">
          <mxGeometry x="376" y="229" width="40" height="40" as="geometry">
            <mxRectangle width="40" height="40" as="alternateBounds" />
          </mxGeometry>
        </mxCell>
        <mxCell id="bMoABtOeyOEBQM-wrku_-25" value="&lt;b&gt;I&lt;/b&gt;&lt;sub&gt;1&lt;/sub&gt;⋅&lt;b&gt;T&lt;/b&gt;&lt;sub style=&quot;font-size: 10px;&quot;&gt;N&lt;/sub&gt;" style="connectable=1;recursiveResize=0;strokeColor=inherit;fillColor=none;align=center;whiteSpace=wrap;html=1;strokeWidth=0.5;fontFamily=Times New Roman;" parent="1" vertex="1">
          <mxGeometry x="536" y="229" width="40" height="40" as="geometry">
            <mxRectangle width="40" height="40" as="alternateBounds" />
          </mxGeometry>
        </mxCell>
        <mxCell id="bMoABtOeyOEBQM-wrku_-26" value="" style="group;connectable=1;" parent="1" vertex="1" connectable="0">
          <mxGeometry x="226" y="201" width="88.75" height="90" as="geometry" />
        </mxCell>
        <mxCell id="bMoABtOeyOEBQM-wrku_-27" value="" style="shape=trapezoid;perimeter=trapezoidPerimeter;whiteSpace=wrap;html=1;fixedSize=1;rotation=90;size=16.25;verticalAlign=middle;textDirection=rtl;fillColor=#d5e8d4;strokeColor=#82b366;connectable=1;" parent="bMoABtOeyOEBQM-wrku_-26" vertex="1">
          <mxGeometry x="-6.25" y="13.75" width="95" height="67.5" as="geometry" />
        </mxCell>
        <mxCell id="bMoABtOeyOEBQM-wrku_-28" value="Image Encoder" style="text;html=1;align=center;verticalAlign=middle;whiteSpace=wrap;rounded=0;connectable=1;" parent="bMoABtOeyOEBQM-wrku_-26" vertex="1">
          <mxGeometry x="11.25" y="30" width="60" height="30" as="geometry" />
        </mxCell>
        <mxCell id="bMoABtOeyOEBQM-wrku_-29" value="&lt;b style=&quot;font-family: &amp;quot;Times New Roman&amp;quot;;&quot;&gt;I&lt;/b&gt;&lt;sub style=&quot;font-family: &amp;quot;Times New Roman&amp;quot;; font-size: 10px;&quot;&gt;1&lt;/sub&gt;" style="connectable=1;recursiveResize=0;strokeColor=#82b366;fillColor=#d5e8d4;align=center;whiteSpace=wrap;html=1;strokeWidth=0.5;container=0;" parent="1" vertex="1" collapsed="1">
          <mxGeometry x="324.3700000000001" y="229" width="40" height="40" as="geometry">
            <mxRectangle x="1120" y="335" width="40" height="40" as="alternateBounds" />
          </mxGeometry>
        </mxCell>
        <mxCell id="bMoABtOeyOEBQM-wrku_-30" style="edgeStyle=orthogonalEdgeStyle;rounded=0;orthogonalLoop=1;jettySize=auto;html=1;exitX=0.5;exitY=0;exitDx=0;exitDy=0;entryX=0.5;entryY=0;entryDx=0;entryDy=0;" parent="1" source="bMoABtOeyOEBQM-wrku_-4" target="bMoABtOeyOEBQM-wrku_-15" edge="1">
          <mxGeometry relative="1" as="geometry" />
        </mxCell>
        <mxCell id="bMoABtOeyOEBQM-wrku_-31" style="edgeStyle=orthogonalEdgeStyle;rounded=0;orthogonalLoop=1;jettySize=auto;html=1;exitX=0.5;exitY=0;exitDx=0;exitDy=0;entryX=0.5;entryY=0;entryDx=0;entryDy=0;" parent="1" source="bMoABtOeyOEBQM-wrku_-4" target="bMoABtOeyOEBQM-wrku_-16" edge="1">
          <mxGeometry relative="1" as="geometry" />
        </mxCell>
        <mxCell id="bMoABtOeyOEBQM-wrku_-32" style="edgeStyle=orthogonalEdgeStyle;rounded=0;orthogonalLoop=1;jettySize=auto;html=1;exitX=0.5;exitY=0;exitDx=0;exitDy=0;entryX=0.5;entryY=0;entryDx=0;entryDy=0;" parent="1" source="bMoABtOeyOEBQM-wrku_-4" target="bMoABtOeyOEBQM-wrku_-17" edge="1">
          <mxGeometry relative="1" as="geometry" />
        </mxCell>
        <mxCell id="bMoABtOeyOEBQM-wrku_-33" style="edgeStyle=orthogonalEdgeStyle;rounded=0;orthogonalLoop=1;jettySize=auto;html=1;exitX=0.5;exitY=0;exitDx=0;exitDy=0;entryX=0.5;entryY=0;entryDx=0;entryDy=0;" parent="1" source="bMoABtOeyOEBQM-wrku_-4" target="bMoABtOeyOEBQM-wrku_-19" edge="1">
          <mxGeometry relative="1" as="geometry" />
        </mxCell>
        <mxCell id="bMoABtOeyOEBQM-wrku_-34" style="edgeStyle=orthogonalEdgeStyle;rounded=0;orthogonalLoop=1;jettySize=auto;html=1;exitX=0.5;exitY=0;exitDx=0;exitDy=0;entryX=0;entryY=0.5;entryDx=0;entryDy=0;" parent="1" source="bMoABtOeyOEBQM-wrku_-27" target="bMoABtOeyOEBQM-wrku_-29" edge="1">
          <mxGeometry relative="1" as="geometry" />
        </mxCell>
        <mxCell id="bMoABtOeyOEBQM-wrku_-35" style="edgeStyle=orthogonalEdgeStyle;rounded=0;orthogonalLoop=1;jettySize=auto;html=1;exitX=1;exitY=0.5;exitDx=0;exitDy=0;entryX=0.5;entryY=1;entryDx=0;entryDy=0;" parent="1" source="bMoABtOeyOEBQM-wrku_-36" target="bMoABtOeyOEBQM-wrku_-27" edge="1">
          <mxGeometry relative="1" as="geometry" />
        </mxCell>
        <mxCell id="bMoABtOeyOEBQM-wrku_-36" value="" style="whiteSpace=wrap;html=1;aspect=fixed;strokeWidth=0.5;connectable=1;" parent="1" vertex="1">
          <mxGeometry x="116" y="208.5" width="80" height="80" as="geometry" />
        </mxCell>
        <mxCell id="bMoABtOeyOEBQM-wrku_-37" value="" style="shape=image;imageAspect=0;aspect=fixed;verticalLabelPosition=bottom;verticalAlign=top;image=data:image/png,iVBORw0KGgoAAAANSUhEUgAAAmQAAAGYCAYAAADsqf5DAAAAAXNSR0IArs4c6QAAIABJREFUeF7svQmcZVdZ7v3u8Yw1V/U8dyfpJJ2QATLADSSMioJzBBVFuYp6cb7eD72fEr97VRz5hA8VJxQVMSjIlAAJhICEDJ1OyNCZu9PzUF3zOXWmPdzveddeVbtPqgcUcjrdz/n9qk/XGfba+79WnfWcd3SENxIgARIgARIgARIggZ4ScHo6OgcnARIgARIgARIgARIQCjIuAhIgARIgARIgARLoMQEKsh5PAIcnARIgARIgARIgAQoyrgESIAESIAESIAES6DEBCrIeTwCHJwESIAESIAESIAEKMq4BEiABEiABEiABEugxAQqyHk8AhycBEiABEiABEiABCjKuARIgARIgARIgARLoMQEKsh5PAIcnARIgARIgARIgAQoyrgESIAESIAESIAES6DEBCrIeTwCHJwESIAESIAESIAEKMq4BEiABEiABEiABEugxAQqyHk8AhycBEiABEiABEiABCjKuARIgARIgARIgARLoMQEKsh5PAIcnARIgARIgARIgAQoyrgESIAESIAESIAES6DEBCrIeTwCHJwESIAESIAESIAEKMq4BEiABEiABEiABEugxAQqyHk8AhycBEiABEiABEiABCjKuARIgARIgARIgARLoMQEKsh5PAIcnARIgARIgARIgAQoyrgESIAESIAESIAES6DEBCrIeTwCHJwESIAESIAESIAEKMq4BEiABEiABEiABEugxAQqyHk8AhycBEiABEiABEiABCjKuARIgARIgARIgARLoMQEKsh5PAIcnARIgARIgARIgAQoyrgESIAESIAESIAES6DEBCrIeTwCHJwESIAESIAESIAEKMq4BEiABEiABEiABEugxAQqyHk8AhycBEiABEiABEiABCjKuARIgARIgARIgARLoMQEKsh5PAIcnARIgARIgARIgAQoyrgESIAESIAESIAES6DEBCrIeTwCHJwESIAESIAESIAEKMq4BEiABEiABEiABEugxAQqyHk8AhycBEiABEiABEiABCjKuARIgARIgARIgARLoMQEKsh5PAIcnARIgARIgARIgAQoyrgESIAESIAESIAES6DEBCrIeTwCHJwESIAESIAESIAEKMq4BEiABEiABEiABEugxAQqyHk8AhycBEiABEiABEiABCjKuARIgARIgARIgARLoMQEKsh5PAIcnARIgARIgARIgAQoyrgESIAESIAESIAES6DEBCrIeTwCHJwESIAESIAESIAEKMq4BEiABEiABEiABEugxAQqyHk8AhycBEiABEiABEiABCjKuARIgARIgARIgARLoMQEKsh5PAIcnARIgARIgARIgAQoyrgESIAESIAESIAES6DEBCrIeTwCHJwESIAESIAESIAEKMq4BEiABEiABEiABEugxAQqyHk8AhycBEiABEiABEiABCjKuARIgARIgARIgARLoMQEKsh5PAIcnARIgARIgARIgAQoyrgESIAESIAESIAES6DEBCrIeTwCHJwESIAESIAESIAEKMq4BEiABEiABEiABEugxAQqyHk8AhycBEiABEiABEiABCjKuARIgARIgARIgARLoMQEKsh5PAIcnARIgARIgARIgAQoyrgESIAESIAESIAES6DEBCrIeTwCHJwESIAESIAESIAEKMq4BEiABEiABEiABEugxAQqyHk8AhycBEiABEiABEiABCjKuARIgARIgARIgARLoMQEKsh5PAIcnARIgARIgARIgAQoyrgESIAESIAESIAES6DEBCrIeTwCHJwESIAESIAESIAEKMq4BEiABEiABEiABEugxAQqyHk8AhycBEiABEiABEiABCjKuARIgARIgARIgARLoMQEKsh5PAIcnARIgARIgARIgAQoyrgESIAESIAESIAES6DEBCrIeTwCHJwESIAESIAESIAEKMq4BEiABEiABEiABEugxAQqyHk8AhycBEiABEiABEiABCjKuARIgARIgARIgARLoMQEKsh5PAIcnARIgARIgARIgAQoyrgESIAESIAESIAES6DEBCrIeTwCHJwESIAESIAESIAEKMq4BEiABEiABEiABEugxAQqyHk8AhycBEiABEiABEiABCjKuARIgARIgARIgARLoMQEKsh5PAIcnARIgARIgARIgAQoyrgESIAESIAESIAES6DEBCrIeTwCHJwESIAESIAESIAEKMq4BEiABEiABEiABEugxAQqyHk8AhycBEiABEiABEiABCjKuARIgARIgARIgARLoMQEKsh5PAIcnARIgARIgARIgAQoyrgESIAESIAESIAES6DEBCrIeTwCHJwESIAESIAESIAEKMq4BEiABEiABEiABEugxAQqyHk8AhycBEiABEiABEiABCjKuARIgARIgARIgARLoMQEKsh5PAIcnARIgARIgARIgAQoyrgESIAESIAESIAES6DEBCrIeTwCHJwESIAESIAESIAEKMq4BEiABEiABEiABEugxAQqyHk8AhycBEiABEiABEiABCjKuARIgARIgARIgARLoMQEKsh5PAIcnARIgARIgARIgAQoyrgESIAESIAESIAES6DEBCrIeTwCHJwESIAESIAESIAEKMq4BEiABEiABEiABEugxAQqyHk8AhycBEiABEiABEiABCjKuARIgARIgARIgARLoMQEKsh5PAIcnARIgARIgARIgAQoyrgESIAESIAESIAES6DEBCrIeTwCHJwESIAESIAESIAEKMq4BEiABEiABEiABEugxAQqyHk8AhycBEiABEiABEiABCjKuARIgARIgARIgARLoMQEKsh5PAIcnARIgARIgARIgAQoyrgESIAESIAESIAES6DEBCrIeTwCHJwESIAESIAESIAEKMq4BEiABEiABEiABEugxAQqyHk8AhycBEiABEiABEiABCjKuARIgARIgARIgARLoMQEKsh5PAIcnARIgARIgARIgAQoyrgESIAESIAESIAES6DEBCrIeTwCHJwESIAESIAESIAEKMq4BEiABEiABEiABEugxAQqyHk8AhycBEiABEiABEiABCjKuARIgARIgARIgARLoMQEKsh5PAIcnARIgARIgARIgAQoyrgESIAESIAESIAES6DEBCrIeTwCHJwESIAESIAESIAEKMq4BEiABEiABEiABEugxAQqyHk8AhycBEiABEiABEiABCjKuARIgARIgARIgARLoMQEKsh5PAIcnARIgARIgARIgAQoyrgESIAESIAESIAES6DEBCrIeTwCHJwESIAESIAESIAEKMq4BEiABEsgIpDfd5H7pFevDUiMI225aSdtp0Quc0InTIEkdz/MSF/dukrp4S5p6aeJGiZ96aSQSu04ai5s0gjStu2GlIc2pzlz1/Pb1118fO46TEjQJkAAJnIgABRnXBgmQwDlF4JZb3lsIO6XBQhKsidJkpesmqyVxRxNJq2kSF8RximmallKRvjRJKiJSFJFCKuI5Ir6I44sYQSbiJCJpIiK4jx3HjVKROSeVOcd15hxHWq7jtVJHOo44bceRujjOIZHkmJs6RxzXP1QvyMRrv7ar4dx0E47DGwmQwDlKgILsHJ14XjYJnO0EILz8TmVEovZGL3YvT5L0kkSStWmaVlVk4d7xqtnvpTRNQyisNE31czFNT23QwmscZ/FjtPv/cRyL67p4Teo4EG/SEZG6iNMQSeuu69QdRxriSFPEedYR5/7Q9e52End/PLZ36oYbborO9nni9ZEACWRf7wiCBEiABF4oBCCWHv3oR4O63+iL0k61FTtFcaPBJEk3JE56sUTJBXGSbkklXZOkaVnSFAIL1iwvTVNPRPD/BQXlOHjoxLfTEWX23XkxZh+LokgFWybK9OH8MXNeTKi/xHEcuDbxA/GWep436zjO0444j7iu84CIszN0/cOu49ecqDj30htvbLxQ5o7nSQIkcHICtJBxhZAACZyRBCC+br31feFAc3Cgk8br0zRenSTJYBxHy5MkeUmapi+K02StiIR4LYRO94/nGcF1vAjKf+y5IsYgtnDLC6tTCrJThIUlSaKCzP4893jGS9n9eLe4y4m61HXdI47jPOA6zn1e4Dztibs/Fm+XO+wdueGGH2+ekZPJkyIBEjglAQqyUyLiC0iABJ4PAhBVX/roRyuuP7M2Sd2r0yS+sNNqDyQiI0manJcmycY0TfuSJFHxpTfXfoTB8AVxc/y9sYAlMJQt3BurlAkBg2Cygmwp8bWU1es48ZZFknXzWUoA4ljPfRznZoTkUqLQjn/C+1Rix0v3uam/0w+c/a4XHPQ99yu+FB45EBUnbrzxxvj5mDuOQQIk8J8nQEH2n2fII5AACfwHCGz/wAeCmVFvVZokl8Rx8qo4ji9OkqQ/SdJqksbL0yQdgqvxdA6NsPpU4+odcSCSIMAgvE5xfyoLWLeIOpnwWuo8TyboTnVsHK9biNkxjo9VS8V1fStIW44khxzXn3Cc9JgfFO5yPOfzSb3w8Ot+9Efrp8OSryEBEugNAQqy3nDnqCRwThCA6IrWVkr1OO5LOu3+uNVBNuPWJIq+N03Ta5JEEEzv2h+jQRY/lroF03MEVOZuPB3r1pLiq8vleCrXISYt/5oTu0LN9J7q+VNZ4E51PnnB1p1QgEQC13U1Ls113brrul/xPf/DrrgPOuLO1Ert2e/8zp9qsBzHOfGnyIt8ARCgIHsBTBJPkQReKATuuOODxXgyXeUk6ZY4jVdFcWdU4nRdkiZXRFF8aRzHfXkXHYLd87+fTKAsKahOIsjyFibL7znHWCIG7EQiKm/Rsq+x9yeyZKlLNLstdW2nK8hO9702Vm0pMQjWrutCpE27rnOf6zr3u47zTOAFT4cF76mDrb4jdHG+UP7SeJ5nIwEKsrNxVnlNJPA8Erjlln/oL9Tnt0VJ8oqoHW+O4s66OI63JkmyKstsfI7osgIDQffdMVT5wHz7uhNZypwsFqxbgCwlgpaybKl78zRu3UH59hxPJZRO5RI9jaGPK6vR/XorEjFOd/KAfSz/nm7h6EoaOa672/e8x3zPf9INgy97QemuV3/vj02czrnxNSRAAt88AhRk3zyWPBIJnBME4IacHYo3tdvpd7aizg1pmqyI42QoSRJkP1ZO5aY7GaRud+WJ3IMLlqmcIDsV/CXdmksIsu5z6BYxecEIq1P+9s0QYEsd70SWNDwOK1xekFlxisdslikey4tbew2odGufcxyn47rOUc/zj3qu96TveTdHQ4XPvuENb58/FVs+TwIk8J8nQEH2n2fII5DAWUsAxVVLtb6hJGmvitP42iiO3hB1opdGUVSK49hFUQdkR+Zdc4Bh624tZaXJu/vyFp68aOgGesK4rRMIstMVRt0WstMNwu92VdrzPdF5nmiBnMpleboLa6nzyVvxul2Z9jlXFgvbdsWgaSHbMCy0PM/5YlAIby4EwX19Bdn7Ygq0050Wvo4EviECFGTfEC6+mATOfgJ33HGTn4wvXy4iVzWa7YuSJLk2ieNXxHFchfCyP9jUXT9QIN1ux25KJxIeEG7WwrOkBesEAf4Lr81iyE6WCGDPpfsc9PdcDNmpxj/ZzC/13pOJwhMJutPlttTrusfD9dnCtHmxm4+Fc9LFOmlLHRNzAyub7/sSBMHjfhh81HeDO91C6cFXfc+PTjIh4Oz/POAVPn8EKMieP9YciQTOaAJ3/tPfrG0mjZe3ovbVUbuzMYqiq0VkDJsyWgDZDT8LDlcXWJQ8t71QXpzlXWYnEjxWkFnRkLfm5IHlLWsLFqksZr5bbC1YgLpcis8Jvs8EWfex7e9LFZZd6py+0Yk9XQte93G737eUqzLPsfu6uq/fXP5icdr88ZYSsK7rxr7n7/GDYIfrOjuqQ30fveG7/uvT3+j18/UkQALPJUBBxlVBAucwgc996EOVNKhd32y039aJ2hfEcQwBhngwXy1guSzI7g3auimXCrzvDoJfykqloikx7s28e83GZeVjo07HcnQisZIf+1RB+N1j5l2q+eOf6JpPdJ2ns8SWcncuNU5+jLxIxuNLMTiREIa79kSWulONm7mk64VCuNf3g6+XiqUPRv2tO1//+p9vnc618jUkQAIUZFwDJHBOE9j+qQ+UG+14xfx8Z0WjHb2pE8dvMe2I4uNch1YgdVuI8kLrZG66pVyIS8UxaSHXzC3ZLS4gjk4VNH+qGKy8hciOnx/PjnEiobaUVe50LGR5S1TeYtj93qUse6eyCuafP9n78+fQPR8LwjOXk9DNxwq8peYcj1khjfsgCCQMwyf8MLipKO69Xrt08IYfZxunc/rDhhf/DROghewbRsY3kMALiwCC7r/4z3+xqR23ruu0ows6UefVnXb8oiiKgiiJ1UqFW7er0Lqvui1DeUGTt7AsJX7yYmQpQXaix6wYyLs8l7IAnUyc4NgQmt2v6T7/pYTIySxEJxNk3SK1u85a/hos39NdTd3HxjkmYlzGJ+JsY8iWmltrAe0ef6lrsDzyFsRusYy58jyvUwiDhwph+OliMfyav6x4J/trnu4M83XnOgEKsnN9BfD6z1oC6U03uV/YOrql1Yq+q9FsvrbV6iA7spzfcG0I2ImsIydyd1lotnm2/T0vMvLuPiv47H3eRZl/rHsyuoVE/jj4f3d254ksRvnYqKUmfCmLXvdYSwmok1kJT3Zd3ddvz+lkFr+lxoIgW8qVmhdQSwnZ54pq0wM03/MTv6OuLXp/oieovU9TiFzz+m5RhrHUYub5iee7eyqV8u2+53+2VAzu+crOI4duuummxUq5Z+1fHi+MBP5jBCjI/mPc+C4SOGMJ3HTTTe5LLxhZUZtv//pcrfZaSZMV6A+JhLqlNvWlhMfpXtxSIiUv7k4mmJYSElY8LCXEus9zKUG2lKDLP3YywZN/Xbflr9sCZct6dFvgTsXSitSlRNJS15cfd0nx1/UJvpT10o7V7To1Fjbjs7RN2Lubs6NHphVgyI+wr4NQS5LoOfXPzMES8R3XuqIjz/cmimE4Ffj+ET8I7/I9935xne3La8HBXUNDyc6dO9N3vetdKLPx3AyR012IfB0JnAUEKMjOgknkJZAASlW0J1Zu6TQ7V7eazbc3m82XtFotH4JBN+msPER+c+4WKkvFOlkLSLeQyG/83SInL8iWcrPlxUjecpW3qNkYpe6Z7T7eiQSmfZ91Gdrf7bnl35cXX0sJGsvFvi6fZbqUS7Rb2HVbDU80B0ut4qXO87jjY2qRHJFV6rfHtqVJrMjr5mnf4/rFhffbx/JZr51OZ8lOCjbzNpFYLWKuLG4lGMt3IchSxJVp2Yww8LV0Bn60jIarMWgNETnked4TruPe67pyb+AHB1I/mOkrhxMve+NP1CjS+Nl2LhGgIDuXZpvXelYSuOUf3rumPt94Y7PV/pkoiraZTfT44qyLtcOc4zZvSYxg644Rygua/PPd4qVbCHQLn27gJ4rNygsl6wbFxn2i159MiJ3MCnYi16S9DitAuy1TedFjxY1amHK9KruFmP19KStit4jKi9STCbPnCNJMkHVnvFpRlRfU3XOMY7U6RsxZgQWBmU/wsIIO99016PQxMd0A8q5LWNKsQEuitnFhmqB/KRULUiwW9QePoTCtfW8cx2mapsc8z9vpe/4O1/eeKBUruxyn8+hdT0wcprvzrPz44kXlCFCQcTmQwAuUwBc+8oHNu/bte0utXr+21WxemzjSZ61MvhfqBmhda3jcc4wYy4uNJIKF4/i2OnkLid1su4WRPe5S1qCTibJuQWR/t4LMbvp6vp53/My4jtZxhbHPOrfyMWz5Y+XFUF7EdI9/MgvaUhbDvMUpbzXsFlRLCsbcyS8IJsdc44ksYfbxE52LuGZO1YWY65DQbSlDcL/9yQuu+WZL0mRxXSwU6UU7JhFpNhriuK54ritxkkjU6UicRuKKJzj1TjsWL0Th2FAtYnBxYj3ZtRZ41iVqsjKxJoulUMqFsoShL9VKWQqFgv6YIsGRSGIEYpqmrVardcDz3SdDv7A3LBW2l8PyHclIvI/lNV6gH1o87ZMSoCDjAiGBFxABZEx++tN/UTry5L5fOHzo8FsdL1z74IMPlqrVfhkaGRZYx0qlkgS+2eBghdCf0FOrhRU+LoSNxPpcvugr4oWwwXuOea+1vCxakHxjQVEh5+qmrLdMGHQLlhMYkBYsX9AoVtxhLM36zOqfdQsyFRxZGVNs+CquEpNFeTKhlxeh1t2Ix/Q6ckzyyyBvTTqRhRA8VTBlmRH6fycrsmqxeCbTE646iI1OBxbJxUbgvleQdjtSzlb8WmuVFVWYh3a7rc9jfnA8CBvMNTolxCqyTcYlRBdeG2Wh87X5uvJtt5v6HM4Zz+MYWCczM3MShgUdv16v6zHVtej40sF5u67M1moy0FeR+VZTJE4kwaTFqdSb8xInqURxRwb6ByUIfUniVFqtllrAwKNareo6wti412v0HBnoGxDPc6VSKkjUbklfpSRjY2NSLBYkQWZskjFLDRuccBwnc7Ekk54bTBQL4SN+WLi1UBn4wqz0z9x4443Hp9O+gP6meaoksPAllihIgAReGARuu/kDA1PT0298/LEnfqMy0HdeFMVy5PC4PPbYEzI/j81RdDPtHxqUUqmsm2FfX59uyL7j6IZYLAS6WYaeb0SMYxpT528QDgjeRpyPvVnR5nmmVRL25P+/5pTEcUePY0PUuq1RJgj8uQVLFz6Aul2rWRkH6xZcsBDlWigtvBfjxp0Fodk9i9aClbe+5cWbijJoqJzLtvsYVojmLYTHPZakAikkKcyMiwmEScYU4gPsjJhKVfCYa1MVKxEEmuerAFaGSbpgAYTAAmfNpIwTidNEfNeTdtSSwAulE0fS6sT6uHU1NttGkHUiI2znmw29b7YaKmwKQai/Y95wTvV6Q+/x/majpRYwdcXGoiIKj+N+YLBPhVYcm0B+rDOIcD8I9TW4rqGhIWk2m/p7q9WR/v7+hcfNY6ZmbKVSkYGBAUmijlTKJemvlvW5drMhy5aPyrrVq6UQhvo7xnE90SQB3KLctRoB7E55rvfxoBB+slgu7ay2+/ex/tkL4/OMZ/lcArSQcVWQwBlO4K6b/2p47/Sxq3fufPTbr7jsyh9vt9vVHTt2SK1WgzSSTmysPUePTcjU1JRaOubrTd30sCkODg7qZgmLCFxPGmQdam/ChR8bfG3EEzZzWJ/M5m7desbtaXpP4ob36+uh63LFXa2IMoIoSyrI1Tk7TgAl5iMob+Gyx+x+XIVC91ypeFyMgXvO00liNnW43LL4KHtc+9hzxs4FyHdb3vLXpmPBOgaLF2RhrsgqarvhtbD44ZY/Bzu+cR1Cl/niJKl0khiOQHF8T9IolmanLeVCUdpxpAK6FXX08bn5OWk32ipOGo3GgiCDRSuKEhVQelqOo5Y0zFejOa+iRxkmiXRaTb0v95UkCDxdG6VSxYj1MFSBiefxOI4HlyJEF0SndX2m4kqtNq9sp6dm5NixY7q27BjGQltYEGn4goAb1qcRZX1SLIRqDcM6LRdDac43pBj6smLFchnoryo3nd/cdwb93TNZnPaLQpqmSZqm93qu+/mwVHq0XCnc/+0/+HO7mBRwhn+48fSOI0BBxgVBAmcoAbgnb/3I+y77+gMP/1KpUrruVa961brbPv8F9+jRo7q5YmPEvYkhSgXWEWyCzXZHN0dogdnZWd0ksaFiQxweHpbBgQEpFAIVUhBV2HSLhbJaIpwUgm2xCrsKLw+R44sWIM3czCxk+ebVeYxWJJmSCYs3+7gVOohFMiJw0Y2nOkdMHFE+KN0INfORZYWRl3P/WddkXkThGHZTt9Ye6xK1FrS88Ou2Fi4V5H/cBdmqujlRCe3gpMZqaOKisusTz4iZNJHA9VRgQQAZC5hIlHSUvxoVEwjttrSbHWl1muI5vjTbDZmbqUmjNa/3fmisbk7W/BvXA/cnrFStdkf5Yf7L5bJU+yoqgiDOR4aGpa+vImHBZD3iuBB2EFxxJu7jyMQaQjxZ0aMCr2AEEiyAiBvD+cMK6rm+TE5OqqV23759igjrCi5ay926iy1vHL8Q+DI4NKDrEP/vr1YljSEoI+mvVHS9wlqG9ev7yOb0RFxTF83UTTNJAVZcR1CkIhOB5+8MAv+hYrny2WrR//INN/43fHvhjQTOaAIUZGf09PDkzkUCqCP26svXVh578qnfmJuZffO2Sy5Z3m63g6997Wu6ybZaTWyyaavdSX3Plfr8vLSaHbejLibEYWnIjW5ak9PGYjY7U9MNF5vyyMiIbsywhISlom6chQI2VriGIN7MRmtLFCAu24gKI67UBSeO+AUTx2RvRswkumHbGK+F3t5wxWUJBSqo1M0HN2phQVzlLV15QZYXa92WuHwJChuQbl9jLXk2Ri0vLBZEIIqz5dyhtvK9vab8eM9diyZmbMGtiutPXUldRxCxhxpf5ppN3JbW9FKLmCMlWL6ijnHjeY4Erq+xWe1GS6bnZqRZb0gH1r9EpNaoSxolUqqWdX6KlZIcPXREn4d7GceGixAuTIhvnePhUbWQ4keD5kMTD9hqNaTTaqkAqzcaKt70//W63kPM47F2C+LMuCLV1RpHevk26QICqlItS7lYksHBflm2bIWsWbNmQbzt33dAjhw5okLLfGkwSRpWOGE9afmL0JO5uTkVjWMjwxLCrY4vCeWCWs6wRqtls0aDwJfAQzykL2FQED/wci5gY/nFelPLpEli6PiuNxUEwUOFov+Xrji39m9qNG644SZzMbyRwBlGgILsDJsQns65TeBzH/qzZY1o/nuefOrJX92wYcOmkZERZ/v27XLgwAEFMzY6Fo+MDs8PDg1MLl8+OonNferYVN/uZ/eMHBufLE9NzRQiBF7DTdUymykC11vNjm58s/WaCQr3fHEDX6p9/boZYhMvZe4qiDFs4qFaXuANLkUcAAAgAElEQVTWzGpImdY4Gn9k46K6BZIVZQtB95mTsdvltOCDShczKU1slXFFwbp0nNDJlkW+vILNsLRuMiu47Gu6S0FYYXfc811JAXlBlreg2ffmxafGUgWORIlW3F0IpIcbGZIM79cgfs+VqB1LWECguxFnELsQQchQxLzgR4PxbVB+ZFyxEM44X42xarcF1lFjCWurSKlWK9I3UFVBNDo6uhDs35hvqlhRMT47KzPTU+rOrs1OL4wD4eUieD9LpDAiFXH7pkK/sbwawQm25WpFz8+KNM2qhIj3XSkUcC5VWbt2rVx22WVSKpZl//79smfPnsyFKXqN1g0KDjjmXL0my5cv1zFmZ6elGBZkeGhArwsuTFx7MTSudXiE9fdiqO7V0PfU1WnX0qIgX7SaRW0bs+eK7zuH/MD/YCEs3F4qlZ981Y0/Y/6oeCOBM4QABdkZMhE8jXObANyTn/mHP/svX3/owZ8SSb/3ggsuKO/du1f2PLtLNzqIoKGhocbmTRuOLhsbmXCdRE1TqedJEiUSR7ETRXHf4088Nfbss/v6a/PNIEpTpzFvXJoIXjeWjlQtILOzRgR4KFfgmXIEsHYYa1lBf/c9R6qVfikUA+PyhGtTXVQmDilvndLZy6xFKl6sKy+LN0O9qby7EvFWGgMUZcIrSyCwgsyuBiuKTmQls9mJ9pzwOpud2W0x6xZkar2KjYVswaqWSyqwFqH8uRjRYoQKrFMeLE9wnUEEIwDfBIVZ+bhgMWvNN1UAW2GMY8zMzGimK+yFuKl7M8uUhACD8EGgvbVKYR2sXLlSBQxiAvVcxMSRIZ4Q4mZmelZdh9PT0/r4fK1uMjQRgI9Mz44Jyk/ijjRaTS154SxW1VeLZVAoZBYpzHtpwTq2atWqhUKvGBuZm3O1STk6fliwzqx7FIkkV199rVx44YUCS9mzzz4rs7M1vQ4IOuMGTTUrGFZEnLsRXr6xuCZx9gUhVEGKdYd1ifVobkhiSCXutGR0dNi4ZDWbE5ms5suIm5VNMfGPyNo0FloT1xZMB0HwJd/z/qVS8m9/9Q/94pFz+9OHV3+mEKAgO1NmgudxzhK4/WN/cf6TTz371unpqTe8+PLLt8HVc9ddd6kQCjxfiqVidN6WzeNrVq+cDDyp+76fNho1PC6tdiKFUlHdUPA5OnESoKLBkWPHik88tXv08OHxPsSWIbYH7ii1Omk7HJEojjXLDhs5nscNFgpsftjkIL4QxK9Zmj7OIzTB11ndKBsAnhdmKnIgMnQDjNV1uXDLrFHHCxwjXnKNBBZLYmSbqhVWVrTYJANrubExYtYilreYWeGYF2x5qx4sd3lB1n0e+bHz79O4KJSqCMBysbiqtSwZy6Rrsl/jWKanZxaC0CE6wBfPpWmi/8exIaImpib19bBYQmSMjS5TyxdiqSBmcIPlyVrLcIyZ2owG1UNoW7FoMyRR5sJYwmB9dCRum+zKSrmo9xA8sHxhPFihYNnDNeMckEzQbneMK7PZlMGhIWk1m1qXrFwqqRBFvCFKqniuiUU8fPiwnh/iyy6++GJ57WteJ88884zs339Q4xptzGGj0RIXyQuIBXNciSMT84bYOgc1WTQOzyQVlEsFwyO/Ll1Xoqgt+/bt0ZIZ4IMfiEEIM6w6Oy86vzrPi5kBmZX0WKFQuKcQFj814Ln/fMOP/9L0OfshxAs/IwhQkJ0R08CTOBcJ3HzzzWEwv//6x554+rcHBvq3rVq1qrD9nnuc8fFxGRzqh2hKx0ZG5i+86ML9/dXKrIcIJCcRF3eQPY5IjA0tK86lnQl1z4FAcLGfBeOTU8MPPvrEyj179oazc3WT1QfrRpTohgglZMsmYHOHJUNrUbkmg1Jje8ZGVBw0m/O6iaNYKH5HLBo2TGyWEEXWQqElEeJEN2rUK1NLErLvUBm+1dI4H2z+xiWZS00UE1eUF1Q25gjnks/gs+IMYtNaxKx1bMFKotYRYzGDwMDN1sSCMNB6W64p74DX2Hpf+sLsvfZ9OG9cK44HCw8siOpWTTyTFbkYt6SWLxwbFkiIgWK5JJhT/N9acyBw8LrZLMYPsV7r169XgYR6XGFY1PNqtltq8YLQwTEgvDBPEGQqnJBp2YY1zQTP2x+TSRtKXxlz40pfpaqibGx4eGFe5+tzUiojtmyxlptJQkik04kEMYlau8w1wrLcV5WJoxMSY31FsRQrZb0eXHsYFJWL5Yr6Zri+LVu2yBvf+EYZHz8mu3btkkOHDimb2ty8VPsHpNZsaS0zK66x6FGfTOe909LXlpCJKSLVyqL1dmRwSF/XP1CVg/v3KRt8QYAFEaUzcN3q5tTsWjXDLsRE2vWRWVdT13XnwiA8WCqX/9eySvLxl974y2jpxBsJPO8EKMied+QckAREPvNXf7h+fK72k/v27/v1666/3rnnnnvkwQcfkLHhEfF8R4qlUuf8C86f2Lh2wz7XSRKIMCPGQA+CDGIMP77EqIyuQguP4zUoSGBujhdIJ0rLX7vvwfPuuW97sdloGyEmyMZsS+q4JhjcccXzA7UkwB0ECwZcSbZEQalUUNEyMjJkXD9ZSQVs+tatCDEBYdHXV1XXGG5wdSKF0FjRsC9qsS09vzbKM8Dqg1IcGjdmkgFwswHlVgRZK9zCxp2JJghMFYD2erNSCN0uVRtfZovd4ndNWgBJlHLoJBInHbX0OD7KdcAtiyQJU7MLFh9kNxaColT6ylruQWtuIYgfruB2LLX6rDLLF0Z1Nb6qoFYmnFOtNqtCDdcFXmtWrZaNGzcuuPMgYnBuTz75tLI/emx8ocyExm9lWZSm+CusWCaLFGJE3c1hSdcPYsOQNduoNTSQH8IY5S3O27JFa9JpaQsH6wUxVsadjJsRycZqCOadOFHXZLNpCtPiWnAd1iIXpaICHoIM5433GIsf4g992b17t2zatEm+53u+V9k89thjJpYNJVscT5pRKoViSVniB0H9Zu7beo4oB+IHZjUjZkzbLxWKaqlFxidE2diIcd8iu3Py2ISW00As28jQwEIZD1iaUcDWWuhskVpTesR8S/F9v10oFD5TLoW/166uf+DGG29s87OKBJ5PAhRkzydtjnXOE/j3T/x134GDR1+7a/fut61Zu/ZVI8vGwo985CPqShodG8amkKxYubK+ZeOG8aHBoQnHdZIFy9eCIDMYIWsgxp4ryCC3zMbqBYHMzNRk5+O7tnzpy/8+onFMrbbGDmkmI46R4l/87kjcgf0D1qisxlgWhI6Aa8QIoVyGzeSDlWzVqjWm1EYTda1MwDfEQX9fn4yNjeqmrAkEEGQw5jm+EZao3OUbC5otiGoLoVqBZ2OO8lazfFyYteagQK11Y1oxZ8WBdUdad58t0ArhobXBcB5ayR7WoLbGTFkhBuMjWlC1O03tfNDsoFI9wsJSFWQ49tTkrAlyh9st2/BVhGbJDMcmxnXDR2kJCBVYwZYtWyZDQwMqamen5lSc7MuyEnGesPbM1uaUY6uZBfpHJpHCCh0b5+f64XEV+iEgTTkIUwMOZSJ0XlotFTQIuIe7EuceaDskY7G0zK1osZyrlT5JUJcuEU0oQBwZbhDsWnYl6ki9ZorP2vIWeB6CB+7DsbHl8vDDD6tQf8tb3qLr5P7779e1VJ9vyMzcvITF8oIY9CCcMsvcokXUCD3UxcM9itti7rAWIb5wchgLY7TmG3Lo8AEdp1ouyXnnnafW3Apq8GXlXHAMtT42mwsdBfKCPgz8h8rl8t9X/OLfvf4nfn78nP/QIoDnjQAF2fOGmgOd6wQ+8Ym/7ju486n/ffToke/btm3bqvHxcc2g7EQtdVP5QZCuW79u/KKt5x2Oo7hZCL3UeJOMRcnsWosuPtRUVSHgJosWMi2CZSxpEGUogxEWSzI5OV26e/uOFU88+dTg1EwthGUI7293UBdLNHYH8TzY0FHTTMVO6mihUbWmCEomINOvqe4r22IHAgHWCmyGuAbsm3az06KkcSzDw0MyODgk5XJJQi+QNqr7J6JtcnSjzZIBrLVCLRa5IOws3mfBHWeD84EDok5jn7I+nVaQ4RjqktSWRSZT0Iqz42OLzOZs368u2VbL1MUqZEVNxSRC4HcwGJ84Zirrp6KuNzw+ODykYyEODK85cGCfvmf1mlWyYcMGWbt+XSZ8PBkfP6JZs7AeHTs6IRMTE1qBPwhN8VVYvyDGENsHYZUFomsCAeYfr8GPdVla8Wzdq+rCxdxl2bBI1tBVFLVVoKC8hArYxATYI44Nv2sZlNAws7Fo9roH+vpk5+OPy4Z164wwFE8tcShGa2vi4Xxw7kacm/ivYtFU4QeXFStWyBve8Aa9XogyPL//0LjUGy0Vq+A4P286B5j/z+faLvl6bGsxU6ucH6g7tr+/qm5zWNdwj3WF8Y4cOqDXtXb1KrWY9VUqC8kYmG+MY7sH5L8E4NoDz6+HheCO0dFlH1k96H6Mbsxz/dP7+bl+CrLnhzNHOYcJbN/+gWDmUHHZEw8/9qdhGLyuVK0Ubr/9dmnU6lIsBTIyNJQWS4V448aN45s3bjjgShprwDPid7IG24sV6hcFWT4A3drMNG6525IWwxrkIdPS60Sxv2vPvsEd9+8YPnL0WLkdxU692XDhvbICDCIQmXewlcGipdmQtl6XazIMbQzT/LwJJMcmDVG2mPEWqGVidnpGymXUNAvVQgGXH2pP9VX6ZWR0SNrt1kL8lo310gKlbWMRwoaa3yztRoqOA+oqzGLBVHCg/ESugbqto2Yft1Y0677UjTcI1Z1oXZl6rSjxUC5rOQhYrzzEPNVqCxmCyE4c6OtX4QIRihgv+4MNHi5IWJJWr16tx9WyFvWa7Nn7rOzbu1/vrRCAcMJ5IcZr83nnC2rNWeGIoPpyqWpaIXU6WdV/wwPvsYICRVkhrvPuOG3LFLWzmnDGYtWcr6ubdNnosL4Xxzw2Pq2iHaJMa35VTPkKlJbQ+K1SSY9RKZXl4UcfkdUrjYUM2ZgQQ05qYvG0OwCEtGPWhq1PB3FmCsR21MJ2zTXXyPXXX6/xZPfcd58EYUUmpkwsPa4J4kytqoWizgvOE8fW3p1RWy2aeB5jhJk7GNepFrlKJsxC48Itl4oae4fyGfqloa9fH8eXCxtHZoWnddXiPJBUgC8osFYXi8XZZWPL/mh4eOB9r7nx7TPn8McYL/15IEBB9jxA5hDnLoEH7vj4YL1ef+vXvnb3fz//wq2rUcritttuU6GzYuUyGayWorHR4amtF209XC1X5yHQ2q22RO22WpQQS3O8jSzrebiAFDWwnssXBRT0fXEqYaUojXpDCsWizM7MSn9fv0QSSxxF7uHDR6q79+zrf+rJ3eVDR8fL87Vm6Hi+A5cmMuwQg6YB64lpRJ46pgm2FWTYmHHTFj7oh9hsLlg4UJoBVhE17FkLFWKOEGSdQAwFWlQ08L2FWB/rpkLvQrVWIUMwF2CP/6urMRNObTTYzp7HONYlaf8PMWED022CgN18TRyZaXxtrV8qXDomYB6xTn4QqNhSF18QaEYixteSFWkq40dRMSHRBIcNGzapCIOgOXTwsFrBIEJQi2tqxtT/MudgCpeqoOx0xEOpCc+TCy68UJ588klpdRBbF2v2LM5Df+9gxrJYL8fT61fhlgXkQzya5ARj2bMcOp2WWsFKYUFbO8FaBrHVbjbVupUiBm6hgG2srbUg3o1L1JflY2MqpNG8HgH5iN+y8XfodYqirQMDpmelWrAywW7rlUEA4f9wUcJS+Pjjj8u2bRfJa17zGvnqV78mh44ck/lGS5ucQ/QHhZIeH50G8skdNkvW1D0zDe5VlDomIcDMj6fXpzX1SiU9f1T5h8WsWjKdKDotIxa1r2vRJGaoYM96qlprLGIZbZFZiMHB/v73j60Y+uPv/OFf2nXufprxyr/VBCjIvtWEefxzlsB9t958wSNPPPZLz+za9abVq9cO2P6TqPuFTXugvxJdsvX8g6gtljppHDcRcG82HFjHNNbYM2orsUHXcF7mEhMd1FzKBFnWFtLwzlyb2KggMHxUMcdfu+NKWAhlbnZOLQitxpxUK1VJEkcOj08P3nvfg8Nfvfv+ofl6w4cLTRvRiBFROC/EQmGztpYqBHsjI9DGZFm3oy2j0cq6AyD7DT+I5cFjrYZp1+NnJ4/N11q0VPhkNc9s9iNcrNZNZ61YJnjeuD1tYLbtr2mD+m2leFyDFWf23I0rE89A5DrqIsNmjvIMWl0+a32E8xoeHTEWpWPHTIugVlNGBgfkkm0XauNtzOfcbF0tPwhcHx83fUVR8R5sCqXyQqJCpdK34NpDjF9QKGoPx76BfiN0BfFdnmZPavkKzIGWE8lKOaBuWCYgkDCB10rW29FaNNGGSRuZi2hQP+YMWbBwPUJgTYwfMzzEZDSaoH5j/bSZvDgshDOsSxDWYDM9Ma0CT+ci6sjI8JCsXbXaJABAXKIuHgSOa6ymph0Tsj/Nc2ABMfu6171OrYhf+eo9Mt9oKi90LihV+vQ9882WSSBAPjEssG0jvCEqrQBTiyBaeC30Ku1oUgiEFoSZCrRyWSv7I+7MFDv21dVqvyTYDF27Jozwi7SuHG6wwtnM0WXLln109YaVP/ddrFt2zn6mf6svnILsW02Yxz8nCdz28Q9e/9CDD/3fK1asfOXU1JSDumJaoNN3dINbs2pVe9vFF+9dsWx4ar5RTyrlsvbvS2LUgIok8EyMEvbJBaEFawb+Yq0gw965UOrCYM6/Ng/e9Vy1vMFiASuBF8LKEEm56Mv8XM1EqfkF//CRqb77dzy8/InHn+qbnJ5xW5klBzXLYCmAUEEQvdlkTT9D67KylipbWsJaG2w/RLi4YFFDvShsxnBxIutQm5nHyKxEFpwpuIrjhoGnWYOVaklKxYpaOHwH5TWwsUOgmaK3C25K15GCH2gLIpRlsCxMvS+jWq1ogMUI4XnFAoruoh5bXebna1pwdc/e3SoetmzZrJYdXA+yHbWQruursNy6datUB6py5Mghze6DCIP1s9Voar23cqmix8R16LxnghPCAC2GIEa17EWtLq6WDCnIJS+6VGt4wc1mBQleBwuWEUxGeMKShN6W6gIOId5jDa63sV3KPRO6UWYNQiYlzmN0aFhK5aK2NdLYQNdTsY21oNmzKs5QRdhkH8IChevvr/bpde/du9+Mgxi/OJJSsSAXbDlPLVJW9CImUo+D8/Q8vVZYWOH2xbEgVM8/f4v84A++WXbseFD2HTgkR44clfp8U1pwn2bWUdcx/T4hotRFGZjkEMvT1l2zLlwtveIZy6FmDXsmTgx9O6uVSpbp60oB2bVZKIBaLFXqGgGmf1qJWVPWEgwhB5xBIZhbtXbVTe945+/+8Tn5ocaL/pYToCD7liPmAOcSgYe+8umhu++99/sPHh3/tc2bN61/+qld7o7t9+o3dLh3RkeG481bNs6ev2XjQd91aloIa4nbUm5Iq8SOix1LEF9jAqALxYKJyUImmlq/mqroCj56TqJaO77txyjs6SRJ4kZxHBw4fHj4yPix/kajHQ4MDqQrVqzuIH5s97N7Ks88s9t/6pndgjgxLduQFVE14sa4FLXQRlY2QLMhs5ZH3eUTjHUEbrXjG0LDKtQ3OCAXnn+hijMcFxmdyGKM2i39XTMSXWzGcLkhaBtuqLJusNYdCXGGuDtwm56dEhUiWUkOvAbnj43VBJoXJYXY8IvSbBl3GmpxQdwuXz4irWZDwoIrxcBXFxtExLq1a+X888+Xgf4hff3TT++Sx59+Rh59/HGpNUybInWnOq7WeDPthdCMu6hWHVwLxMLo0IC8/tteK5dftk0+/I8fka8/+rieQ1gsyJVXXimwnn3uttu0swKsZ8ataUqIIIHCWMyMIMNzEPg2HsoKonyCg4qMBQuYWWgQXDZ2ypbMgNhE4Vi8F+eOXpL2mvCeSrEk27Ztk93P7FIrYTFL9MB8X3D+eTpHcLMrAzdzE2ciR2O+4kgFKGIi1Womqfz6//VOSeJIPv3pz0hQrMqjO5+QSDyZq89LISyKgzIsWYFh3ajUxZqqMEeZknqzofOJmD7Mu0k+MRY0CG4UMsYXCFwv4stgxbSZtViPmvWrVjf0H0V3CZEABX1Rgw38PSSE4EuPpsCIE7qpV/bvu+aqy3/mLT/xP3acS59rvNbnhwAF2fPDmaOcAwS++Mm/vXjH/Y/8gRcGr6tUKu7e/fvk4a8/pOn6y5eNyorRseZll110cMXy0fG409aCoiiKaQu7LtznWDnqelwM6V98ygg5bCpx22zo2EwhwuASRQxOMSuoCYtC4HlukkqpE0f+5NRMxRF3IHW98sDgoI/ioxBd2JRRXwoWmj179qkVpdVBXJiJu4FQM0kGZmyNYfIWK9Vbq4g9R2sxw72bEwHWooFjQXignRM2S4imLZs2GeEzMKDHf/rJp3QjVwsJirGmqbqhEKCtIjRzn8JqB8sZsutMULwp4ArxClcbLF94PTLzcD56TXBLpZ6KhYFqVUpFX8soHDq4T+Zr0xpEfskll8j6tetUfCImbNcze9Qatnv3HplH54MglBZKZrRNk3WIJo1t0gxAX+pNuFVDcdCQ3YlldKhPvueNr5frXnaN3Pmlr8jHP3WrHD02pckJiLF6ydXXyM3/+i9a1wxdABBfZsSdoWo7AUAkmAGNwLWi2CYEGItabrV0iTIrmCFyIVDByrzXJAeAqy2YqzFpjqNFXg/uP6DzoUJJYimGnmzavFGGB4c0iQAniKg0P+s5iezRZrupAswG62MsMP/lX/wFGezvkw996ENSKg/I3dsfkFbkiBeEUtNsy2DBOuZoc3PT6kpdqY6nSRd63a6jwf72mjXD1jGxhqhhhmu1HSispRLFZiG0NRbN96QjiGuMJUBZkyiWNlowuWgRj+4FSLOJxC144lY9OX/zunddu/rS37/hx3+8eQ58rPESn0cCFGTPI2wOdXYS2L59e9A88uT1d99936+vXLPm+nqjISj0ChfWYH9Vqn19yYUXbJm7dNtFhyvlcBobGT70kb0HFyVEg3qJsvsFSpoteSJBZl6FjRquOQTvo6l4IQzERw0xuCjbrTCJpDI3Vw8bjfliJ477+/uHCuW+iodaZMcmJ+TI4aPacHxiwjSf1s0SWXJtxP+YkgYI7td4HYgAtN/RYqmmurttHaSlOSC8srpeNh7MXotWPVvoAWn+D40RZcH9EGQYG+Op4BoY0HpdEEQImD92dFyefvppFVw4F9shACLLNuCGq9NYRIx7D6+xsWQ4Jp6DuMAxIEJsZX4ItrVrV8v40aPy9NNPqdHy2muvlpUrTdNrCLGHH35UHnnkETl6bDorCSIqGiBY/bAgBYgnjZ8ybtFOFGdB+AiQDyRGa6ukLWtWjsnb3vojcs1VV8rtt31Rbr3tDnlm914VZGDwE//1J+Uv/vqvZHampsIagkytYpoJudjZwAoyXUuZWuu2StpAeMsAc4KbzTK17kkIXYhhK5Qx3oJYcV2di3azoXFkiHWDhbDdaKqLHW7oVauXy9jIqJSLBSnD+ggXqFoMzezj+BBgmCskSWC+sGZv/P7vk6uuuFz+5E/+RLZedIl86B//WRy/KPVWJO0I6wvuxUATOyDIYMEzLFCPzZE063+qX0ayPqI2hg2Bd7oGfZM1CyFuy6PYshqaHID4yjAQjbmDdTlrqg5BlsItLLDMemrJCwq+hBVfRkf6P/ea66/7ie96888dPDs/0XhVvSJAQdYr8hz3rCDwzPbbBh56/PG3P/bI4z+5fOWKjfv2HfAeeOABjZdZtmwUrpLkiisuPXbJxRcdjNr1Fvr/4QY3YqTf+s3Nyq5clbEuPkukUqL8QAjXZEsFmOcHXn2u3t9ut/rq9flCnDpBf39foVAse8Vi2cPGNDVTk0NHDqu4eebZ3YLK/aZKusnmtAVHtdcl4scSswmaAHjHVIdvtxeyLCHQjBBYFGQ2EB8bsc2Ug4UMNxwHx1PRp+UMilJvmBgvU1DVlGjA89pQ2vc15m7DuvVqOYOQQlA9iqfCggc3KMYxMW2xbvamQGmi/zfZdOY9tkI+xkK5CrQOqlYratmZnZ5WwYD+i5s3b9b3HRkfl507d8q92++TgwcPmzZB4shMra6CFeNU+vpNLbXE/K4xcGgQnhirFVytEC0IgJeoJRvWrpR3/uovyYsuuUj+6i//Rh594hl54OuPSJLFwv3cL/yifPBDfydHDo+r+C2UTO0suC3t8VSIa1NwbaC1sE5svTVdT9oZwcSc2bIfNuHBzqd1I1veVpDhOmwAPo6hBVcb8yoYhwYG1YKKAqzobIBLRx0wBNGHhUCq5YpUSgUVQGgWbtaAo9Ys8EUsItiXqhV564++RTauXSPvec975GXXXS/vff8HJHECmZyuiev50opidT1ql4GsqGsUmWQFzGGUNbCHIIszPjaWDV94MDasabh+VOrHNdmkE+vWhSXVik8kP1h2JpnA0c4NaumFwAtEwoInK5aP7P2eN3zba77jTe948qz4EONFnDEEKMjOmKngibzQCOx+4I7BL3z533+z0Wr+tJu6xQcffNCZmppQawM2KFh2ztu8Yeaql7zoqXanGSMF33VM3JPA1ad9GDNBliZqNbAZk5YFAtSPu6GiqhVwqec3OzEcNqXZ6enRThT3FUtlv6+vzy0UQkccX6Zn5mRyZkYmJ6a1oOnuPQdk/8EDUq/NZxu16R2JTQkbmC2kCuuYdVmpNQuiK0XJBpM5B8GEDRkB4ZqVZlvuZHFmGmCdHdOIg+N7UVpLh3qcslgwbJyIB4LFyma2maBsNIw28VQ4R5SWWLdunbolkUEHgQBRCZEWBibrEnXOECivIgDCMk40mB7iCGK50axrhma7WZNGoy6rV62Siy6+WJYvX6lV81Ej68EHH5IDBw9p0VeIA4i6CMXcwkCTDDQpYXZ2UWCqW9cEg+VNrCQAACAASURBVCMwHdeGsSH4UDXedWJZMToov/Fr/0Oue+nV8nvv/gOZqbfk87ffISjfgeu78U1vlrvvu1eefmqXBu9DkOGYsFIaoWQ42LIP1lVpxa6dB42RykxU1qJkLWSYO40/y7IerVDJZ5/adkp4Ti2NHZNle/55W+SJJ54wcVboeVrwNcu0GKCURsPE7sFdWQrVaoi5Q3P0al9ZBXF9fl7nr1AuyU//1E/KaH+/vP/975dtl1wmf/9PN8uxqZqkHr6sQLibjg44L2Q74mavG9Yxs4ZMUV8b6I+1o5bYTmSsoKERYZYFElr07y/7coDHUR5DS23Aiok4Om0tZkWvp+5P5Rq3JXBT2XbRlr2veOV1r/neH/sVCrIX2of2GX6+FGRn+ATx9M48AunNN3uf8WfOv+eu+/+fgYHq92Mz2HH/g7rRo/7X8rFlMjo8LMOD/c2XvOSyXSND1TmUmXDcrDp+23x7D4NQGyjb/pSLIswIM5slaIVajAClNA07USeIO0kYt6LR1POq5XLJs/0DsamgiTjEw8xsTaYRFzYzpwVAD48flaPjk9qwulQytZqmJmd0Q9Pg7kKgLYJsELgN8M7HI1kLl1oaUriWWguV8HH+Vj9qgH8mCmxM1/G/m48ea5mztaFQ+sDEeJmCs7jZGmHakqm/XzdUW8NsYLBf1q9fKxs3bpajR8bV7YkSCs35lumFmNXrsvW38PzwiLHyjI0NS21uQq655ipZPrZC9u0/IDt3Pi5337tdLWKVap/GuE1Oz2orI7gPkYSA80Ophjbco7BsZdYte80w3EDA4TxxvpOTx6RSKkqx4Mlwf1l++ef/m3z3G14vv/s7vyexE8i/fOwT0kAfxzCUa176MrV2/vtX7pL5ZkP80LpWjQi2gswK1ry7Mu+ytKytRQgcrQCzNdDy84z3LohJFeCm16dliPWI37ddfJG2QkIMGdYaxCkC+keG0KkADcEjiTotaTYb0kYzekfUsrlm7Spdk612W9tHwU3+sz/9dhkbGJAPfOADcumLrpC/+dA/ysR0XZmXKv3ieihmm1mtxFhWNT4sF/9ls0NtbTSsEbWWtk2tMSQn2OtVS2PLWIKNaDZxkOrmjPBFoyWRBvg7WacLk4CgVl60oYraUnRErnvZ1fddcc2Lf+A7fvgde868Tyee0QuZAAXZC3n2eO7PO4GnnrqlcPcdj71u78FDv7Jp48Zrd+zYHux6+hndbJBqv2HdGv1WP9RXTV52zRW7Rkf7Jmpzs9I/0C+tVkfCQsk09EbgcLsjpRBxPfmgfVPS1bgwNcg6iOO4r9WMimkaFwphsVQoFoq+6/tJkjgT01O6ScHygBgwFNhsaBA+xFIiBw4dlrl6Q2Zm61Kbr0sndlTgQOtoTE/WWgibTlmLgSI5wFp2jPBRi5xjXHBadiHLdlNLhJjAas1+y2LI7OZuY5i6J8m6xqzQs6IBohL/VwuOY2KPIHJVaGgZEBOoDyEJoTM3N6ONzJcvXy7lMrIvi5qtiQzMRx9+REXd6PDIQt9DdAY4dOigWusQR7blvE1y/gWb1YL12COPyedv/4Ic2H9ExpavQD142b1nr8aIwWoCywv8X2CoweKhL436vPiusa7YEg84cbUoIiDcdWUY8W/jR1SYhIGjFrK3v+2t8iNvvlF+57ffLc1I5J8/+q/SyOpurVm3Xi5/8ZXysX/9N2m02lqjDPNlWxLlLWRmHhfnRQVxVsXfii1bMV8tPrlYswVLmmssbtrLKnN1WusR5h7xb/p4aoL/z9uyWYvX4nctJ+I6GoPVX63I0ECfunXRMxPOVHBFuybM1/LlY8oNz8Nq9uyzz8q7f/d3pDY5qYLs+le9Rv7f/+/PpB2lMjE9J4PDY3rdtvacHjFzU6rwdQOJU4g/I7Dya8padHGP7FDrstX3Z22ytNZfxk7XKQRZ0pYOLJuIbkRsY1ayQxlEHQmSWJYVivJfXnbtjq1XXfZ93/7mn3n2ef8A4oBnNQEKsrN6enlx32wC7/+Dm/536jo/nDjuuq9+9avu9OSEWhNgGUJ8zWC1IgN9Fdm0cUNt2wUbn0JovRbadExPRS2ugJIFsYhXCExsETbDrJArhEgqjtdpRYNRp90vSVqqlPsK5XLRj+PExSYIUaJ1s1pNFRawriBLEtYlNMNGVNH01KxMTs9Ibd5YzLC5wwGkvSvhCspijEwti8VehigyahP0tEYTxEZWEsAKL1yvlYy20rnd9CBGrcCyG2PewmaFQH5e7Oao2YmZVQ2xapoVGYYLbYysuxSP45ga+xTB2leSYljSjb5aqqo7s91sqasMFpaRkSE5fOSgDA4OqLVqcKhfrTYbN66XPfv2yC233CIPPfSo9FUHxPUDOXpkQmZna4LG3YWiiWNDkVbbNQBRYjhXCJTmvOnbCMGlrr/ICFY3CPW8YBGCaxeyO03ashZB/T/2I/JTb3urvPvd75YoDeXmf/mYzMzOLcSkfccb3yAf/sebNfsPIlCbjLdappCubzJNMSaOv+j6XezXmS9zkRcjeeFsRRfWpRVkVlTjOQ2Ez3pb6vzFiamft3qVJjngd1i5kHkLdytqhKFFFlyLsJQhlgxZvmhbBGFmEiwidVfCdQy35x//0R/K5OHD8ud//ucqyP7ygx9SQTbfilQIFwqm4DDOBS5RHAPZmmoBQ7vTBHX74MbNSrBkXxZsQola1DrGpanxZNl6tmtQ3clZHBrCB+Ai7qA/J0rDJKlmeDY7Lb2GpDkv5TSV9f1DcsXll05e8LIrrnv9j/z8zm/25wuPd24ToCA7t+efV38aBNI77vC/2jm87K6v3v3bperAD03NzIb33LfdxFKhZlUYysjQoPb7G6iUZfXK5bJy+cihVWP9BwIvjbFhIAsSAeFBqSI17deHwqSxm8QpYvGdKE6CuemZsaiT9BcKod/f1+eVymWn1Wo69ZoRXig3ADGCzVl7G2JDQZA9ioKiQ3jW9w8CbGqmrm61yclp04AchVTVjYbCoiYuB2E5aDBdqZSfG0+EDalgexSaGKxFMWVsePgdoghB2raBNM5nMQlgMU4Jj9kyGLZxtAqx3HHVveiZWCEr5uASs+UubHYlnpucMpZBBF7rucSRCrArXnSFjr950watPTU9PalxRKjPdujQAdmwcY28+CVX6nvv275dPvZv/6abv+ugVlskU1Mz0monUiyg0nugrkdYp8bGRtQKiuNAYMHSo9fkgFGscUY2w0+FTWAEgKpbJ5EO6qCFrqwcG5IfuvH75Od/7mflve99r3QiT/76g38ndQTJx2iXVJbvu/EH5KM3f1ytcVq1P0BgubHEWeukFm/NymBYt2y329FaNMEZr7HizVqU9B41trLkADu/Jt7KWEOtcC+GJjliZGjYJDwcPKQudTBDoL5paYQaZJi7WOvuoQAt5qVQDGRseERj7kxNOVcbjP/NX/+V7Lj3HvnkJz8tb/yu75b3vO9PZabWUFGGFkoQe+j3CtZoI6YZtFmmqLozm/NaTw5fYXBM/E3YebHWMOvKxPxYQYrrtZZYWF5xixpttYS2sySAEDXf4o4kaBWWJlJMU+lLU1lZqMgFW7d0rv6261/86h/7xYdO4+ODLyGB0yZAQXbaqPjCc5HAvn13lXbd/9Qbb7/zS7+2Zv2GS/cfOOQ8/OhOmTg2iUYzajVAwDYsAij82lcty8jAYLxh/cp9a5eNHJU0SrGBo5ClWyjBmhDC6xjFqV9vzvd1Wp2+YqEY9lX7gjAMUbBVLSFw1UF8HT50VH/XwqxZ82y4VCBkcN+BwFL3UCzNVketOLO1eZmeqWlZBljOIMBgCNMNHG13xLjTsHmiqziCmhGeZjLOClox35YtsNYYewBbVNRkFKJUQ79utDhX/Jiq76YUA4SAxhllweN2I8SGjvNUl9txQk99owuV93G+bmAsi7ZMBY4BFtMzM6a1VGoSEkZHRrSyPqwaQ4P9phBvtSx9/RU5fPiQINni2pdeLZs3b5RafU4+97nPyR1fulMSNxDHL8jk+KRMzsyqhQ1lLNptk6igRU014xNcIo2LMhYYFFCNlS1KUmhLnkwQq1XRD0yV+mZTBaGbJFKtFGT5yIB893d+u/zcO35G/vZv/1Y6kSN/+6EPy7EJiL22hMWSvPG7v1duueWzGrdmy4JAkNn4PSO8zIRi3hask1kQf1542Bgpyz6fBKCWsCirzu9miRsLbstFNzQajyNODvO1bHRMy188/cSTZk0iEQWWPM0qjaQQIAmgIL5nklc2bViv66NUMOUukEBx8OBBOe+88+Q3f+M35Ct33CGf//zn5Qfe9MPyvvf/qTTasczVm5rMgD6jsFRhXaHkhSaKoKyGFodFD9K2lqOwrnGMZ8W7FfQ22B8uVsyLFaN4HpmfsIppbNl8y5SPUQuxI6UAlkMkmcyLl0ZSdRwZEEeWh0XZcv7m5Mpve+UV3/a2X/n6ufiZyGv+1hGgIPvWseWRzwICn/nH9//CPdu3/8pFF1+yFsHeTz3ztIoMiAFsuIgtGh0eUneK1hyrlKQYBNG61SsPDPUXj6IqfqlQKMVxUpxvNQvtKCo74pSL5VJYrlTdABllHSPCUN/JWsJm5mb1MQgkzWjMai+ppQOCB9YhfLOH+yp19Jxm5upa4R7WFgg6CDK1rCCuKctWMy5B04IGVhBNKEsgoiA+4IYr68ZqYm2Ma8xaTkxrGlPLCkVT1eISJcrAVHp3pZXF9MASZzMj1QKTxS+pey9rGm5clYt9Be1mqRtstnbwPlsCQ3sbagmIjrKBZcz1ULW/KJdfdqmMjY1qbBPmoFwKtPo+6mWhNMTFl14s69at0QzTz3zmM3L33XdrPF8rdmRqFl0BUE8sEAcsMzGmFi+7iSex9A/0SX1u1vQahX1TLVaeilzUy8LrtZxHpwOVotY+iNtypaguy0o5lJGBirzmhperIPvkJz8pk1M1+cSnbpVndu02Ta8LRXnlq18r99//gIwfm1ALnU0WMPF7JhvT3hBTZrMGbbwfzgE36wq2LmMrxux8HG8RM+UhjDvaxGThBusujoMq/Lbi/aWXXiqPPfqomf8sZg4xXqj5BXGPMhgrli9TiyVagEGQwsUOEX5g7x6t9P/mN79Z3vSDPyh33H679v/8/jf9kPzRe94ns3PzWhgW/PAlA+Nr/Tg/MPFkmWsYrmQtZpsVnLWB+/bcbWYlYgt1vaJ/amZZtl8y9EtFYgRdpw0LrlmPsOqhzAYEeOR0JEwTGUxF+h1XlgWhbLpgc3rFa2+4/Nt++p0UZGfBZ/yZdAkUZGfSbPBczhgC27ffNvDAnXe94+j40V/cct6W0c/c+jl1s2BT0dYyGqi8XCuSo7o7NkMIAV9dgU6yfsPa2bHR0fp8o1YO/KBYKZb8UrXiwwqGzaNWh/VqXmqz6KE4r0IMokbFHuRTlh2ILEQbE4RaVWolSU1D8RR9/TqxNFodmZury/TsjNTm6toHEZsyXHEQWNYVqDFamRjTxyArOshGNCUqsFFhfGxUsC7BooHHrMUO1w5LiAa1Zw2dIRZgldCkBgittsluRAKDvVnXGY5lY8S02GdWwBWvs+62hfdk/7HiIW99stY51DArFavyX15+nZSKoVx2ySUyNXlMpqePyYb169RdibIUV131YhkaHVER9rnbPq812MZGl8vRySmp1dvaYNuKvdocrDFGhGixVM3yDDRmamzZqMzNoMxFeyHurxOlKsgQ42QFGYqgov8krglV+rU2Ftx4fipDfRV55cuvlV/8hXfInXfeKY8/sUt2PPiQ3HvfDjPPXigXbdsmU1Oz8syuXdJJFpmZeCojyCwv68o04smUa7CWIC18mkvAyAveBZdwZr1csIRm8XFm/ZljIVPRFlqFffXKF18uO+7bngk3Y1GCFWzVqhUar+cHxmIGK+Khg/v178au7eEBZMWul1e96lUaT/boI49oksArXvla+eznbxPwDIsokVFXhyoaouvfW9YeDLF8AWLTqn36BaaUlVaxAsy2e7KWWYg63PA3Zxud2zWFddnqGAsuLJH6RSV2JGl1NG4yilriFERKTiJDnUQqUSKjYSgXXHKhbH3ly698wzv+J9snnTGf2GfHiVCQnR3zyKv4JhLYfsenRu/40hd/y/GCHyuXy5XPfvazahHDBgCr0rLR0awvYkFbxtgYHbhr4OYYGhyQrVvPT4vlQAb6Bx3j6mqpSLGWsJnpucxqYCxNNu4KYswKGPQstCUesDlho8cNLYdgIYOLcr7ZlulZ0/KojsbWKPKaWXjgSoJoUdGkFhxssmoSy2LIEHeD0g3md7txqcumVNJ4HJwzzgFCy4o16waDkW3FsuUqJA4dOqTnjdchuB4uP7sBqiUmc2EtxDN1TCV1a6XJW22sWLCWDW3unJXCwETYEhmr1qyTTZs2qzCO2iZ4f3hwQKZnJlQAQSSh0Cuu485//4r828c/qX0Sly1fIbt2Pastm4KwJJ7d7GGRzPoh2nIHpvgpCr+mKjoQJF6fr5l4OASWo0ZV4qgVSIP6szgvWC2tC03dnVFbXOnI6FC/vOaV18mv/tIvyH333Sf//tV75djktNz62dtUyEaJI8OjozI8PCZff+ghPb5NdgAPWC+t4DICK4sBy0TaolAzDckXEzEWRX6e9eL/TfX7xYQAI/rU6uYkWggWrakC35eXvOQlsvPhR4xVeHBQG4/DdY/zx/nN1Wa1rMixY0clQRxWYlz7eO2m9Ru0RRTmBH9PqB2H519+/Svllls/L8dmZqRYqmh5D1wn4gAh6GzT8A4EpuNKqVLVLx1R5vq22ZN4DNdgXZW2D6gRs8aVnrfWah0zWOG05ZMnYccRJ4Z115PYiSSSplTcVAbrLQmbTRlGT8+XXC7nv+LqV3zHO2768jfxY4eHIgH9AsgbCZBARuDuOz913p1fvONnBweH3j4+MVl66KGHVEQdPXpU++GtXb3SuGGCQGsvGauEqQTueohzcWV0dFhLKmCTgPULG0GraaxY9TkUIm0tWDistcduspplic0ja9itsT9ZjBhclVbQwF0zPVeT2TnEU9XUAoHXQRyoWzDw1ZVnmoA7C65GFXtppBY2uKBQqsNWPrebs3FnGqsCzlVdZllrICMKbDB9Igj2xvPYXNX1E5sWQHBZ4hxttf6gWFCOGruDAqpisgftRmo3yrw1zY5lF6e64jKXJ+KY4DpDrFGlUpJtF22V/Qf2qPv4yOGDUgoDDd6HS/XLX/6yugXRjqdQrMiRwxPSaLelXKrqOaPel27g2bUgaxA3zepLjIjWrENUny8WNS4P/GCpRFar8vazgrDZho8sQJvIgM1dm1OnbRnsK6sge+d//2Wt5/WpT39OUseTT33mFrVe6jmWKrJ168XywIMPqoXMCiXMixVki0LWCMF8jJgVVVac5WPKbGJFtxC2nRaMiMuEi8RZQoErTmJr5wVy0UUXyfjhQyqEUYBXLb61moyPH5Gj40ey7FjfZL8WArWIwRqGObOtkCDuTTeLZbLr2b2y9aKL1W3bThwVYBBkmBP0wkQF/QrmAmUrsqQR1IRrNltSzrpB2CSXhTjLbJ2gRVh+bWEe7RozLtxUnMCXtqQSiC/Flitppy1ugESYlqRBLFUnkYHZeQnnG9JXKsmlV71Ytlx75Q++8Vd/52Z+cJLAN5MABdk3kyaP9YIm8OVbP3zpgw88/PuO57/6y3fd5c3N1hba7iBIebB/QNvBIKMSqfAoNmo3Xd/zpBN31L2FDbjSV14QOmop6pjMRN9FbFOqlixsSmFoLAH5gH0VadjRNUZssSAmLGMqILJyF8ZN2ZBGa7GqPjYyBMZDMOIHG7ha1YyDUl1P+piWuzD1lmCtQBwYznNyckrvEV9l3FbG6qOZnJmFQV16XqgipFGv6fXi/DWg2jGtj+D+wTXaEgRhyTSwRnkPXDc2Sbwe7lXcrMvMigdboR3nBrGJ87asV61aJZs2bZJVq1fI4PCwVopv1msy35gT33Okr1qSi7deoNf16U/fIv/28U+IH5bFcQM5eGhCYGgcW7FaY5mw2UOwag20NJH5+ZoUK2V1i2HcSrWqwkE7Coh5HYL5UWA0b2kCC2uR0gtCll6ETgywmsYSBp54TiTFwJWXv+wq+c1ff6fGTv3NB/9BXXRf/NKdKh7R8LxYrsqFF26Thx95RJodM3/W1WsFGUSTNntHrFpW3NSO3x0rtsA0E9p5MYaHjhdnZt2pWzowmYla+DWzBMPyCAbIsoTFEBymUIR4Zkbfh+4HEORoG4bs27XrVuvrNQ4tE24QXMiehOCCKxmFi1esWq1uw8mpOa2bBzHXbjZlbmZardE4ZqvdMEksaiXzVPhVCvjSYVyrtiyJFaLg0UAMYc56CLe/ucGCmEocdcQrhBL5aCPuS2nekRhfHLxUOtKSsOxJOWqrICu12lIqFmTrlZfIxqsuv+nN73rvb72gP/B48mccAQqyM25KeEK9IHDnp//+pXd++Su/s3b95us+f/sX3FazLQisV9HkBzI40K8iDC4x1BnTJDcEvcPtBbdOatx1iCdDjBE2d2z0CJZXCwcac6OOP6xL2PMSR1InkVhLV2RlJXLWMd1Esj6RsDpB6aClC6wzR8aPyuT4lDTRTkejnE3mpI07y98vuKwkxit0E9Lns/MHa+33GBa0LEYdhVgzVxgsR0g6MOkD2TZmM/liaDkT+K8uUHglNTPNHB/Zl7jHpotzgIUM/y8WjFC1BUtR70uzRrtcbrCMGItQopu9Zlm6nrq9rr76atm4EdmSszI2NiT12pysXr1SDhzcJyuWjckFW8/XzfpLX/qS/NOHPyLLxlbJkfFjUqs3pVjoE8cLZGoaQjLQsh+YJz1vtXx6WnNMrTOhKYrabLVUSOM1tg4YxKW6UuFkQGmELH7LWvy07txCOYaWxriFEG1JS152zZXyv971Lu3F+cfvea+Exar2y5yvN7RKfbnaL+s3bpKdjz+x4J60bksT2L8o4E3zBrMGbYahbY1kRVBecOF6cAxY+HQqc625jNvaJGNoTTdkDI+MaFJC6KMNVU06zZay3bdvn3iuo4IMHCC6MDcQYitXrpShoaHMQosm7HW10O7e86wJxM8Ksapw9z2ZrdW15dXWi7fJY48/qW5yW+cNZWVs3Tk8hr6VcIdb8YnOAPYGS6Y2Ms/clma+zBce6z5H/1QjWI0gQ6Y0LGQdfFmC1baRioPG6AXMK8qZtCVsNqR/bl6QHoBz3nTpRbL+xZf+xdve/Rdv78VnFcc8ewlQkJ29c8srOw0Cj2z/5LodO3a+rVKq/uzu3XuH7713uzs7O6cf7BACoedJ/wCaJxfUIoBMSogFbAjWAqLtflCJvVAwloDYZkVCaJi4HL1lxV81a7ITqwAw5StQOBaNu7PGyW5WV0ljy0yrGFSOn5mryeFDx2RickqzAvF+I75MQLLZUBeFk7oQM/eb1pOC4yxXad+WsIBVC4IMcTlTE5NqYdOK8CokRfysYj6uV6utV4oyX2+qO8+6y9QF6numkXZW0d8G4sPaAQ4qzmJZaE5uuCDex2zA+IGr1lrVTL9Mm/HpyMrlK9T9hbiwVctXSKc9L5WiJ5OTRzVGCeNddMk2PfcP/9M/a+mIcqWq3Qtq87DWoTaYp8VaYeUCH5OcYKxEKINgLZWWJfZulaO52KP8srJNwTF/6gKGQNN5MYJSxRzKZKDECMSfE8uLr7hEfus3f0PF7+//3h9Lqdwn996/XWqNphbvhejYuGWzPPPMMyaxQKPrTaV8iHCd18iIA7QpgnCCFQ9WJPwgLgtB8OoaztapESeLDbZt/S7EPeILhG1LBSGGWDwcR62efiDNVkPGjx6TYxPjmryBvw3cBvv7pFItyarly1QgQ4ShR6sRsR3tHKHlW5ot7Wowtmy5ns/ExNRCEoW1pkKcXnbZZbLz8cdVQOFYcIPbtln4YoQ1jrHn5oyYttnHNj4MvPG4FWCa9ZtZY3FO1qK5+CVFxAuNcE5SV5zYETdxxMMXCDeRQNpSdWKRqSnxa3WpopNFuSQrz9skL7rhlZ/90Zv+8NtP4yOGLyGB0yZAQXbaqPjCs43AfXd8bNu92+97z+p1G16959l9cscdd0oaGzE0PTGpxSgRA4MYJdQYgyCDcNEClfiAt9YiQUYZmhSbKuoa6+QYYYGbCo1oMajYpOgvliVotUxpBi2z4GTtibLgdVOHy/ROnJ6qyeTUrJa2SGKUfDBFOHEaC6IvmyQHG0xOkFmrWT5GSzewgqkVBgGBTdlaGSAMbNsa28JGN3jXbOx2g7clF/C72RCNxQY3m6mo1x+bZAVbGd4kMYgU/FBdTVrPCk3Gs/IeeL9aOtTKGKvguuaaa2TNqtXqQjt6+LCsXrlMhvpQCR6ipF9WrV6j9b8+9vFPyKdvuVV8FA9tww05r7FZKh5z16WxVmjzk5XlsGIsH4Nl65F1r31r0YOAVJeh1oBVO6U5XibaEY+mMXiYI4kldFN50aUXy7v+5zul027Le/74fVg98sDXH5b5dlMiGG8CT9auW6eJEo2sKwHqcSFjFoIM4halOexxwRxzAzGF+K4HHnhABVmr3VQ3qAeRHKfS1gQOlKYI1HLkOYnW0AtCV8ZGl8mKlculWukTxxVT6216Wg7uP6Dxk4jXgjsSQsm2P1qxYpnGVOLvQ7MbA6x3Vy1/u5/dK319AxqfF3WMmxOCGAVfMffayBuuxraJU4P4wrnDygkRhzWHx+eR2Wv+irKEA1eFninIG+nfmf2SgVfZxAorRjW+ryvGzs4l5g7fkRyUgoEFO84aiqMcTNqRMGrJIB6cmRS/2ZYC+r0O9MvK886TC66+6vGffvf7LjzbPhN5Pb0lQEHWW/4cvUcE7rrlw6+4/+tfvykoll5+z333uv+HvTcBk+y66jxP7JEZuS+VmbVkrVqqpFJJZS22JEuWaG0A6gAAIABJREFUN2TjRcjGTQNtTA/QuMdtaKBhBsy0G+PuZpqZbr4BGhDg9gIeCSNsWZYsyVJJtixLtvYqqVT7llWV+56xZ8TM75x7Il9lqxc+JFlLxPdVZWZEvPfuve++d//vf/7nfyZGJ6W1tU3ywTEd+wrCWTBiXV0dkmu1rENYJoTCCnBCSA0aqZE9uFxuZHg5kOG7HmZiBWAxZ5FQ0X29rotRqVI0QOaieQ9fSkytLKZmZmV2bkkKWqqH9YnC2ZgrGCCIsmPRTLLo7w48PIHAAZSGc4IjfLlUbbAXCpQCY2WgallBID/pr9dY9P2qtgy32aAJoz/uo1Ypm29XyFXQ/QK48IlyFkMX00i9TAOAomDsvK1blIVZv3atlMtFNeJNxOuytDAVPK/QKw3LV79+p3z+C19Sc1fAyFKhokJw1YB5ZmRohPYpWIz4NPTQoPfJEzBWh/1c84Y3hAMyZfkiBrzss6oh67oCMpJBAGTbLzxPfvt//3Udq9///f8kS4sFOXD4sBTKFalgZxJLyJrBAQWS2GxoODUYswIslW1Uhq8urS0ZK78VAPA73/lOufvuu5XZ4nOYQBPsGxMYq8VUG9bZ0S1d3W0yNLBG0inLWgTcT05Oy9jYWSvJVSg0MkXRgzFfCUcC/AhP8oCihrD1qoYiz4yeFeaPsZ5lybW2KdtKezm3hNvTWgbKDIx1jKsGyNgeXWC5UtTrgb4r2xXqT/q8AevzXTSMek5i5pPniSkK6kPWMmPCMZzR8wcMf1DShwL14mOsKDDOQ4NIQgX+VUkul6QnXpfy1KSkqUObSkhnX7/0b94sPdu2jH7qT7849EO6fTUP+zodgSYge52e2Ga3XnwE6vV6/K6/uuW9Tz3z9H9IZVPnPb332QSwBj8wXktLeVV75VqzCsRi9WUZHBxQpky1JzULQSbiaaksmz4KQKaACE1YcLA3cGI+UK6F0u9GABmABkC2tLSgonkNL3kGIzFQEa1HSahyGluLpYLUa3hVWWaj8Qa8DJSdI14OK5iCvIi5qwMJZ7TYGoYlGcTRhCL9FQ15OSuWbcFjzDIvHaQ12qK1KEMR6FDEmWZo2DSEawnBGlCz5AYWbjcyVU1XMPF00JhtyehC/eYrr1A/rPbWnIbUJifGpT3XKtVyXnVOhDG/duc35Atf/Cv1qJqZnhWqSS3lrT9q+EnYMTjOOoh1QPZi4V7egyFzKwsdb1i1YCdhANXGIVTgUUCm2a5aHQHgbSE0Pk8mY5JJimzbslF+8zd+TXo6u+Szn/2sTM3MyamRsxraKy3D2CSlq6db2z03M6sGpQAyHbNQZJucj0Q8Lq3ZlCUmxJJaAfzmmz4k3/3udzRsCZupIeJKUVLxlDKLZDUCcHm4IEM215pRRgswBQhTr7mgleJ4PT09ug1ZkoSeGWvmAuF8mCoAK8kR7BMAF4+ZF10mlVVNoYW5LUECENXW2aHfB9xxPqqlsgImtt26dau21fZr2rFMS4v+xI+PVyJh7CwMmQKugIAdbPm15lo+P2c+7zl3CswbhcV1Lzo/9ZJh/Os19YzLxpYlSw3TyUnJkD3c2iI9g4OSGxyUdG/P3P996x1dzftscwReyhFoArKXcjSb+3pVj8DT93993XMH9//BM3v3feDIkSPJUqUSMzAQ14WITENCQ9y0ib6gj+npQlPTi82nLgpaFDyRkGQio6yWLs4sk0H3ZYu1LeJRdmkl1d7sELCnYCEiK1AXk8DUECrkwb9QLCsTwGLNQo37PmCGlT0RN7G5MgROHYS/YRRWhyWjgKyxnfqZ2elyzzHaASBjTBx00MZGUe1aTesS0n7sC5yZcEDGvhy4uWdaOmWFsR1IkCzhi6Jr0qgZCFBiW7pjeqG4luDB8X337ktlx4XnKzM2PzcrPT1dsn7dkC7shNAoFP61r31NvvK3fyezs/OSSmdkCd1SsWwhLMCRlvYBuK4kP9hibWDaAZmP1crCbVpBCzNbWNbHUMc5vBcPyRL+mQJABTYZtQJh/nCus8m4bBpeK//bv/pVWb9hrXzm0/9GJqanZHRsSmYX81Ku1JXdy7V16HjMzsyoGawGW0OIVecW2kQYsnRSQUy8Hlerhh+98UfVEJewpVYJaG3TOpw9Xb0GvIOpr5oRz83IyRNHGvOFtnO+AVcwdACx9euGLWs2aWFRGDSAG/+0YPiysXD8rvpCanySrbqQV7aXMcMLz8KQWb3GOG+uL5RlY8gYS5I1Dh85qMXL2R9MGftgPjiQRwOoDy6EKyMA2a+3KNjyz93jbyVT1cKc7AcmXM1j61aLlAcuNKCZREzaUgkpT09KdX5O2tNW+qm1s0sSHTlJdXUv3XLHvW2v6htes3GvuRFoArLX3ClrNvjvOwLP3HNPbr4++5Z9e5/77eef33/t2MREfHx8UgEPN3JsFHjxVA7QAHQQBmrNZWTjhnVqZUE2lwEgbuCEgGxh0IqSMSvCbJluJq5Xp3xdSKyotmV2mZGnpu0HM9FcS9YsMNh/Dc8xqy8IK4ZhqPqY1fBfCpmIauwKJ2YAg5AR7ElD0xRN8ffal4Ehc3bH2hG0TmLhRxZiDV1Wza3fGQSzebCQmIcs6ScapajVgINAD93CEmn4qFJrADIFAw12z0JLhMkQ7hNe5MXY8j5hsaGhAblk58U6ppdcvEOmZybUZ4xkAsYN1mX37svl+z94Qj73uc/J+OQURrwyNTunzBiL+lKBMlcswG6MaoyW999rQvqcaoSWG873Fqp1yw8fOx9vF/U7Q+bADtZVWctQ1BpAxmxpySRleO2A/Oqv/JJccP42+def+i2ZmJ6RsfFpmc8XTayfaVVAxjhPjI1rf6mVqSFqPLNCaSTakorVQ0FvG++dO3fquI2cPKXgSDMmO9qUuZqZnVbD1rm5GQ0fwqxpqa9sWvVe+Ipt2LBBWTFsP2C0uEbGJydkYmLqHEYUYG01TMuSbW2VGvMcADk7q3YXzHPmjZfUgoXivOpDSKiCAAAqF8wDjvduvvlmefChB+T48eON+qjFkKXrSSuAJ/rJNl5dIspAO2D2643vWKkz03TyeTS8GV82VjsWs2sAFWClWhKk/tmESHV+XtK1qnQEO49qPCa1dFo6h9Yufe6Oe5qA7O97M25+/787Ak1A1pwgr+sR2P/IN3Y++eTTn5xbzL/jxKmRTY888khsbGJKWShu0rABA339yoItLi5oCDEer+ki2NqakeH1axUQUNNQi3Jzw66wKAQzTq39Z4DMakFmVVtF+JIFiAWN46ChUlF7CJfAyrFYAPa0zh/6ofKyGpYW8iVZWCzK3OKivqdmsTjCYxjrNSEVuhFeWclqdJ1TNHTpTJfr1sjM9Jd+FkrxwLqxMNEmK2Ru7IaCUeo5hrYTkoSVAhyQXODZbw5a+NxZKQtpUoKmKuWKAVO3jWAMPSGhBigLHmd0ljZsCtmUF2zbJkNr+2UGHU8mIV2d7XLk6EFZNzggV7z5LfL4489qUWrCblgnkKkIM6YeaGk8qoJbfRCFE+ZzpsvCuSvF0B2kObh0AB0dT96LjrMndqxU3wxgV7NeWdxrluCBlqpW1RDj+sF++eVf+qRctON8+e3f/i0FPDBk+RI+ZGgTU9LZ2a3s2vjomDJdZEMyz7QsVdXCfJTtSsqyZgAz73iPc7NmoF9qGMxmMsoyjY6ekbGxCbWtoO1oyNpyHVp4HfCELoxSUrBXaL4IRxLyJESOfYtliSY1C9XHjlCugm+BgRSplivS29+n4UbmhINBvPrYxkERTJn2IW8WFfwNQOLY1Le87bbb1BiWfeuDQdz0lw6Eyci10lxWokv7o8yqAasoQ+Zz3lnP1eyZnv+ShUIZc9UAAtZh3qhxuVyVNCWvMFaG6ctmpEhySFtOhjZtXPzzW7/W/rq+eTY794qPQBOQveJD3jzgKzUC9/3NLR98/vnnf2e5Hr+YoOIzzzyjdQOVGavVdRFoy7Zoij/6lXx+SYoFWLOKLqLpdEKzyNrbc1qqSG/4dcKFsB8hC1H1W8GLKxbThZH9obVy/Za6ki+ggyk2NGYmdLbwiD6xS1IZstmFBZmZXpB8AXYNQ1a1IDOGqm4C5mWxhccAlQHLFwtLOnBwtkDZg6BN4zNlcBAjxWqSSlrhbtrvRqgeftV9L1MXM2thxMFBZVdgWyoVS1DwNngIEBxiLJuFeN3oFqYDgAZQA+xRukn93AKbl0qmlR25dNcuueqqK2VooF8KhSUV8AMsKNCda8vKrosvkgOHj8hf/MVfyeEjx1WrtVjI67gpaArGrA7IYnGrv8lQ+sLtxrnuUaWh6JBBusKUGYCNaszOAWheOL2+UpbH9IRWxB1RP6FhBP0OyNau6ZVP/otPyCU7t8u/+Tf/Ws6OjcrI6TEpLdelVMbSoi4dHV0a6pvF4qRaVkAGeGxpNSNU5i7j19vZoWwhjCIPF8R+AUXYU4yMjOjYcd4BL2yDhQsPH4Awfvb29Ov+pqdnLZuybLVMlbGME1bPGvMbjH3RbjFeWkSdUGw8qfMdEMVr27ZtCo59vOZn5xpZlDBwtKtYzEs6kdY2cS2akewaef/73y9//Md/rPPDWSyyb13LaMCLeWNAk37xu88/Y7pWNIx+nqJ6R59n/l5VbUks/F7GYoZC8dmUxNG3FQuSTcYkhcHs0qL60i3H4tKzZo0Mb9tW+KO//KvWV+pe1jzOG2MEmoDsjXGe3zC93LdvT9vCsZHLj5488a9GR8ffjVKqWqvFEErfe++9cuzEKb2J59ot2jA/NaMAwBcF9DgwXXOz05LLZaW7s11LIWUzBlgS8YyG1colszOoi4XdXHOEYzsLGAwB//x9tgWYodGCgdI6fGoKa8WiATZk281oGaQl9XHSMFsio0BMAY+qkjQPsxFSBNi5JYAtKmaayb/oAgXDFtU/8bka11bcKNOtM84N0bFA0Z9iKa/93bhxgy6k4+Ojeoxi0bQ8nszg/aXmoIWisKWoSjJlrAasEeOvejwFMQjjV4TWuZZWede73iWbhzcqeMikEJDPSFdnm0xMjklvX5fs2rVTKsWC/Mktfynf+e7jUpOEhkYBE6bHM8CsC7JYaJSX1loMGaIeygJA+uLPe3pOQ91DtrHwdEidCCyhgzYN5XoyRc3G0fsPADRgGGpRxkTKpbxkUjHZtnlYfvEXfl7etPtS+ff//t/K8ZMn5OzopGrIKtUEhm7KjsGSjY+e1cSNBBgvjh4rJcObNpgRa2e7pFXvaGFwwA76K7WFiItlBcfjGoKkzTx04JwPi6ZzrrwsJ0+OaFixWDK9HS9CvegW0UwR2iRsCHhjG+qlcl4BUgB09ksiCi9lgkPCB9cQwL5UKOq15SH8lIJeY0pps1ZDyOU0cYMs2nu+eZ/um3YDMucWFxqMpN/EouFjF/lH9X3+vSg77OclOk8531SA4IXmkfBzJrBubZmsDA2ukeOHD2kmsz7A8OCRiEnfwKCs3zhc+dO/+GszZGu+miPwEo1AE5C9RAPZ3M0PdwT27bstXZ2QK0+NnPnA2OjExxcWl9pYIJypYWHZ89CDurhgLsqCA2tx9uyY5BesWHRfX590dXcoSLCiyMuSa0lpWAegwE3ZGAOzVNAwSY2QR8R6IujJWKz8X1S7hUYLgKBFwItFWYLVQWA9Oy+zM/OysFQ08b4yLAnNYiNMqWxTAGR1MsvQlGFGmzIPKNf2A4SiC1cjRBqc76OLlWpvqoRSV9zOAXhRHRULlgKSWE0X9k2bhnXBh0Uk7LgasDhTxjibbYaBtVg8aOeoOBDAIvsFFFaqxhKyAO+86GLZsmWTbN28WdmdLZs2qvUFmr6p6TE5/4Lz1Pfqq397u9x51z2yXE8ri+jFzykYbiyJAYSw3ioYYwHG+4v3XUiudcODxq6h/wqJEQY0TZvl/TIga4ygauBcj6dA2V4GiAFW9pOQNyFwWMbujlbp6+mUf/KT/0huuOF6+d3f/V11sNeQJRmdtZRVX5C4FtYukbmoxqWco7pWidi0ZYuxffG6VAsFmZqcUKE8Y+iu+YwR8w82c/369aoP48V3pmcmZXpqNgBVjI+tJisAirmtwDIRl4X5Jens6dZ9m/YrZYXt64SrF3Wbju5Os6EIIcb5WSt1xDXB5xgN832uLebN0sKcgjPP3kSbxvHe8Y536OfPPrNP540L8Uli8evHWV0/T64NdCY4+r6/50axLhewc2rXiOvJ+BtTZ170BYuby3dfKpfsuFi+9IX/YlpINICwnPGY9PX3y6ZNW6r/ed2WTOzTn1458T/cW2Dz6K+DEWgCstfBSXyjd+H7e24bnDg99rGx8bGPLi4sXVCpVOJIqHkBCGCNeAq/+55vqhEoT/4U+4b1ocA0obdFxLshw4zFBUuFtJqmIg7PSHdnZ8MNHmYBBkbDJYh8lR1ZyaxkYWBb9ufZZwikXVTMYgGQIVyH3QXhF5IMpiZnZE5DmwZQ0B/Z4m+mshVKLCkwW7balDFE86a/ggF0LU1Uq2ZZm4AUE7ODbnyxgpmKhjuVUQoiZ2d7TExudTAJRxEmO3z4sDJXgFpl6AIbxHhrIfPANPE3bKAyg/li0MxlG2ElDX1VLesS8DE8PCxvueoKq53Y3aPM2AXnnyf79z8nbe2tyuzs2HGh3Hrb/ytf+tKXJNvSJqUqzvs1PY4yXYGRIgvRQ7X0q4XSSzjbB/AH86cLstaEtDBXVDtG222cVrIqnXGMhsUSACOsFEIJIrJ0SWgIXig6BzVEquL7umQSIkOD/fLzP/tRectb3iK/89nflZEzZ03UT/WDOsXCTX+m9RwLeaGOqrM06WRC2js7dEyVZS2X9HO+C6A1p/1eWbt+nYIwnxP0xZ3/GQNCjVqLskwo3voOE0vo2stCpdMZLXnF38r2SkIKJWN4rXB8UsE0SQGMPeNL6JJjcVx+xyeNRANMX59++mmZGp/Qa5F5TZjyzJlR3ddNN90kt99+u0yMm36MY2toOySH2LXMg8+KCbIlzBir56yws5t+7tlXNCTtDyh+DajdBWArafcLLEYoZP62a6+R0TNnZd+zexWILcdE2TEa0NfbK5s2DFd/8v0f7r/hx35s9o1+/232/6UbgSYge+nGsrmnV3gE9uzZk5w7+fTH8kuLvzQ3O7exUCi0uwEotbMd+NAsMsF40n9m77MyuG7QzFhLpVCiZVHOjpzWEjvcyDWks2xFlSkTVK1W1P/KzTEBSLx04VAnfQtbRp/UWSdMxG7AjIXOn/RNPGwhLRgyGAE0Zix0LuqHNcNAk6w1tDqIpjE4tcXHABaP5vzkfbLowEYmnrayOsoIhcXWdG8AqxUQpiGdVdonrTce8S2rVcwoFobs4osvVtNQACwidQph44mmbFB4aWH1XE4XcLfMYOGEAWyEM0PGqlkhpKVUKcuWTZvlyisvlwvO2yrDw+s11EXbOM7o2Bnd5+WXXy4PPPCAfP7znzfPq0RGZheK6sJPv5X58BqYwXfMBeCEosCjzphEQ1W+SEetLVbCXSEbNcKaOROjobMA3ByQQV4quIutVErAzw6GD/DUmcvKhg0D8o9//MPy5jdfJZ/9t78n49MzMjE5o9mW1eWY2l7o/AI0AkBgmxSIwHDZPAPQ8KBAOLC9LadMGBmSgBwyJJk/jO/UpDFUtJn3tNZjtaLjm0ilJZtukcUlkjhqui8fi9nZObOBSRpz5hUWAC8a6hNRcD6/MCfz87MNkIUOTed10Ibx4LBl6yb9/MyZM2rfQRtg7wBhX/rSXyt7dv3118sXv/hFmZtdsAoEwW8MwLwCjhUPNf62eWp/+9yKAmtnM/28ukaQ7/sc56GHtlTEdGuEVNHrve/G98idd3w9POzEpYzOMYDBro5O2TAwtPz269/6zp/9+L988BW+7TUP9zoegSYgex2f3Ndj1+q33ZZ4YX1ux+mTZz92enTkYzMzMz1oP5Td0TjVyg1ab7yovEJB4Za2nLzwwguSaaFQsoUKM62WBTY9NSeUT4JpWLdugz7Ja8ixhaf/kgqy+RtQ5sxDYXFJ6sqwWFjLbvjGvDjb4myRP8E7U+ULB4CMNSeqi6EbFja0EBPlY4ossArS8NfCsb9k4ItQIMxGKtTRRJfGoq1O/7BVZk+BF5eH8nTfrHMY2YYMR8ZKF8IArhxcVopFBVcwVCz2J48fCyJrLcssVYxqyTgN9SB9YSQczDiwEPMPWwQYHYAw4JPPStWKhsE6OzvkTZdeJldc+SapVUuycdOwmnPCMmKBwD7f9ra3qbfWn/3pn+t7GzZukuMnTkpl2RIG/BxjBttgPwJo5jPAC2PZmslqQWlfpOmDgy83E43qyEyjZ/tcHRrTcxiAGoBMz39gIPX8xwy0c54Q3ucySalVSnLl5ZfIL3/iE6qb+uSv/JqcGZ2U6ZlZWShSQsusGThHzKXlallqlbKGqNGK4eXF+eBcdPf0aDiS3wFTjC3llmbn5xp6NrRazFvawE/6uJBfEoB2OtsqlWJFunp7QmatZVSSHIC2C3DlmYyplGU0+ri5oe/Cwrwybe68zwMEbYepg4lj/nP+2S/XFuDL9/vud79b/vZvbpWrr75apQCPPvqohu2N5bK2MEf8mMYwrzCfjBNZlw7Iokwn70XZML8+o+/pcaoW+q/b85ECsrVr+mXn9h3y4AP3awZpLR6TEtdJ3RhrHs7WdHbWd1980Vd/q6Xnw82w5etxpfnh9KkJyH4449486t9zBF54+OH2/NLYZWfHz1w2MT750UKhsFvrCMZFi0WzQChzEOPp2hgbveHWoy72NX3iP3bsiC1MS/NSCjUO47GUPPvsPuns6JX+/jVS0XAcbEBSw3WwG+h41CZjYEAXIRabmNo1mKWFhQqNhXE2zBf3lad4cxqH4VGtTNA8+XA4++I/1UIi+GCRMeiLogKzcknOnB3TwtmwTMaEBAf9mlkNpFItpndqKF0CQ4YXZgiu4QPWEKSHEKeDD+r3sSj3r+lVADs3M61jpwkBVK5JZBqALApc0D3xYjFmcWah4xyxYLPYa9XHWExyuTZ5y7XXyKU7d0pff5dMTYzL4FC/tLe1yokTx5Rpoeg0/QKMfe97j8nGjZvk5KnTGqZdgN0JLImOTWD4fEF2SwXMZGFIAYo+nro4M4EijImfJw3hadbeylyKgjLtq9dOrNfUoR8ABQPU0D8BClJJZfmWK2XpaMtKR65Ftp+/RW7+wPs0BPwHf3iLPH/wsJwdHVeAi5cXjChj093VIaX8kmQzacE+grkHC0aG5ODgkIVclX2cVdYSQIY1A3OTdrvbfS7XruPYkstpONw1Xy625/skBPAC7LEdGi/Gi/PnWY/GupGFjJ4NraHV03QmmP3SRhhm9c8LVSs6OtpUxD89PSktLTlllMkixcA2nYzLddddJ48++n1tA7o1YzFr1payeflxPjgWDJmfB3/AiALw1Vo/B9nGSq+En32bVLJFiuWCxGC66xVpy2bkuquvkaMHD8qRQ4cUtFbjIsVaVc8LoDCXykhXtkU2b1j33Dvece0HPvRP/+XRv+ftrPn15gi86Ag0AVlzYryqR+D5b39zaHpq/B+Njo++eWFhYVe5XDmvUqkkVD8T0twp0eKZb9UyQvMVF29S7AEEhVJBnfdZJBYLi7rY4LQPmOEJOZnIyv79B2VuGmFzWgYH1iqjkoiRZp8OZZHIiDTLia7OUIYmZLLBxZm43v22kmEBMQZmRXAcWC+y14oYgWL9z2IRaiIGx3ffhpCP/461gz/h45CuHlHZjBqhotfR0jclWKe0emUoaCsFbVvQ+tdcLxUAGSuchi0DYPNQTlLDRglJhbAryQ7sH2qNfqoYXmJSpP5f0OsxkQAfyhTFLXMSrytle4JNyNLCoi74AIa29k7ZvftNcuWVV8rawUFJJOtSyC9IZ2e7lIuL8vz+5+Syyy6Tiy/aKX/wh38kd379LtkwvFktGvDIWsDZPoQNfYxwi/MQnYNZGKSBvl45evSomtBqHwEVccK+9n0HYsbOGMA2UGcAOvqvccFoGR6yDCsKyLQNwavLQ9UZNV1tl66Odtm4blBaM0np6WhVt3780r776FNy+NiITE5PaVvI5CNOidUK1QgY7+H162TjhmHp6epSlgtB/szMrJw8PSLtHR1aokhD2OGhwBpuTJsL9XUua8mqtLJ69rCRksWlhYaBsZdTwraC9uvnZEoGY1XLqiQ70hI6mL+wRZUKDGSLlq9CK3bs2DENT6rdSwFgVtXjch3Nzy+oBADt19mzZzREffHFO+Rb33pAx49sWV7sUx+sgm+eg2gAmT/kWEWJFU2kA2vV7LmnWLj2otegM2kKqmsJiaMfS8SlWM7LQG+PXH/N1XL/3fdowkuZ5JlETArLNSnC+CXiko0npSudkcG+nonrb7jm137+1z/zhVf1TbTZuNfMCDQB2WvmVL1xGlqv12PP3ntv69zSmX8yOjr6C4uF/NZivtBBaArbAlgBDD5TuMvr03pgw1icA/DwJ3cHSnUXXcfrunjMLZr5JeyaGV4mZGE+L8/t26+L7I4LtutTPsCtp8ey0EgCYH8OWrLpjKwbGmjoeMhAq1ZK2iY0aIjvqTGYzqYkk7K2FrC9KBVluUIGYE3qwai0Hqwt6Asg0BeUFebKQZ1pk7R/sE7USQwO5CxQC3kTXKPFAbgA+Egg0JCos0GAMa25SF8MQDp74BYahPZYgMnkUyawLlq6yFkPgG48mdIMR83+JCS64jmr33cjUwBYi9qGVDVrFEoLVmbzpq1yxVVXaZ3EwYE+SafjMjZ6WoqlRZmdnlLHeSww7r33W/J//v7/JelUq6xdNyyHDx+XuXnL7MvDXFq19XPE+Z7lB8gYHBpQoftzzz23Em4NPmlUQPA+O4DTEHXQablBrs2xc3WCnAfXpBFiVRwUNFYwRfxD27Vp87CGCPFSy6LJWpiRqbExOXHihIxPLUoRB/vXBoY2AAAgAElEQVRUVrVfLblW6e7rlfXr18rGjcNaTB0QUMwX1N+L0kXMya6ubt1mqVRohAPR+nGuYSCX1Ny3Jl1dPfqAAnDB8DXXBluVbNSspFYooItrgu1gggGQtE1DzSGblLFxuxJqr2YylsVZKVrWqn9+ySWX6P60dmUyqUAH9o65SRID4Wb6wbU3NDQog2v6ZM2aPnnkkUd1zNGqrQDimNpRqF1JrRZKeMWUOePFPHc2XOtRBqazcc3w1EAN1dhKImQUqGnImdqVWkO2Ii1trbL7kp0KfO+4/auSy7ZoyFQSSSnWlzWTNxlPSDYek85MVvq6Ohave9vVv/PJf/37/+GNc3du9vTlHIEmIHs5R7e57//pEajXPx0/ufcdnQtzs8Onz5x5+9Tk5G8sLeYHNFyyXDW/LEI63HhROpPNFsKRDpBWdForwnXXc7GYGuNhC7ctsDU5euJ4qGeIeHlJTo+clamZacm1tGk9PxYxvMPQ2ZiWxbIarRBxTbPndOFd0yddPT2SJfOstiw12DIsMOpxKS+XNVcPDVgylpRipayMCj/RULkOyVkZMjdd10Q7WdgIhSmTE1ux2FCWI4FYPd7YhwmiE1IMdSnxuJrD16xY1BAfwMltMuy7mMta9qaZ2rYrwATs0gYAlIbvgl+ZA11A1mJ+SQX1Vj3gXKaCc+R6MgV7NawS5jVkReYmITFCVWRW4o9VKVPHsSCZdFwOH9yvWZw3f+gmOXDwoPzZn/25HD95Wvr7hmRick6zEksVYKAdk/GmeDaapZZMVoFznczathZtw7ZtW/R8Hz91UvKBndPMQhIcluMaegVIOfuoFhVBCA95YnouyyhkfwZoEMgnBatZQpWkSwBq1Cl/zRotxwVwoJ+MGf5gp06clDMjJ3VOVUqmr6JGZCpj2/Hdredt07AkoUfOw4ljx5VxAu8BatBasV/YUrItYaJSwRzVmB8T73POHMgApABJfj44dw56zGR1NmKIa+F0TQipmH5Ls47b2y3ztwKopu+WeMD2vO9Zn34MLGN8e/p14403yg033CCf+cxntC3sl1DmdddeK9/77iMytzB/Tlas2pKEhyttaxDUq3dfFcYtZQ9WczPhWnam065tKk/YdR4XAKTrQY1VM1kBv2dTZiWW6yA7tVve9a4fkb/5m78R9KGAStMBpvQhsFQu6n4SePPFRAb7uqff9563/8bP/dpn/vx/+kbX/GJzBP47I9AEZM3p8UMfgWf23H7x+MTEW+fm5y/LL+XfWywW13ltQzLCHAD5Iml3YFuMMWKNanuc6XGQFg01RQGbLV7LweR0TPUr3OgXCwX9HdE8C+nQuvXKSABqAF7OBnimJbX4cPFnYSIrE9F/W1traFdNb/rOMrBfFi7TNbVJEuapAQ4tjOTiYygsQj3R8Is++cPoxMyoUr8PIEBUn1hhznAUZ3xgF8BKRUKXhZIsFQvaL/U2q8FGWKYc+i7PyqTPjEOhxOJronsFPboYV3S/LjpHt1bw0jMhNOQ2G7CZbhOhAKaQV8aFfcBWXXfNtaqFwvwVhmRNX68sLs1JKlaTp595Qj7w/h9VYPDXX/6y3H//Hmnr6Jb1GzbL4UPHZHR8CnGWzC8s6VRAF6h2EwjVk2ZkW1suS2trVguR79q1S06MnJBTJ0e06Di6vXIJGxGE8jB3ZN2F4uFqH2Zzg30yHuWKzQWAl2nLKhJX/VuL5DIZ6e/tUf86gAfACvDCGKHpwiKE+QPQZ9tMMqP7Z2GHCWO+wIahJ+MYgBVCwwBpGKXDh49KfqmgtSZ5f3DtOt3P2OiEzjkXvcPEsS1gDKACAOcYsEicP68SwXsaKg/nkz55mNauj1ArNZjcMn/5PvOIPmm9xxD25vxgIUM/LXHC9IpaFLxmBccBlYyJ9+/+++8PodOEAssPvO998nd/e7tqIG2+WYiY47JvQJlqyNRxwh4mrD3G3HLe1B4DVK0PXNZ+xPp2rabUloPfMX0mbGp9wIbE+t7d2SUdXWZrc/6FO+TWW2+V2TlLVnCmT+c8bHJ4MGLsN64bPPyBd771p37qk5/6/g/9JtpswOtiBJqA7HVxGl+bnXjmga9dcPzU8V/IL+WvzueXLq1Wq1kHLwAyXShCuaAoA6MghlAET8IRQBbViWg4IuiAoiLgKCgjrGU+TctCmj9hFETEfB9PMFiN3v41uvAhHreQTTEszild/HjCLpfNEwqgxHcAAQj/AWgsFm5BYAuVZfh5kXF1Uw8aONXt6IJi3zEmy4xZuVBh9KKgVC0WwueNsKPqmsxuA6CCfQCUAAuWMhnBt8xAiIELb5NVDzAgpUBHSwAZ0OM9/9zHUMNIZStVRJhXM0pTBjg4b953fhJyM6PctHzgAx+Q87Zu1c8ZI8arq7NDzo6ekhf27pXtOy6UXTsvlm984xty/54HZHR0XMOjLa0dGlaemJqWxXxZS9mYRiqhIWBtV60uLa0ZtZmAgUHXdNnuS+WBPQ8q01QoU6YKOwkrgUUJKMX3QUeGN1sjy5LsRh0IC8k54wTQ27B2nXR2dciGdWuls72j4fc1vzCrrNXJkyfl1KlToe6pSCbdogt8b2+/ApRNmzbL5s2bFLydGT2rY2uFv+d0DjHetP3KK64SQMz84pI+KGzbdr6G/Xq6+/S7GG8AfLxoN+aqlnSBRuusMnUeWuX7vJT5CWFGDSdThH0pgFs89NLpBksGa8xc0vkUrDN8fw0LkXD70dBfyKb1eUvqg4dvOVeefMN3cebftmWT3HPPPQ2w5RmhPBAA5tgf7eHFw4z3DeClLFxgd5EI2Dm0+e//8Aykdqef36ReEwlpSWe0XWQPMwYcA73iN+6+J/jmFRrhUNNM2lKplSvSCc0W3bZp+Nlrr7v8Rz/0058ceW3egZutfrWNQBOQvdrOyOu4PVhWHG5rS07Upt505uzZj8/OzlxTrdbW1ev1tIMm1ygRotEbfDDujGa76RoZsvTIFIy+ooyTv+83YwcZ/h2ekq28DyCI8FxB5pcW9QkfQKYZgUt5ZT7w24LpAFzxIhNTwVEtmGoGNsvDih4O5MbtYUQTJhswUhCkTvJmqMk/B2TOQJi+i3z8wIgFgKk4SYFSkMeE0G2jjA/tShqAaBhnxi3JALG3MmAFs81wQOLjHgVkUGgAYw/zWghqRY9DX2E2nKHQcFXSQqicN3s/ZKBWl5U5JGMSP7NtW7YoS4HnGGDs9OlT8vgPHpOWdEo+9rM/I3d89Wty3333CBovtb5IJCWbaZOpmVlZXMor0AE8E3JV2wJyI4LthIrP4zEtsk3CwHnnnSd7HnhQXjh4QObnF6VQQgtm2bkWHjafLu0nKDfiayXLVcEuBU1dl4JHqhVskg3r1msIlvAVCRWujcLSAW+ubCj4DSsIEBsaXKehzC1btkl3b48szC3I2dFR1VPNzM9Ie2u7JJJx6ezokkIxr3MBAPOp3/pteeihh2TPQ99W8Nbd3atADPG7arjCOHtdSOYsQIYHB5vbyUaZI4CYZ1Y6SwYYo99WUN7mmbKCYVuNkgdGzIEa+3SbFs6xM4KeWUm7ePF3ImGMpScGuP6LfeDOv+/ZpxW4Opjjcw3NZlu1/94elx74taR1Xmlj2hg1QuL2gGEPFCYvqGt/PQRrYUrTyA32rzGmLF7XdrJ/rbNZrmrFAH2QCVm0hGg5LnIELVnVhURhSDasH3hi51U7b/jgB/+XhdfxbbvZtVdwBJqA7BUc7DfqoQ49elfH9Nzs5RPjEx+empr5cD6f14rGLsh1XYj+jBhf8rkVMDYj1RcLP0bBli+kUSDm4Iv3/mtg5iwaC3Iw8qwt6wI2M43h5bw8/8KBRviH9vT0GRDjps3CCOCB0bAMNCsr4+wW7JOzCV7Sxv3CnGVaWJhTHREcWHRBVN1YEgd4s93gFbCChtPUCR7jVBVBmxcT7dOFDRsGkh4CyFO2ImGgzzVG9JHyRipaD+EgD135eWhktmmmm7EMUdbRWRYLf4XMxKDRA3iyvbrna+mcHhXvX7ZrlxrAAg7Q7CCOiseW5fnnn5eZmSn5pz/zMWUmv/D5z+viiT8XbFMq22KFsONmgJsgizCVUE82ZYdiSSsfVKS+ZF16uroboUCE8vv3H5D9LxyQqakZZdcA4ICETIq13MbPNWT8ZCGHQenr6ZXe/h772dur55nPKfpNsXrE71QhYK4ADmkLizbhWNeEwYhh8wBwGxsdbxizwiIC2PKlohbbZvu+vjVaRN3H7aabbtZ9Hzx4WN8zDVRMdY3KtAbGx4X6aikSiym4sPNtoW3aznzldwNKVkgdLRjAx68PnwPuP6bXYAhvKnNXtVChV2DApy8qE4jOQ/bF9xgP2Cyfkz5GJADs2bNH++SgjfFw41jArevQEsmUng8ApF87mjQQmDMvt4QvIPPS2+zsrrOe6URK5yEgeW6OrOS8jhXF6JmvXluT/fK7asxiZpqrxdnbcgrIujq66309nd/+9c/8/tveqPf1Zr9f+hFoArKXfkybewwjcObxr7fuPXzq+qWlpRsXFhZ+olgsrolmrfE1q3doT+aqn4pbaIT39Ik3sD9RQOYDHAVb/63foyfDFycHbrYN4IWQnIXYkkFjQmklFsKxiUkNQQES1Ei2JafhCpgIZYhKlKExMKcaL9VlZXQR4ufSUl6BBd/LZLNawqc1lxMcq0BYyVQwkw3+VSxOziqxfw/XsKAQKnGAFqsFnVPw3YopK7Zir+GMjy9aADLaWS5XFXBaGCYu+bJp9JzNctAFQ4ls3pkQN0j1xdDH0s+Tn1f4M9uHhUQ9LMmC9qPve49s3bRZdVOwFIsLs5JKIpqvaFmd3bt3U5JGbrnlFjk9MiLjY5Myv7iggIHzsmH9RhW8A2BpP7qfShV9VbuG8BjTNWsGNUljcX5BF1QWW/7BRJEMMDM9ryWfSM7FfiGZrEo8UZOWdKu0deakI9cpXT3dMrhmQHr6ejVJoLUtJ6lkXAEfmZrYZ9AmDG4ZF841QAEGDKNWNGFougipcj5hgLQKhFDQu6rfV81VW7uOFfMs19oumayxpB25NjVP5doAOHzsYx+TL37xr8wkOJ9X8MLY8FkijY6qpsfwECLnDLDJvj0EqGWYAuulWkAKapfL0tHRqQ8XPk/YhvcBH64B9HOu12vBwrg+53loUI1XCJ07sGtoIbVAOyF6T0pIK7BCU0Z7n3jiCZ2P6MUsacEALWPiwBEw2dllBdEZE9dh2tzq1rY7g1YqFhpaOrJlsUfRLOGYnafB/gG9LgGn8/NWV1OTQIJ/n7LegRFEX5dOGivGWJNoQikoNUpua6uv6e3+y1/61L/7ueYNvzkCL9UINAHZSzWSzf00RuDI4/d1njx54j1nTp99T3V5+bqlpaVNWuomiIL52RCJx1Zc7f1GH33ijgIBv9k7oIoOeXTRiAI2Z8X8Jhv925g3q7eIaNjZD/Vsiqf0xssNnW1PnR5RgfbRI8fNnyyR0MxLmBZE8ywe3NydeXCmrKenT48BY4TwvrCUV98osiPRImWyZrzqYmnXannIyVkOGzu0PCZIBnxoacrAgGAzUY+k9/t4ePiIkA7tdmaD9sA0FShjFPERs7DPCkCDGYNx83Hzhdj/Rotj4MwW5lJgUxzIcXz68GMf/KDWocSd/syZEdm2ZStuAlIuLcm3H9yjbfvFX/xFufuub8odd9yh4054EVBFm9luw8aNemrRBLH/uQULzxmbE1MQ1pbr0JDizosukosu2i7f/OY3Zf/BAw0QNTuzqCHPpaWSivS7u3LS2ZWTgb4B6RvokzW9a6Sts0OZEeZEvbosTz37jOzf95yCJPpoYAOxeFY6unpkeHijFqzHxoH31C5lekpBoLI1y1Xp7uqR3jX9MjMDq2oWFAATaqlOTE1KNguLVFUd46bhjfodtS+Zm5OPf/zj8sjDD2tYlJqoAEzmprriiyig8muL8QGkwCp6KBLAAiDj5SWmALHMEc+OdOaT70TBlWdR+gOHX4O0QwEbVWMDgGFseDlT6+BGKxXkWhthYcDe+eefL/v27dM+8jlj4WwcPxeWFhVo9fX2N8KJAGHGVI+RNvaPLGbA3Nq1g6rbzLW16vuFpUUplQvKdNNObFd4ENDxnpiQiYlJ1WTCMKJBxDCXfjgQxXrGwR66RyxuyKhmPFrSaQDa8qZNaz/y0f/1N29v3vqbI/BSjUATkL1UI/kG38/jjz+eis8ePe/06ZGPT03P/EihUOqp1WpdpVIpwcKgITgtlG2Zh75g45PlVgp+s3e2zBaBcwfWmTD/+WJP8asB2YuFLR1Y8BStLFQi3mCJFKjFjKkjxMhPxOu0e35uUZ588klLACgUJNfRodmSvABRLMa2aK+UwFEtVzIRRMoWTjRQh41HXVLpFVDmLv8Oijxk49mWrqFxobVlWYasUyTeyjSuLIo+FmQgeqYd4EWz1UoVqWGZIRbW8hBllEks46fWMEk1sXSDRaNod9rGh30qM1Mxxs0ZOr7/lquvkh9557vU8JUFbcPwel3g5mYn5eTxI3LgwH65+eabdVH8w//njzT8eeDAIWVJWPhhnhCAI9YvVQ1IMabsS49NyLVuxd4JqalNQ65FF300at/+9rfl7nvvCcxJURLxjIbqAFBdHa0aToX19HAYxz1y5JgmARCSBDT4+eQYgAcW9/O2XSAbt2zR+asmvIWCgqPZ+VnTDaZsDuh8CCE3wpuEMxHcIzjPtXfovLKqCqmQAVmSjsCewcp95CMfkUQsJl/96lc165B9A8pU+6SZhpbQ4I77FiK068znOeeE7egL7QF4eKiQPplZ70pCCHOFcXQ5gdtgeH/ITnVA5g9IPm8ciPl3VRtJxYsQzgdcoyNEzM9xAbG0l3Fl7Pkelh6AxpMnTim4ZLzIbE4HRpAKG7wAzrDPyCMBZFu2btaf1P4EkNF+rSCQ61AQS/FyQsfmW8a1x3kiBGulpfhH9iwAjutIw+HoDJUVjKkRLtt0tndULrjw/KGbf+YT7Kz5ao7ASzICTUD2kgzjG3MniPSPb+rvPz1+Zvvp06d+enZm9icrlUrWF2xussmEgRVnXpxZ8b/druG/ZrBMD+VP5qsX+ejN3wGdhz59gXCAZ0zYuUDCvwMo0vaFkiwAMQeOHBNABnix31O66HOTn5ic1hv7M/v26mdoXFjkaBfMBaasvsgpcEjYfh1ocaNXzVHSQKo+9Qf7CWfMOF5bR7uGylxI7ZmeKuJeWJRsBnCRUhEyAmq+VygsWXWCsMiqlqtk2ZCmD7PjoV3CRQPHAB9PK5cd+TuAq8aYBpsOkixg5WAS9DxpkfGYMlq++LO4Xbj9fHnTm96koUrAUXcXZX3qWgpobPys3PvNr8vOi3fINVe/VW655S/kzNlR1UsR4kMnlWltlSuuuFy9ymCQevuwlchJV3uHZHOtGhokDNvd0aks5KmTp9XegO8CmqhhiVj+7/7u7zQsmkqmlQFD06UlsNraGyEuztsPfvCDUIZosREuBqh1tHepDgtgiAaJbYvFkhw4fEjbmS+SrWnlfjhHnEtCnZynmXm0WzEFfLjzO4BjvDBuPXrkmM4twAThcVgx5oUzRhwLB3yAZX4hr/OLNmhYk4LYoVRXQ/MXDGtdN2WF6kvaNo7pnmQGlEwPRjs9ozEK4jyMyPl3Yb4fT0ORCpLMVsJDpoA5B2AO8vw6ZmywIcEm5L777pNsa1sjfO5aNsK+1Hjdu3evMmIK5MKcZY7rvUP9+dBsBqmAHh/dZVzZyksuvsgyQ+PWvvmZeT2vAHbmaDppHnDow2g3Y8P1S/v8fqEPNjGAfkoBGak/yYRVUejq6Nj/K7/zH3e8Me/8zV6/XCPQBGQv18i+jvcLENs7kN4xPjFxw6lTp6+ulEs3lkqlzmjYo9H9uvmERdkXZ6xgZqKhxigzowt+CIX4vlaHJf1JvLG/RhaiF9I2XZq/fP++HwNpxuYARJRdihmrwcu0XGbMqt8JNSV1+8CAcbM/fOyohsQWFs05nHEg5MZC51ozsg4NkDEWpPR3qAXEeVu3NOo7unbMBd0sFBiE8hP2wzVADo4AhIjNJ8bHlX1jO9PgtAT7AfyaWLDQ+Fh/SAzQEGS1pj+XV2nFooCM40THTwclsCgwRoxDpZBXBmt23krseDiXz7Zs3SQ/93M/p4xWb1e3Zini2QXA7O/tkwf23CuH9j8nn/rt35S777pHvvXAHpmZnlUnfkJNsJaXXLJLMzOHhzcoY9HdYzYZfd09Gqrq6O4xDVE2B9qUuYlpZVmwn8Dpv6e3W5MFRkZOarYi44P1xPjUpFB+6uihoyrOJ5Q4NTWhoUhP0kDXRfiTBR6BfkuLZf5NzkwrEJmYMu0VSQMOtgFdlORyUEPpIFvgTYs0OTWjC7+BooRkMy0NUKQ2D8vmszU+elbPlxfuvuKKK+R73/ueVEtV7Z+zgwBWy6Y1Js6tIXwuMWec+YvekpyltczDsjJDrufkew66aKeFaM3fy+eeAy0mEJ9xbLax68asKvz69fsCfzOOuy7dKS+88IKyzGRTuh0M/adfAKcjx45qXxrXYtWYWmf+Spr9axUnmF+e8FKr16S9vU0uPP8C2bx5o46zZqWWV2p40o6EYAdTk/6BNaH+LA82nqBgDyw8OChwi4kxwVRaSFtyzAXnbfmXP/nPf/M/vY5v882u/RBGoAnIfgiD/lo+5OP33TZ8/OSpX52bmXlzvV6/KF8o5qLMFH1zFsx/N8bMAEF0kW8IaAPwim7nN3429CfW1Sya78uBlodufPFQhi4YTfq+HYw5iDOX+RVGKMqmebtdE+OLnIdgecJWoX/GQBNeZe5BhUYFQNbZZdl1gBD2Q8kZABKMGT/bWs0WQXUzCwsKaFhAVRPFYhgYNO+jh1XcroD+LczNKyDDkdyBAPuijqLaVqgbv2V/UqOSkk2VUlVDal6U3M9hPTjsu62IL4iNcxNqVPpx4jWrach2rguESaJdP/7jP672Apdeeolmkba0ZrWGZL6wKAcOHJDDhw/KxReeLwOD/XLnN+5WEPvdhx/RLEi114hZ4WlYqY7OdmUU23K42neq8J1xQ+PW2dkt2YyxP2qEWyxouGrHRdsprimSTsr86Bm5++5vhLI9U/Lkk0/LyKnTUiybPo75OTDQryAJNo4Q5tat2xQAmAB8XoX0GipOp9R7jCoFhMM6u7v0e2j8/DwqoxusRxQABDsQmD8HUwC0s6fPKhhi/gDqt2zZHLRqZZ0PfIdxBZA9/PDD2l+2B1ArYxVc51247ufJfzIHHSxG2Wa/LvxBg+M4ILO+wLquZA1zjfg2tIftVLtXtexJZ5D92lMZQMyyHf1BhnbD9iHof+CBBzQ0uFw3VtWzGAFphw4daujk6K8+5IQHJgdk3gZC5NYvO4dUVoD1pXIGvmKAzcnJcQ1BaqLDMhmTiPS79fiWzMA9xh7E/B5jgFMkpRYfVQVkZJQSvuxszx3ZfembPvj2D3/sudfyvbzZ9lffCDQB2avvnLzqWrRnz55k6/JM58kjBz88OTX9ieVa7fx6rZbmBpdMmbjXQ4oePnQA4TqW1cauHtakmHKUGYsCJwVcEU+oKGO2mu2K/h0FEVGGZ3XoUgFc5PhRxs2P5dmdDiYdnAFunFlwpk91Q5TwqcOQLUk+X9BEAACQPu0nYroNrJl9nleGBHDFYhXV11nPRS0SPAPSF11n0EywDyDptFJSywbmAGa0lyzB0TNnNXRWKhTVMoInfvRwaK4oqux+TY2FPAAuN9514NpgRAJgU8AMOxEXBZuAD14sxPTxJ37iJ+Stb71GFufm5a3XXavJDCx82UxKnnnmKXnsscfUnX/d0KAuwIeOHJWDBw7J+NS0VKo1GRublYt2XKDmqFohAYuPZFIZCkoiAQQ8m7W1tU0BTVdnj/T09GpGH4AMhmT91s0i1bJMTVj9xL/8y7+UO++8U5kwwpfVWlwGB9dqePOCCy7QEChjQjhycmpKpqemNDuWGqSMJ+co29qi4+fCc/qLdozzoKAsCM4xZVVfsvl5ac1Z6SGOC8AzrVJOzoycaYjJp6entB/MDdgZC/2ZroyQJYANwKjar3jSdIDBvDZ63TAPXbPJnNdMwrAvziNz0R9CXCfmmZ8O2tBLsU9n0PjdAZrrGfVBhCoREe2Zgpr4CjPNd9lW9Za5nOrn6BvXhc1vC/MqOD17VhMXnGVlOzR3yryF9nj7/GGrsrwcCqDj7SfSmjFNHbVuMd7dufMSWaAsU6Uq1eWyAiraATvtMgZ/+Is+rPl9LBmKm8fqy9LZ3kYliPL/D9g/PbR98D/ecMPPFl91N+tmg17TI9AEZK/p0/fyNv7Es3d2nzo+e8GZs2feNjk1+QvL1epm7BAcEKiOqZA/R8DtAMgZMWetzn3yjEu9ZiFAFWZEGKoGMxa65uVNNJwYnmCjoRC9+Yb6jatBmjNo0ZDJueHImsRXMWg+olEgom2qmVYl2j5dBMlsjOjTtMh1IujVli30g9ksWph83mr4AcTUk2psTEolFumkFn1mQWehNkBghqteGcAtKNzfy3VaaGsQGXuGpxYEj9niicaqUixJR3eXzE5Nq4s+4zkzNyct6RY1pXW/qdX9hjn0Rd5DVlGg64za4vysnkdMWj0rjRDjddddqyzTQF+/hg2xkTh58riMnj0tY2NnZe/Tz8ill+2S+dkZtZLAXuQQ2rHFJZmdK6jL/oU7tsvQ4FrTNy1XtEA7hbaxhygXrGICYUsPCcKykAQAyOA7Gzaskze/+UrVFTHWhMnuuusuefaZvXpehoc3yY6LL5U4xaOLxYYRKdujS6MIPAAWew0AJUCMLNejx4/LhnXr5NTp07Jp0xYFWNS21DHPZjXJgPNB/wFkWtQ7125WF9lWDcm5LUVvT7fMz8waOAkifGViQpj87NiYbrd9+0WaYOAWEzBCfB8g4w9E/tCgjBzF5xDvG8EAACAASURBVEPyCPuKXice+mMeEt7meqbd7nHm16xtY0uEzwG/1hzwkWwQDWn6Q41dJwboPIxKW0m04HzDilGsntqmzHu3FPGEg3zRSinxcmYuei+hjzCVgF8tSVa0epo4+ml/yaxsaZHdl10uQ2sHpEQCREKkrZVs0xrkq+6fhwoHYn4NRBl5kgb0vsPDRDZdHRzou/XSCy/+lWtu/uj4y3v3be79jTgCTUD2Rjzr/4M+oxH7bnbpiuMnTvzM6OjETZlMZiAWi8U0OzI4t3Pz5waIfsZ9gLiZeojCGR4HNqsZLEJiypIFq4Zzb+Qr9SnxAYqGRJ2hcoZtdagkGvb0hckXLAdT54ThApjy468GdQ3mL7Q3+jSNYavWzVZtC+J4NHHGGPCe68ZYGDTbq2gFi9E0EbpiEapWWIgrMr+wELL54soIsYDTV9g0xhmQZ+FKC2FxLlRwncqaCDxjWWywKzAA1fqKSz7Mkb/P9oAPjkHfinkzBXWWowGoA0hevVh5UoKzdjAHmt0o5orOv5/+6Z9WIfTll18u7blWFcM/t/dZZbYe//5juiBftP1Cbe+hAwd1Qd277zkFY+VSVb3nKFmF5xi+dKpH8sxRdHAskMreWJkp/qboNvUeeaH9QjQO60V4k0xaAx+t6id39OhxueCC7TK3sCDzCwaOvawPfXnTFZfLyMgZHR8E5pwnjjE6MS4tWdN/kTRhc8MSNbAw4dwC3vhbw4rBY8yyKA0wxGOmMTS3/Yrk8KVrNasGWCOYPV6AFEJ7J0dGdO5ccsmlKnJnX4zn/LyFt/16cBDhDzd+Tl2H5WwXx1bgEjRhCOEVKKJ9C95l/l0DWlZM3Y/j7JuHOqmD6uyZg0VjnlaypzV8HmwnqJrw4IMPyvT0pBnv9q1p+PxZ9qMBMJgzv3e4LtMfQryvADJA30J+Sa8/kisKiwbUAe98D8B+7bXXSrVcVJsV5iNGwA40q2VCnnbN+svBLO8pAxiv63bJRHzkoosv/LmbPvrL9zSXjeYIvBwj0ARkL8eovob3+d37/2rjkf0Hf3lifPIdIrKjtaUt4UaidlM28TAvnn65EfoizmKhmVc8vUbMGnWRCAyTL/wNlovsRrUtcFBgg+eAy2/4PqRRgODgKRomjQ49n3t2YhTURZk2NzL1BcyPq970WEK470bd9CX+T4FJCIHEErxvIUa0T4RRoiwFOjCzwghP+0INyIqCsrFR0vBNiM6CqIajGKGmMiZa7+jQBcv1PS25Nj2OM2mVZWPDPDREuNIZEW27hiCt1I0uOsGeQs9ZvS4ZNDSxFZ1elB3gOD4+UQDsAFfHNy7aRgT4tGnnzp36965dO+Vd73qXivFPHj8uj33vEWnNZeXUiePKVF226xIFQgdfOCAzM7Ny5uxZmV/KK+DZsHFYNXZUEshkspZ9GmxJ4qGkFqWM0pm4LrIsroQCBweGpKvL7CvcWgXmij4hzqcaAN5mhJVPnz6jDCLMJCwvY824Ayjxl2POm7apQ8ceQEHoEgsGNG38hGHD+d/DilYP0jRpsGOALr8mFhaWzBG/HtN9YbNANIzi9MMb1jXsHtiWsN7psyOaTMD+YdTWD2/SkCvg3Y8H8KaNUfaK7X0ucL61vFIA8J4F6VmVJmK3sLUzbSqQ91qogWnTOR+3Kg0+/30+ZJIWImTORZNRbL6jLbOHB84JzvyMAUkUjBXhYexYnn32WVnMF3QfAGeO4UkBbs2Bcavfcxwc8pACy0bYluuOe0x+YUnHtiVjD4oA26uuukIqpYLE4jXp6+lUM+ZCccESEeLowla0Y5QWiwJQ5jf96OnqpFzapzddsvb3mqHK1/AC9ypvehOQvcpP0CvRPBixZwbilxw5evRXT4+cubZUKg3FYrG0hxVXWKeV8MUKqLEn5KiOzJ6Q7T1etvgbYIkyZtThU11KAGS2zxWRvYZMIiDIQdxqcLb6fT++LyCrWbNzQFskkzPabgdk3n4YPWcAHGyxSFXLJQNtrr2SAOLCosYipQCpjiM8TvsU3l6mBHKwGWgVwjNorSamzSNpenpGWaOFxUVpJXsQ/6Ncm0zPzqjYn4UIUfns/Jwuzhs3b5bnn39BWQkW1qitAX3Hmd7F4aqByhgb4oJldSILDuVRpkCB8aqEiyiTxu8t1B6C1cik5aqrrlKLCxbb+flZ1T2tGxzS2ozF/JI6on/r3nuUsVicn1NgBuP6xBNPWXZoW4dpuKhfmrAF3kGEht9KAKMWBWeIsjOphHR25tQMtFgoUWle8EMgH2C5XJF0Cxo7E5abLiumgIxwH3NbM1gzaRkcXKN9YC4eOX5CgfPAwJCeN0AV25Ury2p3QOIBIIDQMWOJxgnwhYYMKwoyNRlb+gNoc0sIQDFtoD+LC0sK8kiwwGR00+ZhPb+L+SUpF0uabMFxh4eHdb+AdWqEwpZWKlY43Bktf2BYrd10UAXAoQ3uZ0efPJswn1/SeUFb2lpaFVTj34aukictAHEOdlfLLlQ1gSCBAQT2KjEDbg583Q5GwXPQvRlztgKuAOgUjCd8DGgHLO17dq9MTk5reNiYTuxgzNeNAvGaacx7gfEyS5Egd8D7r1JWTeTSIn5mrbJcqWvyBdcJ+6F/hK3b2lv04SHXklYz5qXFeRP0L3N5WQkmxtLHTUFfvK5MWzqdrLW1tf/1eW8675+9//3/zIrZNl/NEXgZRqAJyF6GQX2t7LK+Z0/yQGt5w6FDB3/k+LHjny2VSj3GetkipgvXOVoiy0SKhvxggxxo+VNzFDBFP3Mg48CGm54zaquBQBSIRYHcajAGYHixl+/Ps7Gi7JbffH0xc4bB34/2madnXtGwpz+hK2Bxp/wAHKMh1eh++J2FzTxcV+w1tH2JpCTjCc2oVAC1VNQwGfYKp46flKnZGV0Acx3tGtIDmIFb8ShD12SAo6CATI8T2AmSC2BRCnkrJO4vZzVt4bRC1ryigNTDRB7aov8u2Id18XNHqJQQGuG1q6++Wh31PfOULMpTx0/IwuK8bNywXmbnplWUv/38C+SpJ5+QcqUqzz23XxbzRd3+pptuUkAKcPneY48qEEKX5gwV2io0czj1w6QxBq6zQ9g/tzCv7+ULRcmk0yrK15I3IQuW/ZHlp6RnYIbQ9/GCjQLwjI1OSEdnm4Y9nWnjXLANQnAAIbUmKfKt2aVhvAHBgAx+uu7Pim0bIOfF/gFY6KbYtzFZBqLLxaLk2ttlaM2QnB49q+O4fft2BTDMUyw3AGkajgteeByHCeXaNc2iVf2bGcI6U+ag1s8Zx1bwITEtmo62ivmnnoBa8QF0sqw/ASSEkEka4W+MjNUHolHM23y+OF70gYX9c/xce5u258ILz9d5Qn+Yr7CMhGiPHTthIf/qss5Vwst+zSKo97Z2tJm9B+NHqNpBX7lW12tgbmZewX09lpTZmXkplMv6EJhpycru3ZfKuvVrZWlxVvrQaWaSGqpPxlNCzQvKplmY1tgxgLKbK6cTyeX+vt7vDm9a+9Ef/alPnHit3Nub7XxtjkATkL02z9s/uNWHnryrf//eF358dGzqg/l8/oZisZjiphRllxxQGGCxWohREMLnHp6Lvu8Aypkr386Bj4MbP9aLAS7PrnwxcBfdv4vPo+AnCr6igM/ZnSjw8rZ5+6OhTd4DGEY/c+Cyum/RY3pboqxTlBmMHqMcwr++XxzdNVQK0xMc1c0BflZB2vwi9RNN0K0FrVNJNSXVMjoBHLN/FixnKcvL1YbDuy/Uvli7IWhjEQx6oaiQmn25x5kBdUtuYAFt78ipJQPaIBgd+gkIAvgcOXJIjh0+IvtfeF6mJyekva1V3vG261XofuTwIRkdHVNfrqWCAUaSAdwChO84C+uGobQJmw5nHXVRLlDY3Go8Eupzp/f+/gFlrmDAAJBqwxD0SYT+gCMAqKX8gnpjMd56vhs+cqbFQ9xPO7yGJMeA2aN/hJI9SxXWB3aPfXM8H1+rp2iMGIDEMx7ZzoEU7VgJQ1p9S6w36DegheMDyGBN+d2F8hoKDNYNrq/ybEr+9ocn1335tj53CRdm00kFZj7WK9exgXt/QPNzHmWwNWSdtHH1+e1AzFlpQB7jCCjCB47zaqa6RTUAZlwZn6GBwUZ2MCFFgCFFvLn+8J3DSJhKDVwLmqG8sCClakVmFha02kGliFQiobVKQZhUoZianZUsodLLdsmWTZukkJ+XnvZ2aSekTQgzFpNCvqxzxECzFRED8BGKTabi9Y629qc3blr3Lz7wM7/8SMw7/w+++zZ30ByBFx+BJiB7A86Mx77x+fOf3Lv3s9Xq8jvn5xa7kklzWfebaRTwOJviTImzYA42nCFbPYxRABIFZK5vamiawoarGTJvgx8nCtDOAVyhMHkU5EQ/j2ae+ftR8MiCEg25NhaSAMQwnPTtXiys575dUbD6Ym3xzy0BwP7ZgudJAAbAPMzqISgsIDyMYgusZc+xoMGckQzAws1Cx0JlAnJjw6ihqLUoceeP1BlUwBfaUKrYwt3Q5YQQpbePNjoj0yhVFN5DdH/xjgsVjLW05dQgFnDD9wgVagLD5JQ8v/85+d53H5arrrxcNm1YL48++qhMjI+ZI/7CorJgi4t51W9dvOsSBVWEiOkXBcFdIO9JJT5XaSPb9vb3mceaaoa6tS8I+hkTtGG0EzE/36Usk4UALQmCBZ7j8jvv8x2YKCwr2D/tYnwsDDvfAEP8biFVmz+FoENzzZiDZg8vbtliGjBj6GqWGVgqWUJEsG7gd+YjLBC/O+g2W4hco2ID4HJFgA/4tkQBZ8f8PAGmYJgaYXNl2lb+1muQhzBZKUrvGjh/qPCQK555UeDl1zvtdVCq8oPwsMBP/sa2BTaMUklf+cpXGkAeoMn551xqqacqfnYWXsVzrruTSgr9Mrx+vfqGEdLt7GqXsyOntSg4faICwuTUtEzNzsnk2KQmArS3dakebWExL0vFgmbQ4keHpQmArLO1VQFZtWJSg3oNkZhnisbVLgMdXS7bgu/YqY1r1/+zrvMuve+GG26wAWi+miPwMo5AE5C9jIP7atv1qUdua9l3fOxD+55//neqldowhIAvKJ49t/IkbFOD7DUHML6I+41ZwxSri02u6rTrMpx9c+bGmasXAznRG78DNZ6Uo2DJQRKA0N9f/Tn7cWARBWNRwOQ+Y1EA4sdURo0ITQjTRvfRYBkIekREwQ5Yo/vwIYmyeN5HFjrbfqWsko8V7+NfBRigfS7eZ9ts1rzLKH+E8VYjTFmtKpBhG36y8GNgChPBPxdesz9dSEPWH/uMgjb+dnEz3/VFnQUTsIJI/sILL1SGBYZnzdBgw92dv6tV81s7eviQjJw8IQcP7Nfsy0e+822ZnZuRY0eOatvISoRhGxkZkXQqI9NzZJVWgg6IMFlcerp7g16pGrzH2hoGrZAWHAtQBbs2NLRO/bpgq5hrHINx8uxfABugBOsP1XOh02ttbei+fK4z1jBgZLuyX/yxeAEyNawV6jxSExNwhBkt55ztOJb7yjGm7373uxVcULoJ0Ip9hRa0r9X0pyd0cBxKOgEkFczgN5ayklxcp7SH911jhSDfEhrMbsOzO9mvF5V3O4sVAGVZlbofHjpwUY1k1KolREQG4OCd0KrP2XMfbEzP5QCMnw7Q2JaQIVpCjIDR1AF4mRewjLTTkinmpZgvSDdMWCtZud2y48LtMji0RhZmsQxpka7OTunr69UQuPv/EW7GY+/R7z0mhw4dUauYZCIjhUpV5/z07LzE4gnZum2LJpkU8ovSlslIe1tOYsuWEZ7JtjbmPeF3SiWlUolaX0/PRF9v7831rg2PfeQjHwn86avtjt5sz+ttBJqA7PV2Rl+kP/X6p+PPPfymnU8+9eTPj4yc/mg6nW4nW8sXeG6ozsxEQxfceKnluBqsnRPeiIT0XmwoHVw40HM9jf+9GpBFgcxq1swBV3RhIKT0YuAnushEgZqzYd7f1f1efUxnjtBwRVk/bwOJCauZtyhgjYLFaDsc5GFYqSAu1NL08fCFF8CgIadgNspixHfw2+KnH989pLwtACe0P3qcAPZg1ZzBYdGEvSiULQuOFwuUs3G+aDsoAywADgAQgApAF8Bm8/DGRh1AZ0iYL4QrYabQij399JOSa83Km9/8Zrnr63fIwOAaeeappzVEtXb9OrWWAEAi7gZgFvK002puoq9DvERiApl0CLAtKzAn69evkzUDfZLryDVCpQoCAgCjT+jxfK7Rf9oOsGnNZhVUodviBaCDGYPBAhwyFgAjgDL79PPgoBUgodnHVatxyr4ZI68furi0oG0CBAO4YBGjWZEwdoA7Khd4uPf666+XL3/5y7ovsjI5BvvwqgwYp9JmDyHzszUYnHqfeU+zB1Opc7ItfVwcPDmjSILE6oeR6AMIYPfFHiR8jldrVv7Mr7foPUBBWiyuSRzUEgVs8SLblbHmXFB3FcNk2kOR9+uufauGvh995BGZnZ3WRAnYxZZsVnp6umUJu4+q6czYX0rP9bI8+uhj8uRTz0ilXJdEKisTU9OyHBNly5iHl1++WwFZZ1tOOtvaJFG3hwx0mzrnA/OcTCarHZ3tTw1vWP8vbvroJx57AywPzS6+ikagCcheRSfj5WrK3odu3/7oY49/4dTIyOUwK/7yBfjFQInrTlgYVzNjfvNVsBUEy77orb4hO2vg+4iGPrkR/vcYstU3+iiz5cCDRToaooy2zfcdZf343RclZfgCW+DAY/U5YGHjpdllgXGLjhfCeV+cfNvVIdPVIC/6PbcN8BqSfozVINKNYd17irbTj2LZFt8owPTzqmwYwmxE7UHr42Pix0mmMwoGtfB1wepv6n6D1QOgA3DH4kk/ACYI4L32IaEdwoMe2iIsR3jq2LEjAig5e3pEnnrqKXnPje/WepKHXjigtgMHX9ivCyHmr5jAYi+xdu16DX2WimX59kOPyBNPPa3Zk+oxVSxpYWgYKdrR2dEt6zetl87ONmnJZTXUxEKuGYNtbRoO49z295leCd8wNyjl97GzZ61PiYQmEjhQByh4ON0A1JIyOsxbB6SAUYCWjnlwqlevuBD2V/ZUajrujB/7Jgzptg7sz9iwDhlc06/tBXjwfTzaGEOYMsaHNvg1ZAkBVtmBfWq4O+g+/ZyrN10oFM45doBNW9m/JxzQR0JzqYRZokSZ5OgDl4cwo4Ar+mBUi4Q7/TqLArotmzbrWGF1AfAG7MJgGstXkGxLRhky5hSJHbsvvUy++rXb5cTRY7Jjx4UaAt923lbp6uhUgJpfnNdtAbmMQ3evsafYg9xxx9fl1MkxKeEDl22VyekZTRgZXDugLOziwpz0YyXT3qa1SGvLFS3JxDgmYgDdRKmvt/fuDcPrP/veA6NPxj79abu4m6/mCLxCI9AEZK/QQP+wDrP3oa9uePT7P7hlcnLqRwyA2D1mRa9kWg9u+q63Mv2SZYb5e6tBB7YBCshSBqpWs1f+Hj/dDd5Bg9/cVbsUrPrRYkVv+n686L6jgMx1HyGSco7OSxmniLYsCqA8pML+1aOsbtoj/ilwCpmlvqg469M4fyEjyxc6hMXe1hdjyjw0y/ejrwYTJjaOvugyDg5enV109ss91ZSlids2rvFTm4CINi0RQBrp/96XKDuoY0SWYs1YNgAWYEvLYQV9FUCBYwAKEMjzGf9YPHnx/TW9azQ86P5nmmiQSGhxbModEa4kRPdjN39QvvrV22V6YlIGhwYUhGzcuEEXXMJYGzZsVCAyt7Ao+/Y9L2Pjk3L69FkZGx0niKZ2FYsLeVwKLESXadVsyN7+bunp75E1vX0qmvcKB7SZfmMjAQAjdEk7z5wZVcE84MbDfIQj+S5gFGDjoUJnDgEysFOAJvrnCQKa4VmyjEb2xfawNoAwf6BZrhlg5m8HZfz0a6Ilk5Y1fX26PcfgvADWzPx1XtvOfjknjLcnKPh1aXPHkjw8jOqaP84Rx1aAGK4J5ojPB/2JB70WnzdNY3Se8p7fG1bP3cYDg9ZktW2j1yr9ox0U+f7Od76j7Wbf6Afdg4zKFZVyQXr7ujWs+fa3v12+cuttsnfvM7ot2q/e7h5luDh3APf52Vkd41OnTujxCJ8zRtyv7r7nPjl44JiMjk1IMt0i5VpVpmbmdFvsWGZmp2Rtf78CMkpv1WuEbmOatZvNtBa7uzt/b/3aof/ynn/8cYtPN1/NEXiFR6AJyF7hAX8lD3fokbsuu/Oeb/5BuVy5ulQqJ4yRsvAAomkv/tvSgpjYnpR9IQG48WQbfdr1tusiQJES9hc/90a8GpRwLBcZR4X8fvOPB8PVaMguyuL4jX/1DV9T9FloIuqO6Hf8d2fDHPBEQSZ9pp6jhwd10eJGHQTJq8Or2regufHQEcJhB2TOLEQXP+9LlCXjd/8uGrVoyNjHwb/jjJiDAGd5AJI2nqYp8izJxn6DxilaMYG28D0HVtXlmjJPiwVzsWfxhoUAELhBJ8DGPwPU8KL8jQPYStHqZ5JNyLbs4/TpU9KSycrE5Lg8+fgP9L33vf+98sQTT8jZkVNy/duuU11YX78VIYehOnrkmJwdH1NRO6FKgOLM9Kwa6PL56Oi4zM0uqFDbAE9S2jvbZWhoQNZvXK+AEaaO9igz1t+vIcFci+nD+B1QcOrUaf3Je/QNJg3ww9+AGsaS7QFDLpJ3WwfPXORzvg+oXFwyIbrrpox5MpCiTBohuXi8kTDA+/SHbXm/JZVssD1uK8L4A1Rh0rh2PJmAc8dY+/EMlBnj6/KDhqVFxCOM4/g2rm1raNRCmS+/th2QObhfzZ6vvn/hD8a4OdDzucwYA5SYB1QYYIwBnIBzLS9VrxtDlknKu959g9x443vlu9/9jnzzG3fJ0WNHFIQRyu3r6dV6pnjA6UNjAMwPPviA9vmii7Yr8wajeHpkTD73uS9ILZ6QfLEiyzWR6dk56RvoU0A2Nz0l69euk+72dmXHGLtEMlbJZDLf6+vr+9TAtq7vv/e9n1zxh3klb9bNYzVHgGzl5ii8Pkfg1COPtNzzvW98enxs4tfxE1NvR/6LGrTG/KkY1mEl03K1pkSBSABg0fClhs3kXA2VgxN+ctN1oMffUcDifztDRujPwZcvbu7WzTGxO4guFg3mqm6hOxYi9WWK1AR0Q0y2c9sG+sL+XfSMYauzCCusIbatxlQ52+DgzGeLh4jYxs0sfTGKMlL87mMWBWL+3WQwpVxhCA0QRhkLE98bo+dMpoNGNXgNthQKkBtGrsZ4qvA/AGsNSZaKCiYwh6UPC0t5GVy3tpGlCPuFjspqDZYbjAx9RIgN8GGBdMA7MzmjgM3HaW5mWkNQgKbxiTF5+skntITSB296v+6P97EzmJiYUksHHZtlaRi3as3H2rK0t3Uoq7VcF9V8YUZ65vSovsc+8F0rlPLKWuGsz+JNCJLPGa+WNAaiCfULAwBRi1J/FgqNEK+L47UGZmAF3QiWfbh20r3QtCQV5yKcHwBTMmVgjPnk4IXP0xnT2zmQXv2g4nMiEx4sOD7fZT/MZV7eVs06DYbJ5tVVaVwraLScyfKHDZ9n/tDjejGf+w32LgA6v1bPeeBapQsDKEdDsnxXH+wS5ktIGzgvgEnep41ox+6/71shk7SioWtYPsCZsn0tGRneMCT//Bd/Xk4cPynlSknuv/9+BXAXbd8hw8PrdS7CcA2uWRP0j2UF0bfccots27ZFLtpxoTKea4eGlUn9L5/7opwcGZXlWkzKNUL6FQ2D7951qc7LdUNrZaC3Vypl6pTGl7ItmTvau9o/+7FP/B/71ffC/jVfzRH4oYxAE5D9UIb95T/ovbf90aVPPbXv1lKpfL4tIHZMB1bO2GAKaZlVVpokCsb87+h20fe4ERcr5rDd2F8k49ABjQOtqH7MgRsMmYIovLJCaRbXokS9tNB6NMIkgWFSIFI2vRPHB3j4MQAIbh3ggCzK1Pm+E8kVbZgDSPYBU+YlX6Ksh7chaiXggI7vOYviYaLVzJi/74AmnUhrvwGkNvYrAJfvusmnFyx30OghU2VJAGKwZVqfcMUQ1ENuXnYJQ1kWdGRvWgg8nZK2zi4FaCykLJLur+XWCrA8DtAAO3wP9omwm2ZTloyNaoxVxbIr6ceJk8dlz/0PyIc+9GPKeEzPULuzJotL85qUcPDgQRkcXCvZllYtBt3W3t4w/3QhO4ss7Z9dmNeQJsCF88gxioWyWntgmAsoBESyOKtfV920c4QwAWLzs3M6TxWshdJKep5rNWWrPHvSBfGAIcZIHwYCexY995xzDREumzjcGVifK2jIXIfn2/mc9zkBxkKU7/tyIOUPHr5Pe9AwJszrXrJPZX+hgUIY1wGXz43o9eyAMBqytDvCuTKpRtsigMzC7saI+7XpbVxYWmyYtzrrxrgBLJkrTz3xpDJlFJY/depUYx98N5NOyE985GZlSj1Z4tixY5rY8OGbf0znF3OL89XZ3q7jTR3Yr3/968L3Lrtsl2zauEEB3rp1GySVbJFv3vMtefT7j0u+UJFlQvoSkzVDa2Trps3Ub5Ph9Rsk15KReqU8lmlp+dP5hYUv/+a/+8OT5LSEwdBqYS//Hbp5hOYI/Ncj0ARkr8NZsW/fbelvfeWR3xsfH/9lQju2IIRajAnTsxgAQ0/ixbFXdCDRIeF7HnaLMlwri5OJmf1flB2KPpn7+6sXCQAZ+o8Gi5S0RdJZAMoNsfC43sdF9F6eppQvNIol+2LqIUgNSQaAyD5Z+JTVC6aZvjhFNXQOCmmnMkxpA0wehvKxaLwXwpu+QPo+o/2M9n116JV6kucs1EEY7uMRDXk6cPMF2MNU7qSuNTMryw1LBQCqhu1yOQufFQtqnkqiBn9rZl5tuSFaB5gARDycx0LKdxTQzM8rqCKUxrlxwIIrOqyZZxcuzM1odiLaKBiPhx9+WK655hod9zNnRtQnDDE5hcBZaOdmF2VwYT2ncQAAIABJREFU7ZAyWBSq50UGIvOJxdgtIQbWDikgo8yRW1lQJLyvf0CBpFpZzAA4WfxPNvy9PEkBE1TTupkY30Oy9JEx4j36QUjNvcGYT62txrwqkA2ML8djbjCfnAHjbwexvr0BqOw514bpMyN1UYNuy7WG6bRJB/jbmSyfW85YOmjy70TnnAObaLjdgZQzZtEHJMbF59+L/XSQxf3DAazvRx+kqhU1h/bvEVJkbm3dulnF+0sL8zqe3//+93VedXV2BJa0S60oLt99ibS2pBvXJOf29ttvlxtvvNGyd1ta9LzQR/qPAe+tt94qu3fvlvXr18o73n6dnlcqKBw8cFi+df9Dct/9D0qhWFXj2Ey2RTZu3qTJC23tOdlx/rZKOpV+dHJy+gt/futXHjh5cowCpKQZ84/BsDjwaqT6Olwnml169Y1AE5C9+s7JP7hFj33r8713fu1bp6vVaias9wp6NOTVcNxHTwYbY0/azoytDq0Qqog+FUcZHgMdK36J/kTv4UTXjEWf/KPhOF0AaolGuEhDL2kLnbo9QyKUgtHyMpieBhG962rKBStf4+V8nG3wYzsI41hRcOb94P1oKNAXtIYWKwAkD2n5fvipmp/AjjiAii5qPqZRBjHaf11oQzF2X3zxFFPgFUJmLtTWMBg1/YL9RbW6LFVEyaFGIqDBzyMLHwCF0B8hGgAb2kGABOyFW2cAVjyJwMOO7vTOIghYIYTHPxZV/uYfx/EsQTIfXUNEm8vFvAKnhTkTXz/40B7NniMDEoE+fQD4sY/+AcJQVWWxeAHAAH+cm87Odt0PY8E22GHQJxZsQA4hdgVD9bgcP3lCF3sKm5MQ4P5jzpyyv0qprAs7gCyqtwPEOdAi5OnbMDact3K5pJ878Irq9Rx0e8ia73sIeSUsaPYy/s+ZJQdF6ZClzHZ8hp5TxzGEi6MsmRnRWgUGn79qbxIqNDhw8+vNr1uXDej1Fcxb/QHlvwXI/Cbk7DKALMqQcUytmlBe1nNj7JzVvmRukLBBxijAnDEmDJlIxqWtleoHZdV9/eRPfUSWSxjztupDgSdiMAcIRTMO8Oe8z4tr/s4779Q5yDhs336BnH/eZunt7ZFYLCmnTp6WvftekK/deaeUSzVJZltkuVaXbRdsU8Z7w/p108lY+k/+9p5v3XfkyImZCsJHEehHfjoo4yeADGDWDGH+g1ej5g7+PiPQBGR/n9F6jXz3nlv/5LqHHvr2Q/akHZzYU5mQ7bWSdWVszQoYi4KWlZCbMVT+meqUHOWpTsw0T/6eZyw68HD2aXWojv3pNst2o29oqkIZEwc4tXpdn6jjlAgKVgMcw+slUvSYfQMYnH1wCwYHM76oRUFnA1jVLQzjAG51+71t1LdbHa7hOMWSLdj+bzX48vGKficKyqLj4gspP3U1qNd1MaKvzv7xmZq8FkpaJxEneTJOATn88+LiylgsVzX7EBALcPKFvhFuI0uwaEDHwQX7h+HgHwsfQmzACb/zHqCGBZP979q1Sw4cOqjtpLSNsjJktk1NydiYeWY9/eRTyqzd+N73yMjIGWU4PGxIMgH6MRgOB0WwayzYgDP6gm6NkFRLJqPb4vp+4ACWGUlpDcCOzEnACi/Ghj6p7mhwUPbte07Pbb5A8ekVk2PGABCEXYaDkyhw8fFgTea77NfrT7o2jzYnYgbW3AfMWST+9v3Z/Du3BJfPJYCyeYZZ+13XZqC0U9vOfhYWrMg5vzugNHAWW2GTQyavz0EFNKHIvV9f/yNA5kkgfqvj++yHULOH5GmHJkosLWqx80xrSzDYbdHamJu3bNSsWwB1Z3ubaseKJWqt1jWLmWbiSXf9294qPR1t6jdWCw8mfp1oSD2U8dLrPx5XMP7EDx7XecG5hSHr7euU7u4umZyckZMnRtTq4pFHfyDTU/MyPT8nQ+vWK7hLxpOVlva2L/3Bf/78l1eBsCgoc2DGyeBJs8mUvUbWvNdLM5uA7PVyJiP9+Js/+w///oknn/gNCyNZ7btUpiWE7CyE6QDKHhJXygNFw4+2yxXdiIMrP5QCh7CQRMMgruOKhlKix3QQoro2lUCtmFPGQshSy+TA3IXyNrzvC4yL2FkIU6StB0G0gyfPKIuyS6t/d7YAoOLgMBp29T42BPPBFsTDNb5QLq+qVBAdPx8TB2C+zygg8wXSWQ8PR1WChQV9ckNXY9QMWFHDEoDQ3tnRCPfwXRariekp0yUlTHAeHTdnFj3c6SCA9wF/ZEoCvlgEGTN+chwPcdI+gA1hPgAgYVA+8+zUSsmc51nLOIejZ87qwvzTH/0ZFeeT5UiICzYKYMG26Ph00Y2hEZrR/qBbo7/4Vqn9BkXX83np7urVY2v5I/WfmhI83PjpYUUPQzIPFhdtMecsR5lg+sb1geEozCHb8GKs+YxxsMSGkjF0+byCAE9McCuLrg6zBjE2raxt8FAi7XfGdXVJogYDG+xlYJf8XPg2WlIouO4DWmgHbXOG0zImzdDX56U/aPix/SHFr78oM6xzL2jQVm4fKw9cvk9lpouWnevAlzYuFfJaQaCt03zZGN81vb3Kfo1PAJJLkozH5MEHH1QX/nK5qMfr6++RD37wg4J8c/26tQrQkmH8vC/0jQLrtPHIkSPab5JADh04qHMHwHbeef8fe28CZNl9nfedt7/Xr/d19hUzGOwAAQgECRAkQUKkTJmWSFNOKooSOVFUqXJSUqpcSkV2JbFdSdlKRZWoLMkUTUWKKRAEF3HBQuzAAJgBBpjBANOzbz3T+9799jX1O+ee15etAUOJNIkG36vq6u737vK//3vfPd/9zne+s1f6B7plaWlRxsen9HqnSOU733tCFuaXBI+9weFN2lorFo2++p0nX/i3kzPziwEjFmbGHJSF3wOUefqyrSl7H8bJ9+IhtQHZe/Gs/Jhj+tL/8c/efOedE3dw06T1kQKXgEHyaksHAB4IPJWyBs5M5B9+P5xu8SDE+mFWiL+dFQqn8cIBwT9X53UV9a95oIHRCAAERtZBtK2BIWEpVw8wNrYIlVIGOAN9mBtjKvsR8lfzJ3327dWXbKNat0rQRNS0cp4q9OPz1jN8UZwptPSMsQ+kGB1E+e8wYHVtkH8WBqYsB5j4G+/VKSgw+4Z8odQSfRvDZ2wgAILgP7+4oGJ+T4kRqGCZOCaaLgNcSAe5hxXgytkc5qgjndL98z7rAITUD2x5WUES7BYvAArsGA3OPb3Gdrbt2K4pKywFlEEJKuwwvAXwsAzpqo9//BMKvk6cPN2q/sx2dUq5nJf+Adrn5NRV38/BQN+gzuvk5LR+RqcE1r9y5aqOBZE+qdipKet1yfn3VK8C8qa1JaJPqzJ3QRockMXyfp2WCkF6t17R+fZ0Kn9bUYhdR7yYb/ah86b9JTuUEaQil+UdPLGsO9yHH2LC3wEYM71+otYiKcx6rbHTlgaEKXPvMo7Tr1HWJ3Vbr6+55TvzZmMwHZp/13mPz50xVlbSqnr05QxyGLhWyrWWPxufM0679mPWAzIS17S3pe9LsnXTJpMARPleReXi+XNqCtvb16MADRuSW2+7WVPYUUT227fJ9q2bFdB5f07Whw3za1xT642IvP7666rp5FpFQwbIzeUXOLVSLtd0LDj0f/OvvyvFQlmq9YZs27ELneHZU+cv/+XLh984sw6MrWfHHJA5U+aasjYg+zFjUnv1H20G2oDsR5unDbPU6SPfGXzqiedfHx09uSuT6QjYo7TE0dvoTdr0SQ621jMzHjTWnuDXpyjNkoGXBSrTpfjyzhA5C7Smb7FLTQMU3kdBdVo0kghE4paC4ybv2+cmDyiAHWN7icSaSN81YwTqUExpVfu5USb7DPtLEdCs+s5a6qCpY9s48ftxeGBnngjC6sIe6vfHsSrQukbVWRhcEag4ftcTMTce9Hz+K1VjsFwzFw6KBFqCfm9/nwYywGmlZO7izB+C6uWgt6KnXUnvYQuQSNFqpr8FbD3dRDBjTvmfOcxm0so2MDb2haidY2B+eN8BLNvXnpWBzsp1PVRqAtLQPrFeIZ83R/yyAQkAkOnSUnL//ffLk089pZYV9CAElJDy7uo2rzOCvwOmwf4hbbGTTndo2rS7u0fnbnZqWrdH8KXZNMcBMOczfd+LOCJ23knZM//JVEpBA+COsQNS9Xps2ZLYfHhq2NlNA1lJ6e3tV98sGGPGjIgcAX4Zli1lvma+bwAFy4ZTluGHFNt20GEiMFYNgyKW9QcMNd8dJk28qI7yzCO6TdoFMVYFm2KO+3x3wt9t/x75NRh+kAinZ3U8jaZqDmE6uc7QlnGd1cp1yRXyCjoTqaTUKlUpVcqSTqb1HLIPUs+dGXpQ9uv/+cKqjh9t2OFXD8n8/KzagPCiT+VHPvIROfLa63LDjdfLnh3btQVWb1e3nq9iya5NvqNcx+5nxthPvHNSopGI+uBxvQDwanW+xzy0RdR3bGpyTr72jW9IIokRbby5c+euq6cvjX/l9WOjZ+v1ehiAAb7851rvu8ifm2UbkG2YCLixB9oGZBv7/P2N0R968j/81sGDL/+bsbGx7mTCgnKxWLJeiQ3YHHPlJ5hzU27WApPSqGmWDKAZa6RprYqlQ7jh8XKNlT/FVxuU/K812AZEEBRYvBUcqVKMGSDkCZuxcPfMl0oqCubGjyYI3QnO3CqsjppYnKdftsMNmsDoaUn2r0FLqzTXUp4e+MIFBezXj43x+zb0ST9mzICbVYY1Oi6sZszuO+YMhbIPUQNzzZCuzvfPPgEBerxBlaayMvGYPv0r+1etKrtBMIcNcNsO5h2miqALgMJ1P7eyooKWAv5NBCMYQO2haKacrKupw0ajZYLq1hyMFXDEZw78WJZjJmhmOlLKimFLwDyzLODFW/QooAmqTbmeYOBwSHdjVVglM4etqh2BgzcHKeyfAHrHHXdok24c91ke9i5XWNXrBSauWCzr3Hi1pALLRKLlUaapyGWriPTzzzzDoDhr5ODXU96MifX8/HqFKOtls2YaCwvlaW5nC9mvNUmvqYGy+vfh28d3iC4JQPhoU+01wkCe686vNX57dbCzTv6F9e9PMm69YsMsFss4Q8t4KXBYXqY3pn1PINas44a57iuDDMscePl5OtWAmPXZ5PvoaWrftj4sNaPKJlIco1rDSlUrbwurORkcGdbfJTwAmyKJdEofXPx/viuwmzT/DmzSWg8XLhE4fPhwcD+w4gyqbPGMe/r7T+lx3XbzDVptOTTYrwws6UeOj3O6fcdWBc5oBxkXFinc00xGUFMbi2bDpA2RKBYkTbl09araYsSSKUlEpX7rHb/wyh/+6X94OCTaX5+eBGWHwZn/3QZk77PYuBEOpw3INsJZ+hHHePG559JnZkf/4vjxdz4/PT0d4eYV0FJ2E6vUNcibpsaewsM2RHgnhZ/edbmAYbAbv10uliqJi8RMrExA80o7l1QBPDQA1AzkeeCoBCX9+jQcpBV48vbUCpoTY3sMCGY6rOVKOmlVdapba9hnAKJG1Swpwsye/+1pSk85hYXNnkoqV0xs7Ns2XZzNEcHQDT8VZAa2B85GEcwQmbj7uXuGafosMA+FbfDUraZ7mg1ladwTTZoGfAlGvDwt5Ea33r/Qj8FTsYzHGBLTiTn7xnjdid6P17VNzrywL0AXAHhqekIBkAM6A2mdao+h+qx6XZkygiKgib95n2PgONFVsV3e47cymipij7VaCbEc4vwHH3xQ9UUvvvhiC9x3dffqsjBzvABs7B8WjX0B2mDNCNCaPi5XW1oqTZMFuiZnf5yRZR5bcxzMq123Vpxhc0YauqqAlG2Hl29dH0GPSgcxfyMtrSL1NR8+/6r6NeipVL8G1qe3HZCFU40Ozvw7A5glhezjX7tGRZlSvg8whvpgIpa+XHtIsZQ6X13mxlPt7EPBeYN0X1nPmzPJHDvXqlucsJ7rx5gnUsacI7779WpZUgmz6mA/XEf+XQKcj46esoKbQPNIiyTA/+HDr2sF5oHr9siWrcN6XdB1YeeO7a3r0h8EmNOrl8fkrrt+QQb6h3SsmF1XKzDX1jVBsOeJxeXc+Qvy+PefUlCXSCQLma6hv3jsqZfeDgAZujAAF2ArDMIAZQ7M/HfYBqPNkP2IMai92I83A21A9uPN33tq7eMvffPOCxcufnF6evoOWAhK/Ekn8DTPk3KlatWSFiSsojsRAzzYE7o/cfMk7k/wDqa4wbuXmQUg054Q0HgyZ3nVjgT6KtJPCmKCJ3hjIqxlE9t0sBCNmzcYgl9u5ARe66FoLF08cAJXdinE4rWCVoghW0uP2vgVcAbBOAyoLM0T+K9F1goaCACangyZYjqIcRDmWi0PsPX6GrvmgmRNnwVAAWd8myeb42TGnvABRAokGzaPqkcSaWm3nM1y5izM/HEs3hvQq0353K0a2L4HV/YB08PnbMvF6gAg9RyrFLWi0Rtmaxozm9VljaE0uwzWAxTwOeyYt/XxFBnz5ttg+U0jW5TtcqAIoCMwf+ELX5Bjx46pWJ/lz5w73wJ3BFq27/thvpz58hS0g71GoP1TliQA1GHg4GkvnzdnfJ1dc8DV2QGAtevOx8oynA8HuuEvuX0PftBA2a8Xu0YN9Pk17vtfY5/tluvrkGr0a4n3w8v59ljWm7z79ljHgaCfJ45xDfjZdcUDAdeDHxvz4iJ9ll3JW3GEs2eur3T7Dh4M+JtzB0BzsM+1zjrppDF2dAxwHZhXPL/wwgtWaRkwrswpaetvfetbMjVFEUZSPnTPXbJ75w6thIRtS6WS6jW3ecuIPPzww62Cks5Mp16nPARZp4aCrK4sSyzaUIauq7tfIomkHHz5FXnplVf1eAeGBhZfOHTyX66u5gFZYVsLWDJnyhyMhUGZf84N0+0v3lP3+vZg3p8z0AZk76PzeuSph//JxNTUv8mtFlLT0zNy7sIl07E0JUgZGnNh6RlAVFNSSSu59ydcnnqdjVEWKmAUPABQJGA376aU6WEX9FRkGlupm7qlJkl9IE7nxU1ddUupjjU2jAAiVkJfLFowJligg0IQrIEiak/4DogMIFpAUwYtmdHfnqIKB0ezEzBWwAXO7hnF+6RePDA7+0VQccaN/bstBNv1IGR2AwYWEI2vBw7apDvoiwhTqBWP8bgGedq4+PGsruZNJF01QEsgc8NSB7g6zlJJ5ybMtrA99x4D2DiD4lV4sEvsj99uX+FCfcAU29Um4RECmmmBAF1sE8bswIEDyooRBEllwmA4QGEcbJNAC4OFkavrxWDROBcXzl/S8bJtBxOvvvqqttPhHNDXUtNpFavyZTwOAlkPgMSLdb3JuYNwY1dLEk/EJBnMvwMKX8bH6gCacfC3F4sYG9ZUhsfTivZQYi+fR2dIncFyEMSyYdaL8+XMVBg0+fbC2w6zbKQa/bPwQ5Bvi7lgzA7C/YEnDCyvpRvjgUnHHLXr1h80mGeuA7occGzJjFVuMjdct4ydZbXQJZFQ5taP1b8jfn9QFjLBw15EUolkq5OCM8zf//739bxy/vwhBDH+Xz38FUkl07JpZFg+8dH71SbDrj/aLpn2kPvK008/rfcCbY00Yu29Rk+cUpPZkydPye233yYHDuyWLVs2SX/fsEQSaXn4q4/IqbPn9Dh279p75ivfevr/CiwsuNC4GQHMHHDxmwutEPwOs2POkLWd+99HMfK9fihtQPZeP0M/4vguHn2ud3z86v++upr7b3h6fOHgSzI5Yc2aozECaLck0x1W2aVP6DHJZhLcrwWta/imrjfciLXyce0QgllniyylYU/apA3DfSgt5Wa97LCEWFmx1JYzVt78uFy2djMERQdLqpeKSqviz9N3HqgamFYFKVM0LRogUqbB8XJ8B0us60Hag5sHzfBvghC5Kw82bozq63ggdFDp67JP3W/ZUpnOwJEaYt8OWnCf539LszS0J6MHbGcDGTtz6WlKB3+ud3NGheXYDuCCzxQ8xsxoFWAEAAOc8XJWAiaMAEsQdoAKyLK0YF6SKQvGbJP9uucZKctwAQB2E56mhClxm4z+3l5NN1rDb7MmUZAZaNnUJw3ApRWRU8qysG3SWbRw8mbZjJHiALRzbLveMME622SsyjqWSvo/yzJfeq7r9mBhLGtF13EAx37dO8x1VX6dc860JVGwHwdlzIGzRGHG1a87f+hwJstTgHweBlb876ApDMB8mdayAQb068236/vjPLrm0FOqfq3rPoJ2xBx/OCXv8+WAPl+0ogMrODDvPABwbmWp9cDgFcosx3UUto9xIOrXvz8g8eBk3zM88SwVzz5JYR85ckSSQSEOhQ94yHF+X3/9sDYDJ0W5e/s22b1zu3ra0RVhYvKqju/gqwd1vABCfXBoRlW7+KUvfVlmZmZlcGBYfulTn5QdO4bUhyyRSEsknpY/+9Kfy/TcPDkB6Rna8hePP3Pw8Dp2DKDlqUvo6zAgC+vH3CC2Dch+xBjUXuzHn4E2IPvx5/A9sYUzr37vntn5+a+vrOa3wo597evflCaNh+uiIvrengFlQDIZC7zckEnVRKQizcBaIvyEr0Ekwu3eqiI9qFggMRE9QddbK+kNWnUdVEqVWmJ2quS4YfsTN39ryqRsYnd0TJ5OY5lkwp7sCQYayANT2rWxBYxCHcDYVKGxgyO27aJ7DzoOftYHVE8H5QuFH0gTuQ7Mgauncwi8fOapKA/ssUi8lT5UEJiwJtFqNZJIyNSMpeo8cMPK6dwF23PfKgdkjNM1PM7ucHwuskdP5cem4KRkWh+YhHDAhd1Su4DA1Z3PXNjPPDMmBXFZS0GSWmIs3hya3w56AE979+wz365MRq8FwJNq0bq69H08xryqk2MYPXVK30cLpuNKJjTNCRhk/QW1g7L0udlL2LxwrMr+BUaizgzyOWDRU4ksBzODmNwKPtItltcF/Gyf5T1d7KCJ/Xt6s7uTaj0rcGH7yrrS5SBoGu9Mm18Hfl2EGVv/bvBemAkzNnetTZLvPwy6qG4MPzA4G+XXK6k80rss46lQZ6sBuYrxA1sO13mxLPPF+fXx15vG4LlFiIP85cX5lrEtx818MeYwGPPrzSUAng73SkfGs7y82DIYZt0333xTx51OWSeB7s4uue++D+n80MuUMVNZyQMY3mXcm9julq2bdDsvvfJSayw33HCDpJIZ+frXvylPP/2MXjfX779BPv7R+2V4uEsymbTE4ykpVhry5T//S5lfXJVsOiuTK+V/fvb8xZkQIAOIuaWFpyzXs2OAMjeGdR+y98Q9vj2I9/8MtAHZ++AcN597Lv52bPlfFwuF3xmfmJITJ0bljaNvSaliDu1UT2XSnWoiypOps1QI6ONUisUsRePBw8GKtVUyLZemSgKzUsT9HlRISZKe46ZdplS+VlcBsQMwB0juAE6AaDEHTdEqv0TcqigdUDgocvDmoMzZCdcVMQY3pPRArsULAePkTFG40tHZOh9/PJFSnY0HaQ+0zjiwDU95epD08avAubtvrdgg0ImpTqdmgBMWhgDlYnzXeZF3VQCZNFbJKxJ97r2qk32QQnTQyrlzgTsMB1V/npaFBWttPwA7ni5lTh24ufO5At9UXAM34ArmivQkr86s9bp0NgrAZylaM4sFsBFwAWQcB30LWYaUEtvt6Oq01FjJUpIDg4PaY5J98MLGgW31dBtTx/EBCAGSHBefwbjEAkaRbTIW9EKeEmO/tB6CpXFWjOX48WvImVn2GQZMDpbC/l/rwZSDoDCjek1QFbBjYUbMgbufTwdy4fSfb8vBkT8o+dhYh1QxhQ7+HQyzYHZNJfR76QCT4+bFcVnVrrHTDuZ8Phy0bd08IpGm+Yt5Va3v3wE5168zivYgZ8VCtE7iGlnOrer6nL96xZi4l19+2VjUDusC0dfTLZ/+pV+U/Mqq2oXoQwa9QAMwCSOHhsznpFK3vpVIHNgnzcMfffRReeXVQzoXDz30KbnrztulI9WQzq4OSSYycnz0tHznO09KpdKQ4eHNK0dGL/6LiakpkL+nKl1H5inL9foxf99NYdv6sfdBfNxIh9AGZBvpbL3LWJ999I+/kEpnvhKJxGJXrk7I4SNHJJ3JqoZsenrW0nEJKhkTetPlxokWLJVKSBpj1aQxSxo0mlRg1o0ZC27kMGyabgu9ELPTxxHWQwNdxACGgyZnFNiG6XbsUnMti2t4sqmMxBOWRnWGyzRlpiEKa6U8qGk6tGbMAtYDzpApwxYED47ZwVl4XA5eFFzB3CXNmoJ1ncXit6/rKR5PXbqYnvETRJYWlluAzUGtMhWBmNrTsbznPlcaHN1QFiuFwAKjxXwEwmveDzNVjBmNloNGAI9Vzlq6CJbB5ytscOqmr3zGD8uzLOvgmu4NuL2akusDRoL9ALKYM/cuY+wwI55Gm5uZabUrYryrK+bsjwebbdcE8qSv2S/XAtsEkGllY9KAlxc1eErSwaDbnqy9b7pA1ePR8qlhYNaBJ3Pk7CPXAss6Y2as2t8U3PtyrtFj3P5eGEj55R9myxwg+fcjzGqG2TV/2AkDsjAb5qDPQaGfK4AyDKW3t/Jr3R9GYok10Bxmiv2BApsM78/poM47L+BrVi9bGtjtQcJsmB+Tp+P92BxAsg+8yyZnplWrqGC4WtHzCUPGNUMzcfbT19Mrn/r0Q7I0PyeJZFwNaZnjbNp6X/JQyH6cBY3ETTcKICNlubi4LGgQv/2d7+q5/+xnf0V27tgqQ/0ZSWcwpW3II49+S954423p6RmQrp7B5556+cijOcuZhwX9YQ3ZtQDZ+urKdoXl+yBGbpRDaAOyjXKm3mWcR577yuAbh19/ct++Ax+AzTp/4ZIcP3FCypWa9A0Maa/Dd0ZPSDKRModz9DkqtLUb5WBvb+uJV4OQNs22Kkz+dxNVDWZBMOcGjyCd9Jmm3Br1lmfT8PAmZXQIMH5zJ3g42CHoucAftiMRiUm1ZpWNBAX2x373nCizAAAgAElEQVQZJ+th3eHaFk89ua6NgJDKWFWep21cQ+YBjDHy8tQYQcn1VCqW77D0lDNU7INlPYVIY2zGwXg4LoKBi5TRtESCXpjYDYRTbj4OghMAhGNjfW/QXQx0XYiXPT3mqTuOi7GxrKeRGBdgjIbNnlpTRjGWVHaL8TnrwfjYn48BV3RSioyD5Vyrxv8AMhd9M9b+vsGWHo/9wVI4iGEeu7p6NF3JD8dfLlhaFHDqqTW1acjZtUHrIoJ1trNTdUUAOfbL9aPzGDcRuc9BPG7ggGOxlFhVHxQQe3Pu3JDW2bpm3bWIa5YsDkZYxiv+AFkOKDzl5ulcZ2UUpK+zsAhvyxlcZ9pck7c+zRhO7/O3prKDtL0zWezL9Vb87fo4Z2r9u8e8wix6GtHS/WZTwbZKFTtGB3D85n2uEU8D8znz5s27HZhqgYumPe0nzBA6s8d7jN2XYXycN7bNeb1w6aKeq3TWqoTZ9smTJ+XiubP69+BAvxrpDvYPyK9+7h9IhEKfcknTlaTLHViGtZ8wuZPT6F+tahQj2JmZOb3fHHvruF7XMK0f/9hHJBatSr1albErE/KnX/yyzMwuSDSabAxv2/tn33vq+dfq9XqYFfO/383ywvVlnqr8wafQDR4r2sN/789AG5C998/Ru46w2WxGvvbFf/U7k5MT//N1e/d3kSY7ffaijF29IoVSVXvNdWZ71Svq+Ftvq+O5m3i20iONumwaGpaenl7TGwX+YdyQ0Z9xE3frBoCMgyzVvcRNYO2NrVkHsT/BwhkqtxNwEOapSWXt4lFJqqHjWh8/2AwHFhrEYslWUPZttDRCUdPEWGrLArkzGh4sHYi5PxKgKKyj8WOzdJiJ5Z1R4n/AAyDCK900HVmxVI26yifM3R09jzMHbIPjc82Z65v47VWU9HMkoM3OGeBhnK4TQ2flIIWAxJiZR+bfAQbiaO03GRL1sz/YBvbjAnzGTfBykOPH50wi7IJ/xvZhRgFizAHHx/7ZJ8CMdc6fN+NX9g1gnJ+ZbTXe1hRiMqlADW0fYymXrSURvmw+h7j9w6wCuHDKx34FaSLpSbbhjAzbcmAAIOO6cG2hgnXY0Lqdc71eA2DBeXBwzDrOCjqLxtw6eOCzMCBzpirMhmm6Pki1Mz4HWWFWi/E4wAu/zzh8H5569+vDU+/OBvp3xo/b08z0cnSwxHFyDTl47Oy27633O/Vj8eU5j/y4dCCcsqSht/v+hbfvoNBBL+PwlDDHz/ZuvvlmOXTokLbuYrxcc8WKMZXYXRRzZvjbkUlLR0da9l+3Tz583z3Sk+1UQ95SIdf6vnhvUvbBNcG1fmV8XK9DfwACwDNvqzkrHkFb99EH7pOZ6TFN6b704svy+JPPKFM2NLx5utxIffHpF185F9KMra+udFAWNoYNa8fMF6j9as/AT3EG2oDspzjZP+ldvfHcwx989umn/uS66/bdmk51RM5fvCDFcl3ePHZUllcL2tokIgllkQjyAAua87qmCmYlhqFikN7jRtzbwxNtU9ukqHdZxUxfNRimLb3ngAjGjWACuCBAe6rRtT3cuAEGfGZ9BU1MvsaApJUhI0VKClLL8JMGEMhwcnP3QONVch5oVYMSiOcpOuDGzb68fY4DP7blaVRPDXI8bmcAq+hNqQEQHozYHu8DLhi7Myxs1/21HGiFg6CzKA54fXv+24Gjj6mjszMosEhroGMOCbiuG+N4nelxpsNBsYLMlAFIjo330RyxL0T6LO/WFwQ9luGcsU1AEcfhRq7auqhSaTmhu4B7acmE4TBrjBmLC+aCptIAShgt72/pIME7Djjb5IwU58srS2HLNACn0poyJ1WuzveBb52zSp4eXAM8xkRyjGFG0cGw//brxBkeZz65Bp05UrAU6ru1How5wPJ0tqe2w4wRDyU+Nv9+O0PmY3H2J5wO9PPFd4zj4AVIZdvGYNPn03pmwjw6wPciBa8ezQf+aZ469QKHTMA0u3efj6X1IBYUe6D5dIDJeeblwNXng//dDoZKyTvvvFOeeOIJfcBjXFQS89u1lthV2Pe4rIAMnejmkU3yuc9/VjKJpJRKRenv7Zb86orMLSzqtc654CGD7yDgP1co6LwMDY209K0cY5gF3rNnl2zdPCRHjx6Vv/qrr8qFS1e1sGjH7v3PPf3yG1+bmZmHHncT2LDVxXqGzIX+7YbiP+kg1d7e32oG2oDsbzVd752Fr7zySubQ6Ev/7PTJ0d/78P33RbipHTv+jnR0dsl3vveYrOTysmf3dVJrWMqBG6T2LGyK3uABL5omUh+nNVE/2iEFYLG1akFlJYKWS8QvbtDu1o04HWaFGzY/rsOJRUxD5EwLwYXthLVa9FFUoJeIaR9D12fBWrkey0Xq/n84hQQQc60X77v2x/2sAGcENk+hOsPirvTc8EnBuVDe07Ms7ylQAo03diYYEjhcb+PAw8GWi82dfXEw5f5eHD/gBdDkgS8T+GMxdsAfQdnTUx7InZXgN8dGCouxsn0AGfvnfV7e7ocxE9zcf4vjcE8vT4exDvMDODLGMi5bNm+Tc+fOtVKbs7PzLTDmwIPls1mzolhYmFcQ7F5mLAP4D1f4OXPJmK0tUlbPVX9/r6TUo81Mh82Y2NhFZ3LC7aQMTJjdiDNfLOupbObNgbuDAweWrufy69O3QZWjv9anK/14HSSxDnPkgEzXi64VuDjLFAaHzqj5NeFMm4M2Wl85UOXccY6YJ+bH087Mt1+7LOteasw/vUw5h57ebmnNeKhp2kOLPuCEulGEi1zoWenXelgH5wDLtXTcL0h933333eohB2jy9LezWjywoXejK4MDX5rXR6Iie3fvkn/0n3xBaiUezCjGoLvDrFy4cKkFQDkOQBnHW6nV9DrfuXO3Mvwut3BAyXgqpYLs33+dHD9+XL7zvcetACmZnk5mB/7yiWdffmed35g3Dg8zYmGQBnBrpyrfOyHu53IkbUC2QU/72deeuOlrX3/00Xq9fgC2I58ryko+L1fHJ+XgK4fUDBZmrKe7V9kQAgEsya6dOyyFU66YBqhcbjEzyi7F4kFTaQuM6Q7TnnDTBqjtP3BAAzHaI3RJc7MLLf2VpjiCxtsEL0+xhVN4lAx4CsUDhdsMOOhyJsLK+s24lG07S+UMnYr7682W7YFV9ZVaVgfOxrmoGaDgIm+Cr3l2meM5QMFfzgZ5lRlj8G0QGAAJrrlBvE6QYCy8nO2olswI18Ge65dIgXrKtFAoyYIWRVgjbF4cK+uwPY4HEM0+qX5kvAQiD/zYPnT3WDUj1hWkcRiXOvCXyxrIHJgAAs+ePasBmgBK0Lvlllv0WJzdZLwAcvzCXKOEbQUvTT/pepa+5Uer/IJiCNhW/rfKPxgvS3U6G0VTHwIuY2UO2K8VmMDuEQdJV1qvVWdQPfXK/p1R9Hl39sb1hA4mPGXtjJF/7ulC/vcUpAIteiIGrzBDtsbIGeBi+2ENmTN4aAd5+fJ+bsJpS99+mElbW96qZNmez5+n1/mfRtwwUdbAPaPzxjXgLBr9IMMPKXyHHJSqXrPIw431u/Tvm38fFSjHrZuFj9uF/5w3P888JHANAsicweVe0tvdo+fONIamlTv8+pHAYNYKeNj3QD8Pgg35zX/8X8hgb4+mpi9dOKcttG695XbpG7QKXq4XABnMLWlajpvreteuXbJ5eMS+c2Igk+uI+xfHcOzocTlz/pzUa/X6lp37Xjz4xomvLi4ukxNd78j/bs3EPVVpDULbqcoNGhU3/rDbgGwDnkO0Y8//9Ze/8J3vfPthqpB40SOyu6dPvvvYE7KwtKzAylgAPMCicvPNt0qpVLAbdCKmN1PzeLIWK9zwaWCcK+QVxCH6V0+qRlMDKS9ultt27JBCMac3XQAZLvMeUAhC5aBCjZunpzmcVeAmXw9K5Z3ZUhAQsD1KOATGtd57j+Wc/eLG75WKVH6q6DfYP/t27Rqghhu2pzQJZIAx3nd2wO0yVlaWWgDIGS6viOR/mAfSf2zfU5sAHteudWoVmaV2vTJUg3dTWqld1mPcACoCGYGOIKdAp2FmnS7MJjC5rQTz7qleZ0U4J4AptoUZJ2AbloxltUNAuSzXX3+9mX4G2joHgJyvcGEH7wO+CLQAUpanapNtEBT5nGbQzBnrErQBZMwn88F5wcdNmbpkUtfnM7a1fdtWXd5aLCUUqLvJKWO2FGpdG0w7mHIwYFrBNXsFB7sOPNi3szrOajlz4rqs8DLOjnmak3UMLMTVWNbBSJjhcsDkwvIwO+b70PWDO2gYkDnD53PE/ljH0+d+veh8V62TBO/xvzNSCNuZI4Au88P309kuzr1rDulw4d+R8DG3WEPV5611FfiB71izKcWyMXTOHHLtMQ5n6Pz43Q+OY+Fa87nrzGbM2iWRlqsT43L0reNB1bL1gjVfu4ps3bRJ/v5nf0l6O7MyMTEu3/7mt2RoeEDuf+BjCvQZIwU0fG95IMLln+PHpZ/rc+umzWrbgoeZXy/M2/G33pHXXz+i+rV6TVaXK9F/dfLcpYkgVflujcOdLfNUJajc2bG2bmwDxsT3y5DbgGwDnskjR44kjj736LevXp38FK74BC8o/mQ6I9/+7mNSrdWlWndGYlUBGSzMddftUT+ghfl51e7QqmRgeMA0XIjVyzWZmZvXm380Yg2vRzZvsZTBQL8Gc4DM1NSEMjboX9B+cYNMJ5PBU75pxQiY/hTtGiLec2E+QcBSQba+P6VjrGqMkzEtrtNayeeCSjHTpal2JZPVBuW6/8AY1AMGN3XGC4jk2BwMECQ8nabC+Yql2xizuvYHbJCnqQAYCiSD6kv+94pGlqWaMOwMT3BhW/x4ZRugJLe8oqCGYOosHmNNZczHy9kR176xHU8Bs39PXzFvHhB7ewM39bqJ+b2Qwdkc1uf4ed97R7IuAJNzix7MU4ykh9Q6o6dff8NOWCrW4pMXZ0QiFmj5UVCTSEk0gWWIaQ37unt0/a7OrM4TgMvsKRqSyaRk/MpVLTIwgBPVlB95dNeFtdK/NRPDc7zmKebXhYn4w6nIMMMVZtA8tUjgdqDvRREOdEnhh5mr9WyWpxzDoJG/Hbw7IGO9FmsapFwdIPkxOUPF/rgGdAzJtH43+a7AYqoVyeCgAmJ+OF88TDhryH7V76tel1xuRbqymZbujO22xlszxpZ9sy86H6hkIGoMpF4jyBLS+NpZJweAPmCa+WK/XiDCdcQ+YWvZr1uXNGpVtS3Rlly5opw5d1aWVsyTzACzVZfCggLIPvOZX5Lxy5fk6994RKTekF//9V+Xjq4uiUSj+mBBu65TJ0/qA8nDD/+VXj/79u1TULZ962adH8bCdceD5MLCkjz1/Wfl0qUxiSeTMjiy+dC3nzn0J+uYMXfjXw/OvJUSE+XMWLuqcgPGw/fTkNuAbAOezSNPPdLz+BNPLgGUZmfnjMFRg8imvHjwFVleyUuhVJZ0R6c0qjV9suRGW29UZdPwkFy//zop5QvS0ZWVVAcO5TkNfpjGDvQP6bL4l+Gmzs15997r5IEHHpCl1RVt/AuwoLKJUnQCHKBsMNgHBBc3ZMZGwKmUDDD5k7ZbWDjThX8ZN1lnOhyQwOYRyB2UzczPBVqlTEtfZv04rfl1Ip7S9N3w0CYZHhmU2Zl5NYzEyX5ldUl/Y6+BTxa+Z4DPTEdKmSzGx48BCGMOnanylBfj5+UByfVmqY5My/sMEKVp0VpTzwmBhe1o6lOr85oaeNgPL2VDmgZ6PAXmQNbNUR0IAOQIRPwmhUPwBLT29nUHvnKmT2POXC8IEGRZxsJnACHOreuJ2J6zIZwrluf8Aw7YDgGP5Tl2gq7piupaMcmNI6l2C0ltnVUL/Kw4j5mOtBRytHgyU1D1GGvUdOwAMkAizeTZHqL4aCwi1UpNavWqxKIG5h1M8NvAqBkHe4FJWF/nFamsFz5PzJ2nTblOnMljOStMSKim8lraL9d4ORBnmTBL5qwwgMzZufWAzJk4Y6XiIjGRSrEiy7llZXajgRkzY8lmST1yfTXV9X5wcFivl57OHokmolLKlyQWj0g0YlXJmXRWmVG+J/oQUamq950/DGmJdADInCHjt8sCAFWkzKeCKlnVkwY2N/5d9PPA/YP1HAxSNVkqgGcaKn1YWJyTixcuy5Xxq9LZ3dPSibI9jolKTgD6xx64X66OXZYXXnxWfuHOu+RjH/uYFMpl6evv13Q7+xhXfeuqfPGLX9TvO6zZgQP7ZcumTXr9+ndzdXVZXnjhJTl18qx+h+KJRHG5HP1f3xo9M4aLSOgn7DUWTlmud+NvV1VuwFj4fhtyG5BtwDP65CNf/PjBl156Zs+e3bK0OC9z84uaspyZnZdXD78hjUhMVnIlSabSEg+YKjUYJQjFSaUl5aFPflI++vGPyMFXX5BzF89LJEhNZlIZBXBbNm2VbVt3yOuvvyGjJ0/pjZHg0zc4pIHx+NtvS1/AmMGKcLPnKdpTcgRRZ9Rcv8YNFRE97Jo1EI8LPfY8PWYsl7EvLmCPBewJoM2f3Nk/+hHADUGe40lhMBuPKmuGWBhwyW/YBwAnrZpIkRGEYJYQq+MY7kLz/v7BoBeipW8cfLUCb3B8BEtjRywQD2/eYlq7VIceO+P0En0Xurt+rK+vRwGOsh1R8+4CKHoxg1tVKMit1/U8AJIAZ7ATnvaCKeBzDaDphAIeZ9EAhIBlF4EzV5z7yxfML4qXBzU9L4W8noupyZkANJuebW5hXkESoNJTwV4AUKnXRMXatOgpG2NFyyx7NRW0K9hsVCUesXSdM5gOKtmHag61CwSMEVYiCPzN6sKtRdgigMXZHwVxQZeDMPOlew6sJ8K/FXQFYIzlw6BEgVTQNsy36Vortme6yVqrs4UDWQPZNvZ60zpPeNUj15vqDYNqSR8/WrxqHWCelGakIZtHtuhxA6xhaTs6OvXax7C5u7tTeNiAUezKdsuV8TFdj2pF9tto0FnCGCgFRegXm03pCBq5GxAzA1+at/O3g0aYLNek6YNC2ipxzSzajHQVyCZi+t1A8+nVus4aw4bSwxVbnfnZOb1W3PeMYiAYPs4Z76WTfJca6kd2YP8eueHAfvnqVx+W//QffcH0jNk+3T96xtGT7wTfnxX5oz/6I9m3b69qyHjQ2rV9R+t7wMPB6dNn5fDhw2rvUyqVG4MjW59+/tDbjyyvrvK0E2bF1rdGuhYz1gZjGzAOvh+H3AZkG/CsfuPf/59fOnLkyG9u2bJZqpWSWlTQ/PngodfkqWdekGqDtiZNLQHX1iq1mraoqVYr5mxeLMiWzSOyc/d26RrslAuXL2gLnM6OrESbURkZGlFgs3vnLvn4xx7SKqa/+Mv/V2/q1+2/XurSVCABUKAZMMEMponA4E2rnWlyMTVgxUr5LYDr07bqs+Z1/GjbCJ6wKgAAAjjrDA306X5dE+ZaFnrjkcpYza8oaPHAyxgIct6Oh+W9ctH1avx20AfoMY2YeYGRvuG3Vw7y20GMAzEC08BAnwGHumnllpdWgyrGbmXJaBnEmC29ZilMC6AAxIIyWwSkpcUVBUSe1vKUJv8b2DQ7DOYa4GrbLikY5Ti9CTyAmfnydBSA1cEHx4comm2cOXOm1U9StWyrpskZGbaG3wACGFA6OzBmNb8NKmZVlxQ48FMplyV9u2R2GFblSfA2zV+206w4HJC5ZhBABrj0NLDrrZzFMYG46Z54+XoOkJz14beziu/2FWYbfl0oixQAMl9eQV7AcOk1HLLc8HE5CxtOXdrYAt8zMV86XsYimf0DdhSAEoCWpvy6zN6Ec9nSD1bKWm3Ie4CYMBhE28b7fGf0fMTjZpRbtp6f/oLt5XuNkbMWg9SsatKAW0MSKTNOpviG/cJIeTrd7FLW/PNYz1mydDJoOp8xtpgfzl0+t6LXOQ8Pyq6WLJ3uKVWKBMx/rqzsHSnSaKypvSx3bNskD378o7K4uCB7dlmBQF/voGzbsUvvSxcuX5JSPi8z8zNy8MUXZcv2LTovDz74oEosuN65Zs+duyDPPPOMTM3MabVvKp29vFyWL7/y2rHTfL1CDcP5m58wY7bea6ydptyAMfD9OuQ2INtgZ/aRRx6JLV0+/sa5s2dv6+7uEkS1/YMD2mz34Ue/Id97/CkpcjOWuJQrVYkEVVTq9lWrSiKGGFvU7qJvsEe27Nksl8cvyc7tu9RNO9qMSCqRVIlrKpmUHdv3yE033SSXL42p4ePo6CnZvXeP7Nt3vUzNzFgJfkQkkzLgQ9BwFgQwAXDARoGbPQAKETlM2dWr6G6pxLLUEcHBQRTbWJyf1cCBOSQBCSDi6SfSoZ4+Ybtsk6BoKbVa0EOxpNt08OcshgczwIsLn8OVjTBo4WpGZ60AEQQr2Au2yXFT+o+GjPEiamYsiLTddgMgo0JkNG+1ugqSGR8MkmvcSHm6hxrb53jd6sHtEAhwBCbSjhw743WDW+ac+aEBM58TGD3om6O6VUNqcA4KJJRpK5k7fq5ogJPqSl6we8wlQEzZnVJZ/+fcKOvZZ8GWF3OQiBkA6+qyeYF1VIYlHbQ4SqGRsgpF1mdbANCwaNzF9mzPU2McO/txYOYAKQyaXBfmX2FnAMOgzYGcf7aeRTO2ySplbb0141cHfFYAYMydV5G6wJ71Wc6vP1pCObhUDVw6rfNESs4tXADWfs0P9vfqd8ABDde4V4KyHR6SuL5tbpPKnPFyAAmrZsypWXKwjn5PalacAVuqDxVN0935flmWfbJu2MUfgM91zD3AzkXV2K78aiBlmDZD4khUTaQp6mB/PGgZaDVQR4U066aTKZFIXe833T0d8tH775Obbr5RohKRkaEBHS8s2JXLY7KSW9WHxXMXzsuFc+dleNOI3HPPPUGqskOvbx4unn3meXnnnXekatrRQu/w9r9+/NmDT5VK1WURQQgKCMuHwJmL+AFjYc1YW8C/weLf+324bUC2wc7wkRe/vvn57z//wsTExD7Kx7dt3SwI4W+46Rb5xje/rQxZoVxVQFaj32TdAjE95ngl4jHh6ZcbcXdfpwxs65N4OiapWEoOXH+9vPDcC3LzDTdKIVdUEBGPpvRGu32b2WVQiTk6OiqkYHbs2indvb2qXQF88bOytKxVfseOHVNg4t5XgB9P3aFrOnPmnD79owXBGBRtl/dNVKuIvAEmAiWpT/rZuRYNkAMIIZAAbHhfXeaD6jtu3K7F4jNvJeRpJf53+wBnZJyJgVEkSDgzxjEAhlxkPzFxVfdHMGM+Mp1ZC5ARAyKWerNWNgA7xofmZlVd9hOtyjn2AdACkDFvzoh5ZSUBl+1wnqgygx1grIwLcOgGq6SftOVRf38L5DnTYmB1QrfjWjtfrjPToduanJm1jgEz8zq2gYEhTWlp0I3HZWWVSkBraYXWS3WBlUprPho1K6ig3ZbZl9hnBHZN5SYMyDgDyPFwnr3rA+u41ssBsl6nQeXqGvCot9KWrvlzUMTyDtzCYMxTlb6N8FfdgZmnnvmM7QIo/JpgrGzDUqOmIXRwyzZ5H9Dh47bzZYCJ5Zi3/sFBfVBhjpg3T2PrnGmxjdlu+PfDQabpr6ISi5glC/Ph23eGFxOIRMyKHViW8XMO+aHS2luE8RnFGprC1L6yxhyyHX2YCKos3WMQVqtcLjcXlxYb8/Pz9bGrE5Xl1dUGbW9T8WgymYjHksF+q426tsVaWbGCGBhCBbgxznlTEP5rSl6roqPKjD344Mf0O33XnR+QznRCu1UgY9Dig3pdWVzXP+7ctUcrfbkep6dmtfpyaWlZe1vWGs3Glh3bjzz18rEv53IFfGtIV2IGy2AAZC7k95ZJYZ+xNhjbYLHv52G4bUC2wc7ykScfveexJx//2tzc3PZarSoHbtivN94du/bIc8+/JC+89KqmLKsIxZtRKdfMVkJv+GIMEqCM30Mj/bLzxh0SiVm6g6fxF595Xn7h7rultFqUxbl5BWSqqWqYx9aO7bt0WYLL+YuXZGJmWrbv3KU3XYI9wZ0nep56L1++rE/CABMPyO5pxg0XNoVCO27cpAoBAAQfQImbQbK8+4cROAA4zibAUM0vWjsh/g4LujmtgC53rud4ATWuk+E389bVndVAhhDfhc1WKWl9PAFk7BM9mntzEUwQVivbkDYrDdVTBUDFqwq9EpH3YUgI3gRYtGTse3B4SCsUGQtCd9ZTU0wc86kaC3pUsh/ml3nhOPlbWcTFRSmsmlVCuWYNxlkWVlLBVDBXmkLMZhVoador8Djj+GBC2SZsB+wDrZgsNTqiBp+8vEqWdReW0NBZkCX4NjHjjMclnU7p+TcdVJKEXhD0raemM5MAFo5LtVNBNZ9XHzor5qDEU65eEKIpxqC1kovtPSXuoGyN6XLGy36vZ8YcuMWSaxozfQAQA2QOkhija6dctM915WwXfRT9urGiAgNq7M8LEADenDtjkoxxZE5Mi1bSIggX47sWMNvR2WKNOa98bte3gVsdS5TRRoRuClxP7sPH/LE/L+7wvrB6HFWz2OA76d8X/uczLWxZzdWnpqerk1PTtYmp6crs4nKlGaDdSCQS6c2m0yN9ndmOVCrRxFIjanYwq6s5A69cE0GVKXMIQOf7Uq3BYNeVefvQhz+omtQ9O7bJnbffKKMnjktu1QpgAJkw6gBg7gFcj3icTU3PytGjx2R8fNJ0lZ09kujInlsoVL565NgJUpWwY/wAyhyQwYx5f0qQMoCsrRfbYDHv52m4bUC2wc72y49/5T978vEn/3Bubm6AG99tt90q41OTMjyySd449pYcfOmQlLnR18BQEa285ObmAbFeKbeMSTdtG5K9N+2ScxfOyHV79srk5JREag3J4khfrkthtSDSMBf4hTnzpSK1xY2eIDMwNCj1SFQmp2daaRXAAOCDm/zK0qLs3r1XxsYuaZUcQCS/kpfLVy/LlpEtUioXZNuWkVb6DYd+gMnevfvMKgjU+zAAACAASURBVCFoJ8M2eYLmeL1wwNutrOZN8G3u8Vl9yiYA8Dm/Pc3EMl7NqaA0EHtXqiU9LsTObh3B+NG2kbbjMwuIJjSH3dHKy6ZtA2aPQM4cKSOUTivgUe/5wFMNcTbvE2BoF+NpKcYLKMuXiq2UrIMotuEpS7ZPIIf5Y4ye/mMsS/M0U46qOJsxYGUBAwlLooCzq6vVk5IxcEwOOFimO2vVm6Reze7EAj+BDwDKHPI58wsgi8bNKJV5Zjubhjfruedvzi+AXFN8QdEDQdjTYwamDJDpvgKg6KkzB/oOgFjPU4TOchH0fXlnRP0rfK2UZRiIhYGZs0oAUWfH9DtCCyftCGCVr54+5ni9CMHZL8aLv5ozfJbKtfSlV8lyDjke10Cyr2ymw665/KrqJytVMxE2hi4iibj1hnRPNwPoxqJaerIquWJBPQBhinWOgrSra8D8WrZqyoKOgfMHIOJ6pAjGuh4AoOrNubml6plz50pTcwvVxeWVWqlctjLNdS8yux2pRHJzf092oKcrXa6UI7C8BkqN0a2jYVUvORg4vA4TUiqbd1+tUtb7Ayn2/r6s3H37TbK8NG/noGng/8KFC1qUw/EBxs6dvygnT57SMedWC1rVm+3oGV0oVh47NnqapwZM/WDI+O0MGexYGIy1DV83WKz7eRxuG5BtsLP+4rf/4ne+/+RT/8vc/FwXN+wDN92grtZDwyNy6cpVee3wmzI1O6uGowCycuBETirOb+iuNcl2JuWuD94my/lFWV1alkatqcDsphtu0KbZ/T29Mjk+pUEeoRjrnz17vlUBpyL8nl592gYcEGQBTtyMCQi93Z2yY8cu9aJCmwV7Qrn8zNy0XLdnn76P8HffdXvNkiBtwCUiJvrXNGTMxNYwA24aySmbX1rUZUm1MS726ZV8/A/Lw7iU/QrSpQRZtztwLzAYMoInthmMmXSJuddb2yfXoFFswDosq6CgZvvr7zPPKNc7uU6nI51sCfEZB/q87du3arCBtUsm4rJ9Jya7JQVkDuSc7fOgT4By8KOtrwKbD3oKMt+dHZmWJQVAB7ZLnfBLVNdFVKjP/vAZY+xsn3lUAXi1qqljXgAxgJVWCAb+YyzrOirAgwMVDbaNqq6zZ891en1YQUeHbBoe1kDvjCHu+54OtoBc1/E52CWX5em2sCbM2TGO38fgTJkzVZ7C/mFf4TCDFmbeHJBJ0KrJgZsDHl/PuzI4WHKml9/hqkR8+DiHAHcHhmwL+wmO2/V7zB03XcZSoZpYPdzMpd5SoKT2EyIxdHldCoRV/xe3HrBaQLK8rGwm3ynGwH65NvQ8Rq14IRloxDIpdI/dLXNn7DHwHWw2Ik1Yq5NnLhTfOXUmXygWG6VKre5s2A+ZU40ZyXgsOtDT2THYk+5KJuIRPcaUMefRaMxMhqtVrfzUNKlYkQLH0tWVVV1YX2+n3HL9XunqTAeg2HSJs3MLOofoGc+dvSAXx3Cy0KnUh8t0tnOmUIt+8+g7p45zKwjAGIAMhgxABhgDHbvha5sV22Bx7ud1uG1AtsHO/HPf+PLvPfvcc78/NzeX5Sa8becOeeutt2Tzlm1qYXD8rVE5eeq0grEmAuVYvBWcvThLGR5SHs2abNsxJPfff68Cqev37ZO//5nPKkv11BNPyte+9nU5eWJUn9g9LQN71dvfJx3pjCyvrlhlWKMundlu6evvkY4U6T6zpZicHJd0MqNABIZsx45tQpec1dyyptVIq0SjEbnrrrtaZ4ESepij8asT+iS9mreU3MTElG7TtU04c3PDLxUr+vRPGgOwxZxoOpDG6bGYBjSCHGlPZ9EIjmwTHye3jFhZzmmwcy8vdCsEBReZu/Ep/3OcjEPZp5W8bSsJ80AroKy2lSoXTGtl1YcNZUUoamAsAJLObIfACE5OWbqQQAQYJFCTskEzB6PGe2yX8XN8+/fvl5MnT5rwGgF43ETobt7p3QgA4g7kfH4Iksy7p7dISZLu0pRV1NKinj7EnsRb+LAd0su8uA4UtEWbCuBIKREkAQKaJouTkjVwoIBEzMXfxeP1akOBL+uqpq9pGjSO2/fnKWBnwCzI01rJGm+Hz4tfOGHxv7NbBlAA82ZRwt985povBdbrjIkBTIxDrSQCLZsXkHjBileIsqzbt+AzZ2zqSkszp6L+4NxyXpRBC5g3TWuKWDskPANDc898VWoNBVIAL1hTtJuLi3jPGcBT/WIAcFjOC1HwpuM48QXk0JEM+Pzz8FOr1evzi8vVE6fOFi9dnSjWEJra60fRVHm84Lf+3dWRSg73dXQN9fUmM5l0hOrrZCYthUKxZQdSpjduVFrfXTO6ZS7qko6L7Ni2pZVChbFbyeXk/JnzytpS0FoollVOEYnFmrFEZmylWH/mndPn3qLBSAiQOTuGoH89GNtgd/n2cH9eZ6ANyDbYmX/mm//+91956ZX/cWp6qgPQQbrg9KmzWvmInmNqck5eevmg5PIFKVaq2hRcgVg0CGZRq67ipl6tFKW/JyN333m73HvvvXLrzbdoSfmzzz4rJ06ckPm5haD1SUO1HabbSWlD476eHtm6dbMCBff3QgvWkc5qmoLAt2v3Tpmfxf17QWZmZqWnp1u2bd4qqZRVEwI6brr1Jv3b0mTj2mxYtVKzVuXnqarVlZze4DGfJLjxIl0DcAKoELSYD9OmrXmJuQYIAMVTOWBEixS2b9cAee7iBdWHEQjYrmpTEla67023ORa2QwCkUpKAzNjV7yzbrWMkTegO6szH0MCg/o+uinGjqSMoLc4bmwZj1dGZlfGJST1vsGykEAnMfM7y7NNTe5rKIkW6uqogD2DF9kkBeSpVrTyimIWW9D3GPzgyHPjBlbQyzZgVA57MOcyLa7OYN0J4OH2m7EzCCh2MvbFbRrlilYEYljL3LWawIx34VqX1vLhmEFsTF6W7zlABZdr270DQ06nOSDkIcxbNrwkT2lP4YEwfc+a6LH/gUFYlqPBUxBGAoTAoqwYNw2EWWc/TpNbyxxgrr6BkP2wPEMaPFXGUTEMYVDcCXH37um8sYrxNE2L6wGCV/dTqtE3CINbmV0FpqaTXAMbMvLzfLKwTVdWkBbk2GK+xmfYdYZ4YP879AEdOkz500RpK6s3F5eXa5bHxyrmLY8WpuYUSziJ/Rz2VgzFDuiKRVCIW68mmMkN9XelNQ4OJVDoVKeRLLU0jvnX+PeR8G9Nal0Q8qrrWSlBNq8UUDVj9ijRq9RY7js6SPGiyo3Pi7NjMN6am5y+KCBMEIOPHtWMOxki3ul5sg93h28P9eZ6BNiDbYGf/uW/9+b88fOjw/zA2NpYmKC8srWj7GW7iQyOb9Wb3yqHDcvytt7X6EVBWrVHKbk7+Fgjsd6mYl6GerDRrVAaSNmhKLkdxkmjTaHQcmqJpWqXizNyCBlluqojTVZMlMB5dcsP1B1opFrbdkTENDEFiz549ajx7+vRpBQI8zd94w/WS7sioISRtTwimgBTGCbgZ2bzJnOODirzTp85Y0+tiQYEV2wWc5HIFDUCuCWN8lhaxHomqX8GeIRBRw7oRzGCLFhbmNBAuLC+pUzp/Y1/Bul5pB9hgX3w2smlIK0wxllU9WD4vO7buaAGK3bt3KlAiAG/dvEUBCPM4NzsrR4+9qePkSZ85AEyiHwKlzS0uaMDSQouhIQWmAD5e1gsy1QI3LANY4EdF8MWCtpdhbjTQUdARFBloxWalLC+//LIyYYALAjzve69EAJmDH86b6w2dnfJUrDNG7jNGylbBStEE6swx7BAAzNJza0BBNWRlqz4F+IYBmc5BqO2QC80dSHnK2VPH6wGZV/Xxvq/rwv+wfkxThJWKXf8BmGP8WLdwbFyrHLPqrFIp1SB6epJ1uCbMt2utNyTHrOdYbSJcEmC+XA6wAGQOmBgj60QD5pWHJTpVoFtjTAqUF615O9e2Xb927XnakTF78Yder3jA9fZoyyrzJKtqZWMAeppXrk6WR8+cK07PLlRy+UKl4cZjdt8L66p+WFpvPTMGGHNgpr95daTi8c6OdLK/uzO1aaA3lclmoqr5qleUyUb7pWxsggboVHunzFA2qPy0lK/pBr2aNWZsdj3Zkbk6v1h6bvTMhbcDMMYTm6crw2nKdk/KDRbT2sNdm4E2INtgV8PTj37pX7/zzjv//ZkzZ5IE//HJaU1PEuT27tunT88vv/qKHD36lqYuuTGXqqRHopqeicXsCT4SjUu9XJKORExqpbxs2rRFS/ARD6doEL1MBiAqlZp5R3EjxVUfIX8ilZKFOR5M2bO1zaFUnhcACpuG7i6MaKtqGEuQxoiWoAIAY9x//Md/LEMj1r+uHrR0cVE3oITtsM8DB26UeDYrl8+dlTfffFMBihtxkgLEKd7AgFWiqeVC8CJ4qValr6+V0mR9gh+gB6BJejaXX5XuLus2MDZ2VVOlAKYbb7xR2R+2zzEAZKzqcskqR0nTZSj5N9C2Y+d2BTpeXAD4IbCj44IBI/gsLiwpmHPPLQBmqWopOR87oJJxuakt+2TfzvBwPGyXfRVzeU0fw7axfQcVVK1yjBfHLmsKlHo85h3ndrbDNtkP9gFsC+aM38XCmhEu54PzwP5wWreenVY96IURLianG4KnDakcBExQEADT4SCI44GtBUwCihXMJACBJox3EOPH6SDMtWLXYs1gmByIKUMYpDV9G66XdKsILwjwaseBIBWs7GfQ3NtNeLWIJbXGIGq1cWDn4YA10lgrALBUqNm7MHaW8R6gfMY1olq7DutFyc9qriTLgcmq6wZZt6fTHhBgcgFnml4NDFidsdRrkqrZRkWZMLXwiEaby0srtbdHTxXGxieK+WKxVkEbtpaSBHg5EFvPkr1b2jIcJ0zQufYTZszUzS0Wi8bSyUS0v7sjtWV4IJNNxWOVWj1SrlQiDKMZeL4xT7291kTdizf46rbSxckkN5iVUi16dHx67q2FhaWxRqMxHQCy9WAMAX+7inKDxbP2cH9wBtqAbINdEU88/O/+cHz86n974sSJRGd3r5w8fcY8qbq75c4771QwQOA7e/6c9nojyC6vrEqNno3aCTkqencmRdIUSUVFGpWysmsYVALICGJotwBjPNmicVItTjQimawFfoLy3t27ZXlpTqjcJDCis0IrRWDjZjvQ36fgY8vIJgUwpCgAObfddpsG+e8+9j1ZWlnRz+644w49Dhc3u8YMZkffa9D2qKDjRpuG39ftt9+uYEcZpEJJOruygl1A/0Cf6t56eruVMeJ9Ps8XcjI1OS3TM1PS092r1W2wXH2AjWyXgjAczh3csS+3ieAy6e/vNSCVMIsA3McJJgqekillJAmyzANVigRg5h9zTkARr0K+qEBKNUQY6naa7QaAAPDo1XDOxhCIAbg0B7cUnQEEltW/K1Z1193bo+wXYwH8vfXW21pAMD03q/uDheG64ByiF8SSBFA0N7fQqsB1hi2ssXIQgUnw9u3b1GMOY1u2pSnU5eVWKymuG8Cqs5UcI/PibKPuX8ySgbGqPUbcbCaYA2fFnIUKgysX9Ct7G4AufnsLIwc/LrQPgzy2B2jmPc4fgNBBHilLr2YFFLAM/3uq1dlGZeZixvrpA02QQq5XrBjRARaA1Zk1Z+QcnNl4zQ+Q1DlguFylgtYKFwCwLMP89XZ1S6VS1geo5eWlFujsyna2vMPYbr6wSuPwRiFfrF+6cqX85vGTK7lCAQFcGGytB2AM4d2A2bVAWZghWw/I1oMzZ8/Yh66XSSVi/d2dyb7ujlRXNhOPxSOxRr0ZqTfqkUgkFuE6MYBLNXi9Uas36vFkspAvVi5eHJs6WiiVrorIFBnc4McF/NhbIODneNspyg0Wy9rD/Zsz0AZkG+yq+P4j/+7/Xl5e+e3R0dE4FWIAMlKJpA0JHrfedrMyIdysR0+e1grMqxOT6vNTbTTNJyiCo3xNUvGERHiqb9S0FyOVczBnXt5PiiGdzkixVNJAhl7NA6eZrNakVMjJ1i2bdP2p6QkDeamUAgzSaQSgYqGg+q6d2yygE1ypErz55puld6BXvva1r+nygBveZ1l+/D0PYoAnfaru69aKK8YCiAKE0KKmWMzLtm071H4BYAkwQvMG0ATAUVQQoxKsgF8XIM+E22wXLRJi+WgkpsySB2f2AaABQADU1L5is1l1UHkJA6QpskpFhkZGzG5iZVEBEBqumblZOXv2rGzebKX+MGQAy+lZawSOXQX+YAZWRMEp547KSEABaVzW86DFcoALmFCd56BBNZ/D/l0Zn9AiD6+WpPKNdQBeALFLY5f1WFq6rYhrxkjFrX0ZXLtn4KOpKWeAqDdQ37t3t1bkYm/BvBBQTVhuqVEYGwdPzA+fM15Sohw3jJwDsrA+zJflPU2rl4xt8+IKZ8lck4Qtggv2AfRuscF7ngZ0gOjVj87Y8X3h3HP9OPhmv1aJa5WCjMfBp++HamEX9pMy9QpK0979YAEBtJWno7lm2J+ngdkPLcqUJZSIXvNucIzxKqm+VDytxSd8phq+iKVe641Gc25+vjq7sFC5OjFRHZ+aLRZLZQdi1uTyB5mwMCi7FkMWTln+MKbMARe/ocX5cVDm/yt+Da6mH4gxmVQy1tOdSaSTiVg8Fo1GY5EoD00RqMVotCoSLTUlsji3tHppeSV3tdFoAMQmA0CGbswNYNGLhW0tfpSihA12t28P9+dtBtqAbIOd8ace/bN/m1vN/db58+djhVJFVvMFOfz6Gxrc0DYBqmBUuIFrwMkV5cy5s9qqaH5hUVYLRUlqeXpNUsk0T9cSCfpQqlZKzODU3e0JiOmstUMCIHiTb4KvpYEq6vxPCT76opGhYRW+FwtlwfpBWRy0bMWyZNKm+6IPYiqelM//2j+Uz3zmM/IHf/CvNTXmAMxtAhycOOvB/np6zTmf1j9qIRCPadoTzyKaEF8ZG5cdO7fJ/NyiVjvC8K2sLunnjGvfdddLpiOlRrAEW5g60ngwfATDfC4AkcViK0AyF4C0VNpSToDK6elJNU66cvmyghRv+0QMpNrVg246k1UA9PnPf0GP8crYVTNGXTTWA80QLB/7hrVyiw7vY0lVJeeDccJ8afowaN6snQ1KFQVBgDQqMtEJWm/OiDJBgHXYuZMnT+s+SA/zwlmf1FG9bgUbagKlwndLwfnLU3OIr/X9SDMwre1Xlu72m2/6AbsRiFQF4XlrqQOAYp61gEBb91hrIDfphSFzRsmXdUbJARn7fTdARtx3FovfLsB33R/XrAN691Jjjv369QIRN2T1sTrT5WlUHyNgzPRZVuQAIHPwanNmOMQZs4WlJb022D7niONgXtzCJJk2XRrzZZ0rVhXoY1vBXFIkw4MF/mF8t0HHb4+eLlwcGy/NLyxVc4WiG7eGQdi7/e2gywHZ/x8wcybt3TRk60EZpbiAMqPi13Rm6++yLXYuHo82IhGAGN7GtVzTbCsAXYAv0pOAMU9T8j6sGHl1Z8XavSg3WAxrD/fdZ6ANyDbY1fHsN778J7Ozs//1xMREFFPUxdWCjE9OyPgVWP2G7Nu/10Ts0Yjs2rtHRfJz82iE5uXipctyZWJS4omUMkaI6SlP5wndARfMk1pcJBIKvgBJBCmCCcGLJ3cCJ8tU6hUNToODA7KwwL2SJsKdangJE7J75w5rw7OKzcUm6e3u0m3MzEypH9UH7rpDhoYHlZn6e3/v08o6AQzYvjcpB0TBVGTTVgBAUGdcHKuLwwl4MGIwYYODiOoR9gM6TKS+ZcsmZcCoEKTn3sjIkFy8eFkF75TpA+jYhrWaSSnrBqiF2SJ4+v9cKsYu1ZXJ0xRnqSBLC4vWvaBm7ZRgXOKppJ6HldW8plb37z+gy1NVyRgYn2qfolEFB7BwADNAlWq5tDF1h6axAF6AMK+yZA7ZX/9Ar6Ysn3rqKR0ngIPUJfMyOTmtVZWjp8xXDYsNzmMm3aHgIF8oSzyJzgmoteZk3wJiTQMWeFZxjhsN9FEiiZgxQIw9nU7K9Xv36PExfmtZZUbCOMJzHMqCaYP1wGokaanOxfklKw5JWArQKxg1NR6qjnRtGes4yHHAw/FwHWtqVNs3WfcFtuEecoBTZ7m4xrUCMRZrtTBSXy4FfKZjU9F5LNYyEXbnfWfuHPCxDy0OiK91IWBcAHtAFal4s8+wlk8cK/t2SYEXmfBdURayKXoM7IcHizoV0pjMlgCAzWalXKm/M3qmeOr8pXyuWKw2GtoV3IFNmA1zUXu4TdB6xuxa/4dTnI7Iw7/fDZQ5Q2ZtBNZYs7Do3y+rMAvH+Ly3JDYVfKlx2Ue8ikDVAVlYvO+NwtvC/Q0Wt9rD/dFmoA3IfrR5es8s9dK3//JPL4+N/Vfz8/MKyAqVqkzNzMrpk6dUlM/NnXQXAQlGBWCR7epUoIGWafTkKQ1sC8srRFatwkwomMHB334TbBHpAyg09VgO2uFEo7IwO6cggeBHdSKpUvRdPOFTlu+iaZ7wCS7VslWibd28WUGdpmlS1gbowIH9MjE1KXfeeYf85j/+LzXNpeJe7XsXl56uLjl27E0N7IOD/brfV155RQHUJx/6hBll5vIKptyIkmMzPyhLLwIeXHvGdgAtjIPjmp6ekRQpwHxOxfmWujQDTm0IHrS/ATAR+LVUP2jQzXLZDjuObNDWKB2wMYtLSzKyZasBg45OuXRpTEHQ1fEJPQ+8jzaO3/QCZTxUohLgSUVyngBnABz376KAAf0dL8AZyzDe2elJmZ2e0WOkSIK0JZYJFEDMLSy1BNKpjDW5RrjGmB3cNLBHUIaMtjd19clyDZczZQaSjIhIRGNazMB2Eknz2dq9c6fqF2m8ruxYMa/nmL/dQ8y92gDGnNvlxRUFKaQG2b8DMq4ZB1ytKK4tkxLqXQXA4Trnt6c1WQ5AyHlyY2IDR9b2CCNSADAAkqpcM/n1Vj6AIGtF5C/zT7N+mhw3c+vMFuuxf84jGkBltyqmReSawZfOv0OW6jRGkB8KL/ieNKQu1bJ5tHmFMECtoeO1FOzS8mIjnyvW5ucXayfPXihMzc4VfwgIc4AVBmFu/XCtz9a/F9aTvZvgP3wPDIOtcLoy/HfLqyxYMQweGRsTABCD7UIHRnm3O+67vxjC/YVQw3AAHOu105PvmYjUHshPcgbagOwnOZs/hW0deuKrf3Ty5OhvF4uV2Oz8vFonXLoyJqMnaC2S0qbCCNTNGNWe3gkgsBg4c2P1QLC/fOmCbN+xS5dHd0SA7uxEA2TVikiATMAckWqlpkFc0zqNpu6HVCApFIJdsWitWdC6tFJ1Qbk+/lMwPDAxrK/sV6ZDbrjhRpmfnwMHaLPhTZuHtZl5hAf/ZkOGBvpk7BLC80m54wO3SX9/n2qjCPr333+/7D9wvT6Pl1ZWZXlpQYGW674Ibu6B1dc70GprRKDj+Aiw6XSH5Ap5GZ+clNX8iqaGmAMADXPn1gNow7SiUmLa9xImwwXfynBFDASzv+WVnKYIKZoYGtlkeqmOTjl9+qwUS2UFYVpJp9Wu+Ep1q7bLNVSARH7YPykzXrBcBHteMF9ucWGsYFKmJ8c1Vcy5W1pdkYMvvaKVoprOjZhAPZkyewEtFAjE4/l8TosQdN9QG82I2hKgFcPo16oQDZi4kJ3jpHcirJG6yYsJ8QcHBmR4eEgeeughWZy36knsHjhGKliZG7eNSKeszQ4u7J5WdBCsYv0gfQ4YcjZKNVgNNIOY0mKfATizikbmxDVaqrOLWgoR4KiMoHYkKKshsaUheR+T2Lh2jgAgYpjqDx88XLA+22cMzpp52tM0Y8bM8dnl8at6fPztPmYGArv0ASK/av1FHZxijxFLxiQZMyNh9uWFIDyQrOYLtQuXLpeuTkxWp2bmSmVo1zWB/nrWa32zbAdhYZbMxe7v9tm10pvvVhBwrTtcOD253g6D5cNgz4EYx4T+y8EYzBepSmfIAGb88L97ixll2AZjP4Uo097Fz2oG2oDsZzXzf8f9vvLYw//8/Plzv7e0tJJZWslJMp1QR+sXXzioN/1kymwfllbyyo4RDFTjtLqijvk93Vlt+zM3PSXnL11WkX+13lCgQmCp16ziD62ZWhuoOL6hhqN8DpBBt+VGnAQ3AJmK0iONVqUkqU1nwwi4gCEHZUNDw7Jt8xaZnJmWX7jnHunu6ZJUIi4TV8ekp6tThgYHpFmvSjGfk4G+Hrn77rvk2NvHVOD+yYcelA9/+MMSpXdkbkUqhbxcvmhVjIApmBZ3RcfPjF6abifhY2Y8aN5WVlflwqXzsriyrA74pBRp1s1YrW3NovT39rX6OTKvvT09Os8EcJggBQmVkgwODsnIpi3asiqV6ZCxq+MKkuYXVuTYW8cVgKjVRNnSmsqYdKDNM02SG5C6xQh6QDRgFGgcO3asxYi5BxmpObX5SCc1RQvjefTNt9TY1ypVDVhQpEHvQvbBPjHhxJjXvbJUDxXcBTQ9qMDHU9IGgJwxU9YoanowXl4VqWCxt1vuvfeDsv+6PbK0tKDMmYrn69buh31zjVAFy3VFhSHXJu+5QF4ZuWisxUyq51baNHikgF2rxXUNE2bpaztfrv3ioUBBaCyu76Ovs3my1Lv7W3lq1K0yvHAAU1JegFHW92ILfTAJ3PthnmFbV/N5NX7pgCXtNDBNuzGuP75PjJvULefdNGE0eTdvPgeRtBLjCWRyZqZ89tzF8uTMbGV5NY8uzHtJelPsMKv1w9iv8GfeOsi3YbScVSSG/w4bqa4HedcqEPhRWxE5GPPts88wGAOQAbj8x5uC+++w435bK/Z3jBnt1TbODLQB2cY5VzrS15/++icuXrjw/0xNzWzJFUra7BkGqlSpyRNPPCGrOXNHX82XTLsSmK5mM6TvmjIyPCwDA/2q84JVQgSO2B8wQ+AkpUNwKtfMLJOWQp56KdBzkQa/QZ86GAD3pIJBK1dKGvCUUWoayOvIWp89to17N9t+4IGPvSEkVgAAIABJREFUqeUCqbqHfvFTWliQW1lWPdZgf5/2eSzkliQaacrHH3hADS85tgceuF8++tGPSmdvDz1nRBo1aawsy/nz5+S1117XilJlbIKKNPzEEOCzf6rZ0PagaSOYA2iYp1S6Q+cB8MZ6tBNCO2aFDd2qzSPw/9qv/Zpui6AO4CFNSDVluUpMwb19SHr7+uTK+LR0dvcoIIOFmZyak9NnzirjAvOEUab5rA1pStJbNZGqBBC6OSb6NxefAxYZM5+7ZxPHpKBK6jr+w4deV1CqqTQ97+ah5bYdBmYMVCg4bjSlVC0pWHGRuum1DKA5CMPnDfBgqcKGgnEHZJoejsNWATKjsnvPLvmlT/2iWjFEGuY/Fo9Z1SIb5VqkswLbmZqZ1s+5xry/qFWSmsUK1wYv1lENG025s2aqyzExD6ybDVgmLwSwhtkUm9i4uUbdpoLfaMbCrB8FHWEbDQdhXk3MwwjXMQCMa9uBFPtLa7P1hF1HqYR+BiPs4E6ZsiydKzq0EaNXvoLAiqVSc2pmrnL6zPnC+NRMuVytNOp1FJwtu4owAAPYhBmuH8Z2hUGY/x0GRNf6e/1761Oa65m5a2nX1rNqDvzCYw1rxjxdyReIH/+f36BifsLauA12p24Ptz0Df/sZaAOyv/2c/UzXOHXwr7ccO3H6+bnZ+X0ruYIyZLAmh147IrfccpsK5I8ee0v6+we19Yg/1aMJQ2dTKhSVIVO2CNaiA42YgSjSYDAsmiqKmvaKHocEGFI1BBytBMvnJBFLSDqTkTzWAOrMn5E8xqRi3l2kgWDMGBuBkGDE+viSoZd65+1Rtb3o6x/S7RcLeRno65JELCq1ckGkSTXjfrnzjtvk4MEXNSiTEvOWQYANQOWp06Ny4dw5uXTpsoIZwCnBnKDMvgBa/Ca/iWCetCeu9hqcazXZe91+BWcc86c//WkNro8++qgCELWduHRZj/nWW2/V8XIcVFwyj4AxvKniiYSyIOjGhkfov1mQ7dt3ygsvHpS5+SXV2jF/gMHBgeHAEysetKWq6dwz14AMHPoBx9u2bZG3335bwSRj47g5PrZx/PhxLRxQAHl6VF566SVt9M0xA2jMwNVYN1rukJ5ca3wdk0ighWsBBGRbzTVzVrahuaaISA0gSYukUsUACWnNgJFSG4m6MaqMEfbn/vs+LFhiFHIr+gCQjCfU7w3m1ZpgD+jcj1290mIK2Zenk2GmWM6tUxws0a7LqxAV6AUsIzkyB2DG2Jn2y9OHHCOf+wubEj224PxT0OKCfZ8zrgtAIuteuUJK2Bp/A5q16jhg9bjWsl1Uss7K6rK17OKa8YrSTNBhQdOS1UpzZTVfX83laifPnCteuHSlWIHG/Jt+YQ5k1rNL6wHOtcAWy/C+f+Ys2Pr3XFAfXi68zHrwt55pC6dEfR/rmbzw+Nbv3/VjblvBb18mfPxtrdjPNNq0d/7TnoE2IPtpz/iPub+jz32z99hbb726miseIO0GoCJYHDt6XOgZB9ih7dD3vvuYBg9zZLc+fwRNZwwYBhVoC0uLuj5CeQIOaRZMSFUAjrBj1fRLqh8KBNf5YlF6OnsUtOWWVyWT7dIgj7i5M2PjoToSPzBl2VaWRGKka7K6HwAQAf4Dd9wlS0vm0j1ANeFgjyzMz0gySs+/iHzuVz4rly9ekOeef0Z++Zd/WW0WCLoAR2w10H6xn3K5JIuLSE6sUwDBFGBDIAW0sA7ABqPUF154QQFZpVzT92Fsbr75VnnyySflV3/1V+XGAzfIY489Zt5iQWAGYOIF5k79ztyYRUVEq1yZO3zhBgZHJNvdI0ePHVf/t4X5RZmYnpHNm7YKjdPRXjkjpCApGlMgxlid9TExPeDC2CXGzlj5nPPHOYIpAhgCbNRzi+KMRELBnba3ClrQpJIZBeAAYwASwLBUyOt5YfyqNdPKSUsV8kMHxrVzboC8UjWQUihbVSPzoy2TihVlQWHcSN/u3rVTK2ZhO7FrcENX9sXx0rScF4UOymoFOi9LARcVxDO27qylNo21zel5DGu0SBtqtWegFWMs7ItWRFoBjN6RThFB1aZfu8bCWV9Qq5S0FCUv1uF6d78wfwBxrRfXFGNkPZbhemBsdLboCBqkOxunDFutLpVqpTE+OVWZnJiuXpmYLM8vLdO+aD0T5gAnzIS9W4pyPdDx9OO1wNW7vefgxxkrt5Bw0fy1AJTvZz2bth5IhcHc+rToeqYvDPT8ePXS+zFvk+3V2zOwIWegDcg22Gk7cuRPE4eeOHe0Wm/eZE3DEShH5bXXXtOqymg8rkzYfffdJydOjso774yq/kvb5pQIUsYQEGR40SIJnQ2sDECJdJqzUCyD4zvBDBBEwCMgEcToc6ll/RWzqCBVE0vQCqVXfb/QV1mDbNNbFcolBWNaTRaYrQICyqWGgpGezk4ZHumX6YmrEo82ZNfObXLvPXfKC88/q2zR8OCQrju8abOxYMs5OXT4FZmYGldHcypEASNeYXnPPffoWAACjzzyiLFwxaKmSgnI+JSZiD4r1123X1OVjO8j992vDB9MGilPwA+pUJqvA4IAFc6+3XHnB3TuY8mkTIxTHJCTXKEs+UJJDr32usSTKRXtq/YuY7oizhnbd4CCISjzyBwxj2yP46P4wkGRivenp1u2CCzP+Xr11VdVmA+4GOjrV5DgYKmqrGenAk7YStVzVeg/SbNrOiIAyKzJfJTKPmT43A0aGAcbW0bxgacRARrlihmpAspaAD3ow+haNgT+n/jEgzIyNKD6LkslGtAzCwxLkV6+fMU0XVXzzeMYmJ+5+Rmdm83D1jrK04Sce953iwz3quO6C2vcoCw9fcn8uVaO42d/lpa18Xj6kbnmu8P+SfmyX75DnA/AMMfs7Yus8tIYPcbASzWSTVE/O7VtaTYbFy+NlS+NXSlPz83Vc/l8tVzR0s311YxhpsnZLZa5FiN1LdbKwZAvHwZU68GV/x8GYf63M1T+OwzQrsWmrQdnYd3a+mO6lgbNQVe4onOD3Ynbw23PwE9+BtqA7Cc/p//Rt/gHv/9P3s4XyzcDJrC04Mn+8OHDWk1GAEP/RfAhzXbdvuu1qffLL78qu3ftUYPYeDypKS6qBgnCXu1G0KcqDGC2efOI3H333apLIsB56x8V+ifQEVlbIAIYwY71unq6lZEjwLEODBmAkfERtPDuujo5pSlElkNPVa8ZAKmWC5LpSEi5sCLZTEI++YmPKctycvS4fO5zn1NjTOw8LHVWlaXFFTl34az+4GjuvR7ZL62Z7rz3XmmWy5rCZW54EXBJ+fFSg9tqQ3bt2K2B+cSJE5re/N3f/V0NzgRuANiFSxflQx/6kC5PdSpVjswtPQZTVDbOLyooWllelcmZWaGqk+buM7NUkKLbisrVcfYZ1TTj8pL5UwHK1DdrabFlFMq8k26FDaIfJKCAQgbAg1dgAkzQk5GmVDuPiFk+MP9awdqRtjR1g/ZKI1q8ACDjGJsN2gRxvjh/CfE+0159yLYAFpgDaxoQ01jS1YHqH71huYStRVHtUvgsFk/a+U3S4aEiXR1ZOXDD9XLfh+5VYE5K01OCep2Uivr/9NSsgjCuBU9psx2qJJmXTNJMZbmm+d89xACwgFfrCkBFsDXfdosO5tlYPnuP6lgdZ9L8xcyWo6jzDHPLnJupcq+eB7bLKxEwpLqtoK0T73Od+Uu331TTkGajVm/OLS7Wj584Vbg4drVUqVTruOmv04SF05DhFGQ4teiA5t20YGHWaz1w8n6OYWDF8uH/wzouF9iHU4f+eRjsrWfl1qdPw5qyMOi8lrdZa/r+o98o2ztoz8AGm4E2INtgJ4zh/m//9LffnplfuJnGvBiBEnABTAAhL88nffnAAw8o8FlcXpGR4c1y8OArMje7qGkzK7WvKYiCbfHm2fQeBLRQKQcLAHC46aabFKTwmp2dVsbA00KphAEABO4AK/RkiMwBEJZCEk01wjAdOvSaXLh8SW695XYb1+KylIpVDYbdnRlZWp6TzkxCdu3YIvffd6+cePstufeDd2mQ3Ll9h5q5wuxs3btXSosrcmV8TKZnJmVyekKDKcdEsKYKk7GQoiQ9SQAmeBJMATOAHLbJMcSjCU33ckx8/hu/8Rsa/A2Q1DRVuf+GG+TN11/XMe/bv59milIvl+Xi5SvSaEZlZn5B52zP3n2yvLwq33vscbUH4firtYbObT5vqUcsSRiXC+Orgajcq/0YN6nk4eFBnXNPgbENzgfHd/DgQV2GYyZlrbYYjaYkkjG1paBCs1quKLoCtAFmw6DIKl5hVs3SQrVgwcv+NisG0pS8KjW7VgBmgDL6guaKZnpaprI3mRZ8JdQXjPO9ZZP8w899XpaXF7WllNlkmA0FFa0AoMWF5ZbpMOtZSjWiVirKxhWsDRJieUsNm6M/x+WaNcYG4+iAyebK9oN+Uo8xYlYsAEFAmIvzvWIT3RvXJz8sx3ypQXDAprl1BvtyiwplikulZj6Xry8vLdcnp6ar5y+NlRaWV0hHXsvHa721xLtptK6l47pW+jAMlsLMVxh8Ocjy9xx8hUGYi+cR0vv7LB9m18Lga71OzCsfw8DL2a922nEDxpb2kH+2M9AGZD/b+f877f1f/NPfejuZSN+8Y8cuNZkEcIyOjsrlyxctNRekqB586JOaeiOwk1r8xIMPSSyRlCcef1KrKWFW1Ig1cCYnKMJCEbhI0QASJiasqTWgzPyxLMWGmJ9lFufmrCVMKqnbw7CUlA/O8ACYez54r3qgPfPMc5r+3Hf9DcqKrKzY9pOJtKQzSalT1diVFqlXZevmIfnI/R+SRDIiWzeNmCi72dT1ivmS9s1M9/aL1MpSzK9KqWKu9m7gybi8Uo8gzfEvLS+0ROHOdJDmXV022wTStACmLVu3qmiesd91111qh4HPG9WHpNYAQWjsYM9gX65cnZRcoaLpWYAvzBWpvaFNm7WqlCo8QECj3tT5A0i5KF01TNWKzj9gUDVaQQN1/N1ggHS7i4vKyMFgAsb4zdwxZgTlqpNq1jXFiscbGrHVleWWkS2gCNALI4X+z5kgA6SAL6uoVS81ZYzSNn8BA7Way0skRleBuJoAU3nIZ6VSWSpVq2rE34xt1MolGRjsl1/57D9Qu41FvPLU3sLMUWkrxTxwbDwI9Pb0B1ou0325j1g8Yr0s0eixfQddldJaA3C7dmH6fpAhYy41fYjl++yC7mdmfs5SuwMDLf2Y6e3y1oEiTvuvQsvORd+jlVjd3PvZh7FrpcbVycnK2JXxytTsbHV2frHSYHA/KM5fb4K6Xjvl6cl302OtB2HOhIW1X2HgFE49XosBezdWzAFZOGUZ1qStB5LrGa/1jv5/p/tZe6X2DLRnwGagDcg22JXQbDYj/9N/958fv+Xm227+2IOfkPn5WXn88ccVDJ07d0bZl1LZGCFSVvsOXK+VYmic0DPRy/GmW26Vs2fOydGjRzXl6K14CGRopgA3ABICHgHLXesJpAAEde///9p7zyDJzutK8ObLlz6zvO2y3VVtqg3QjYYlKFFwBAmSg5E4FKUJjTZifm1MbMTG7sTuDiN2Z7BmYjTLGToZckSHGYkUSQEkRYoiCU+QQAOEB9qgvS1vMquy0rvdc7+8hQ9PWd0NoMHqqr4VUZFVad773nmv650+99xzMWw8FKRKqWBmMNZqfOPDTZ67HTu7aN++fRSNxelnP3uEDh9+k3bvuo5yxSLfgOOxppUUd4TCdrS2Ult7E1GtTC+9+BzFI2Ha1NtFe/ddR13tHcYfFgjyelGqxRphpqZEmCaOHuG1bh4bo1I6TQHckBcXmTSJuRvmf25iqM+DBAlCF+ORQ28yEQPxAhnDzyCYIKbbxmSkEuYLIiIjTFOTkzQ5NUWphUWamJqm5tYOcgNmMLobCNJLL71EkXiCy6EgPiBpnIMViTGxYs9ZfbajwdGYxPEe4CdKEkz9wNtETpjyIHxu6BTlQe/1JoDW9jZWSP0oETch7yrA579SKnIkxqbuHv48SA0Id8+mfi4dg6Bx5EXNjEbiaAnEnRQKvB9cR6ZbtUaIV4nFE5TJ5bnLEtl1eO98cpEymSzVyKFqBeVQlxW6eCJGd995F2OYqnvhQM5wXcBLKKSfCShIK8Jp6zMvuUEASlh9VimIKY5XuoVBkAQ/E35rOkLNnEzkkuVZMZycnjJhrAVzPUbiMT5m8aLh2HGuz58/a2IqEGNR7+7EelZIXtXMrJyenS2dOHkmPzEzU0wtLpVzeY7ab0RQbBXJLj96879sM/xqpvqLKWFeEob32pER8rNXEbOVMrs8KWuw/WCNSo6qfK2ze4Yud/0goIRs/ZwrXikI2f/+P/53r+/ec/3uW2/9AGdTPfPcM+yB2rfvep6B9+JLL7DaAQ8Zbr4gC3gf1BqM1Tlx/BQb2BGTAa8TPFZQB0DqcFOCSoIbPm7IUBRAzuwyJW5qTNqa4tS/qZfmF2b5BgbiFk801837Ce5oRAQHwmS3bx/jQefLuRxHaUCFgccMJAVlqp3bt9Oe68Zoy/AQPfvM0zQ5NU7Z9BK5AT/1dvewMbyzrZOJWV9fP38OhKavH4TDjK6R0puULnHTjcejvFaQTShLxvcW4LIqypmnTp9g4obYB5BNzMvcu/8GGtwyyqXJpdlZmp1b4PcggHcpmTJlN3+QmlvbiGouXRif4m2hTIY0fn99XM7M3PzKTR6FLC4TQwHs6+McM5lNCSXGRIuYTkSsG4Z4HCtwBd44f08//TSfJ/yO48BxgXShEQOzPoEDlDGMnvL7aowviBrKrmM7d5ph6csIs0XQb4CvC3we+8DsUxCdWB0rXD+//NWzrAaOT5rMMJQryxVosggqczjeY24haYzyZZM7hhmoGFx+474b6Ib9e1dIejQa5vOF9QPnc+fOsBfQDYb5OKQbE35AXh+Z3DIx9dvnVrLg8AiChutOgo2xHmlsAC4gXSBYMr7IdFIadVZCk6VBgTsxMQYsl6tlc/naciZTOXnqbO746XP5XD7PnrCaGO/eMuhz5dQKXG2Uv7VaDphtxrfN814lzOsBsxWtRiVItEh7y5GNSpJ4TtQ6b9yEHf6qJGyd3Sd0uesTASVk6/C8feZ/+KNXa+RcD7VoenaWFSrccBBvcP3uPTQ42M+lQ9yI4I2JxiImaiJXYOP6m8dP0BNPPMHlwv7+Qbrx5pv4JvXMM89wUjtu+OKXkRR13BA5gDafZ18YvGMwRVdrJe7wg2GdCV00wo0D6ADs7xtgpQzKBFLvXT/mXy6yr0e61ArFHAUCLnflwQPX1dFO/QN9NDq6xXRuuj6qlsqsBIKwsFpXISaLON7hwT7uJoTqIs0DMtRaxjghZQBkBCU+PIIUoHMSxwI1CKogdzk2t3DW2M0330xdnT0cUwHfGlQdTvEHaW1t53FVmKEJgnLq5DmanZkjx/WzmhSOmiiEzSOjTOLMgOkSdbR3MvFBOZml6fqIIJAHEBWToWUCUUGGoQwJCQFR+OEPf7gya1NGUOFxePMgRUNB4zdDObFYoK7uDnJqVcbxn3z8E3zesjmjHC3n8kyUT50EIUIWnZ+jUloScSaKm3p7V+ZCAhOUYF9/4xAfvw+juMgHuxqTKccN0nwyRamlNJv3DSEz3Yw7to1yiC+OBwqeRIZgn1Bu0WjCSfzxBCGaQ663as2ULkHwRKnC+0QBM1EVZT4WvG8xaYz5eA7kK9Hcwkogh9aGQiu+MNOMYlQ0fOM1rBfrwRfen8lkq8lUqjQxMVk6ePREdjmTBWHh/wdZHZLyu7d70OsLszsRvfETdlnQq4Kt1g0pnjBb4bK9X3hdVDFbKfMa/G2Dvh23IWVXOb51+JdRl6wIrG8ElJCtw/P37/71v3z09OlzdycX0xQM18lWPs83JoyIGRvbTtft3s1m6jcPH+GxLiAaKLWBeMGLhZsmFJ/nn3+BFuZTtP+mG1nZmpqaYTIlJvhAMFQv+9W9QrUahaIR6mrvomRynktj3T1dTGpMiTNHu3bu5mYDlOAmJqZMrEVrO/9sFKDAyhw/eMihBjGhLJUoEsIN08+/+30OdXZ10FLKdH2C2GHAdnpxkYnVgQPP0JkTx+gTH7+Pjw/HJOUvdEReuHDOdJ1yacvHHZL4liwzDNzGFzrw2N+0ZFQ2zLiEOR8NAMgRg/8Iih7y3QJuiIna+bMX2MgfcBEGipFIed5/MBxlcoT3c+efY0qBaJYADkwiFhe5GxE/o5QmjRiiCEGRhHBhgl597APETEuQGhARECWoP1xa3dTDA9y58zARJ79bo47WFrph31763d+9n9fIvjCMDnJcGv//y6yf//znaSG5aI7dIZ5A0ByPsZLW093F226OJziVH/t78+gxjk85c+6CGW1EpnPWCQQpmyvxPrjsxyVQUz7cMjxId999NxNEEFSQTpBMHBOI8fGTJ+oeMRMjwU0DHGTrrnRMipEf20ZemVxfkpwPfJH/hf9A4HrAN+x02I6UqyXqQsJiuYu03jnJjQvFUm0hlSqduzBRxPzImdkFJFR4A1u9XYTyeiPDu62G2USskQLWyBNmx1IICfMSL/t52wdm/2wrYquRsIt1Qa7Dv4y6ZEVgfSOghGwdnr+//M//x7988aVXvp4vVtm3BIVibmaWydA45kE2N9NgXx/7ojYPD7IxGn6p/oFNtGNsjMtrm/p6mZwdPX6C+voG2ASN9HzcvBHzgDgBkICDhw6zyoY8K3TWYbgLiIAEbeKGiHFH0hwApQo5VydOnWTlBUoKbvDjU5OsjIlPCd2SICAwlOOz5ucKLaVSK6XTdNp04mGmJV5fSoOY9bIiBtP4+Pmz9MQjP6P7Pnqvmb+ZTq/Mf4QyBWKDchh8cCBoIAwgo3hOuhZBvjBfEsQDhBGznEHCgCXmeba1djARw3oRwnri+EkmGPAuGVO86erL1Od5QjUyni8TNArSh9Lj1MQk71cCelfiIFwTDCuv4dyBeE3y0PAQK3kgyCAbIBnAyihoCWpqjlMxk+NSZTwWZRM/lMbbP3grx07AM8eki4mqS5jTWK766DOf+QxNzyC9n6ittZmvk/aWZsYuFo1wM0NfbzeXRZFFBmxOnz5Djzz6OPvJQMq4QQBzGEHyJqeYEHJXbV0pG+zfRB/5yEeoWi4xXjD1S2QESPnpc+Z8hENGCTS+eHQymjmZ+DKeMBMMi6R+lJlBuEHMcb6h/MGMj3OFNeL6wX9CoNSK4mhIngm6Za9czRC2ianpIjojz49PlJCgjyne9XKkl6Q06iz05m55oypsdczuWPR6xeQ1bw6Yl2Q18oY1Il+X4wlTJWwd/s3XJV8bCCghW4fn+bHv/1n7Q99/ZBbzj7eN7aLHn/wFq0Yoo2GYMZQp5FHhxjXY38fka9u2UVYoXn3tZSZkGAQNlaK1vYNv2CAN0WicHv7B9zk0NRyN8Y15bMdOHm595Nhxvsn1dCOR3kdLS8sctVDMmS7NpqYEly0xxxBECuUj3HAR34D1DAwPseFaVB+8hhst9gtvF8qnIARQ2iQ8FD9DzWhrMaOFQPTgRerp7ab9+25gde7gyy9QuVBg8geFB8csMRcgKmysTya5RAYCBWKDfaKzE8PFF1KLlMmZGYXoccEYJCheLW0d9Uy1FM/6HB+fpMX0Eq8NGZ8Y8eM6RHFWuvIUjSeYiOUKBbPmNmSJmXFDIE/ADmQXw9KhKOE5DrHN5t/mZQJ5MOGjVSY5P/7xj3kbwArbA9kAdlyWq5aolEUmV5y7Na/bvYPuuftOCodDFPD7mJzguEAScW5BPien5+iBBx7gOA6ci73X72FMoHsBu1tvuZlL3pVSiY+H1TvH5a7Y555/gV5+7VXurAQO+UKRfP4QLaaXKTlvstuCrjHEd3d20f33389kGOcD8RJ8zGFDWHHO+Vhdo1Jy6j4GcLuGhOGc4fgRj4HXoCQCLxByYID/FBhMk6y64hvbMyXwADcFmP80cCm4ll3OQgmrnj03nj9y/HQ2k82Vq8gQQ2TZW8nw8vPFYioaecS8OWJ2l6RNyBp1RtrmfDsPTAiXzHm0PWG2YubNDfOWTlfrjFyHf/l0yYrAxkZACdk6PL8Hv/e94Fd+8q2zxYqvZzlXIpQuZ6amTHZWvmwMzhw+GiYkqMPYPjIyQjt3bafe7i568aVf81Fv276db5bIBkOYKjr4QCx+/KOfsBF/aTlNLYkW+sAHb6d9+/bTyTOn6fHHnuQbI5Swnp5NdPDgIeMFCoaoubmJb4hGgTIKGAzcIGgoNQYjYZqZnOIbrnh5OOW/XKF0apGHb9fKNcoXi1QpmlFM6AI0XXkpJjJQWvDZkdEttHlggNLJBTpx7E06f/YcpTNpKoMoBV2etVlgk/sSktPJ8aH7L8EzNyPRKPV0d1KiqYVqKDMGg9TV1WP2s2wGrKPZATf9U6fOMBFDZyePgVrOMkEAueBOvEqJ529CNWKfUijE25OuQSiEIJIoYaILscZeJZPjJt2NsUSiPsw8zj400xGZYDKGbkeQWxAUmRIAAhUOBnmWZzgY4AHeA3299Ief/n3K5TMEGtLdA88aDPtGfcI4JL8boNnZefpf/s3/RoVimUndDfuu5+wwHHtHextt3TpihpKHTbcjxv8gjw0jktLZLH37b75LqaVlWlrOUDgSpWIZMy8dmriAiQlFbi5gP1dzC336Dz7F5AslaZwzdFoCQ1yforKGIsbQj8+AsC4spEyjR73BAVEjINCJeDPNp+b5uoDvDetBKR7noIRYlLoHD+ObsP5sLldLpzOVVDJZTi0uVY6fOpOfmU8WqmBhb++OxD+FRkTMJjaNOiRXi6xo5A+7XF+YTboaETJv52Sj3LJGERxqyl+Hf+d1ydceAkrI1uE5/973vuc/8sKjnz19+vT/5AQjND4xzQOsUfWBuoWbsKgbAcfPswYRGdHZ0UIjw8O0/8Z9bJg/ePgNPnp/Fdq8AAAgAElEQVQQH5QpcfNHHAVmOSJrCplTJZi36zlZyCK78cab6eDhQ2yGByEDGUS5syme4DIgiISUpjq72qmjtY0N4TfcsNfMZWxu4TIc1AyQGrzXDQYol8my7+zk8RMUiUV5e6mlRUovLvENGTd7KGY+h5ig4PhAMm+/7VY6euwILczOUXIpSYsLi5Qv5cn1ueQEHMLxw/OG2YjyWKEae7g2DQyS4w/Q7LzJqsI6kwsp9tFh/qd4zdKZDCtMIBXo9hTVi4lXGcGoQT42rBEkh2cy1kuFOCdmdJCPCZKUbEEkQLB4AHcwyHiDhECd4wHmk9PcZMGdmfBXFUsUDLn8XnRPIiAV5AMlxpamKP3RH/0R5bLLNHlhnEZHtrBBHwQQkw0IAakBhNRWmGD+h//3P9LSco5uuWU/tcSjFIuEaXR0lIYHB9nfhTVGw8YQjz8QIGapxTTHXTz/0iv06ONPUs1xV8JvUcaenJyulx1xnDWO27jvvo+yiieEjAOAUb6th/XieimWq0y0udO17iWD0tranFhRbvE8iC2TrQAUtSorlMCO52kWCzzLkxsDqtXq+fHJ4lkeWzRfmk8uFiuVhon5ti9MSIxNwuwRRjb5sjPEGqXZe1Uw7+9eFQxkbbWSpNekb/vL7LJoIxIG2JSIrcO/77rkaxcBJWTr9Nx/+yv//p4f/OjHjzhBBKvG6NixE7SczVGt6mdPWaV+g0dNhs3WMJZHMJLGTwObNnG3JTr03GCQy5hQIPDcc889x8QEQ5Zx80cZT8gGlC/sC0O4kbcFIrWQWmbiBnJhTPlham9vrcdT9FEHh8/mKBaJ8mideLyJlZJyyXjHypUKtba18E0cXjOQAWwHpARERHxQMMrDM4QvTnpPJnmAOAjd7bffxvMkq6XSSmcijwqqGbVJEtp5pmbWdDnymKLlNBvVMU4IZAplyUK+xMeCtHoxo0v3JvaLhgPxJGFbKA1LnAMH2HJ6vAkTFTVI3i8ZY1K2RQo9iDGiMMA08ZlKxQShPvX0r/g84NzhWKE8wTMGogSChHMSjYQoGg3Rpz/1SUJg6suvvEg9nV20dWSUyWokasqBGaT1h8JMvKdn5ujf/p8PUEdXJ+3YtpUCvhqNbhmmsbFdphsTx4SZmnzeM0zITDdmmHyOyyXPr3zt65QtlKhcN8hj3XOzKVb+EECM9cHU/8lP/h6XJhGtgXOOL5QbQawRDwISPJ9MclxIX+8mPp8SWULVtxRExrRs4jlksgC8YMATvjg8N7eQLL128Ehucmq6mM5kytbsyNU8YRLW6s0Ns/1h3pFB8po3qNVrzhcSZnvE7O5Ir0cMZUkvMZP3eOMqvKRRPWHr9G+4LlsR8CKghGydXhPP/ux7o9/+m79+cGJm7jY3FHYwhghenqVFjH5JUyhsSkOGXBBlltOcTRUJBflGDrLQ3d3FisjYrh1cUoNXDJ2FHG1RH76cXcbNPMQ3PZjP4eH54z/+Y1bRQuEoJVPL5OMRNyHK1+cUsurlc7ikJBlg2B93Sja1speNow1qJpoAigluxlgvFCZRpnjWY72jEjdf8WJxBEN9uDNM+LF4lPOyoOBh7dg2bvZsBl9c5Ju8hN5iOyBowAXvgTqG15D4zuOgCiYegccCFQrsrzIEMcvbwWt4DmoVP58x5VfsV0ipdPaJSiaXmCT0S+goyB1mUBaKeS7/me2UebTTMweeN92ApbIx8ocD7NFDCj93wMbMcPh7772bGxUewgD1cokG+/tp164xGtu+g98PF3u+Po0BTRnnL4zT57/0RZ5TimaMkN+hkc3DdP2+G2gxlaZEi8mGAwFEvgiIH46bOz99fsoXK/SfvvBFzl5D1IfM68R1xxMb/CFeX3tHK911153kw/zLYo6VUzyPc4qpEiD8wHtgaGhloD3I4MLcHOOKcjtns5XKpnuV/3NATDzz+XytWCpXC8VC9eyF8eKbx09lU0vLJahjdaxtxUj8YN70fHsIdqPIClGgRBGz1TB5zS5FXswf5s0K8ypi3pgKWwnzliUbzYpcp3/FdNmKgCJgI6CEbJ1eDwiI/fZX/+SuH/74Z1+o1WjMcVxnfHKCb5jw18Djg9wxUZRwk4PxG0Z0EAGjMPi4zIjZg6MjW2lwaIDKpQqdOHmcxi9AJUtTPBbjcpLkREFFQ3kTXYswhs8vLFEIylk4zESoUinzjTSbXuZ9t7aZGYUgPRzU2dyyMp4GShqeRykK7wGxwDpx85fZjlDIUOYSTxHKXlBdjDctTdOzM0zqOJy0PssQ24MnDDd+kCCsH4QQN/bx8fEVUzy2U/UZRQ4lSh75lC3UYygc/gyUOTPJwEw04FJjBCVGc5zolpQuQR4dBBN9PekdJE3UMLM2zI80qfTiMUPbKggZ/F1YKxSyp556itIZM0YJhC8SDdXHK0W5tAtlDV64HTu20x133EEPPvgNOvjaIeru6aCb9t/InZa33nwTk+0AfGuYDVksskcPpebHn3yCdo7t4v12tDTTh37rgxQKx42Pa9n4vfA1Pz9Hr738CpczgXeipQUlQfqb7/0tPf3LA4RKIMq/yMPDNTczg7Kjj/PmNm8ZojvvvIMyS2lePxoMkI0Hggy8N28eYcJoRjCZyBBgEgoE6hEajnne59RjSxycl/L8QqqMeIpjp87k0iYnbLW0/EbGfDvAVYz4jYiX1x/mVcS8njAhTY0CWxsFt14sUV+Inb0um1Taga3r9K+XLlsRUAQaIaCEbB1fF7XaA85XP0cf//mTj32tVKx0BkJhWs4WaHpqltWyUrFMeUQdlE0JDZ10UDyqlTJ7qkAs0CGIUiIUMnRiojsQCks4GKGpqQkuTeKGvlRP74fJGkoUbtYos80nlzjYE2RCSoISyAp1DMoGSlmSMwYFTMhMPBFlVQdECKoTCBYIH3fLFQpc3gLJwdqxbjQGYD9Q8UDasJ1oPMY3c9zsQdZ40DVVeVwU1g1Sw56oaJQVHMRYIEgXn70wfo4GNw/yz+jmYyWxbrjHz9LxiP2b1P84IUlexh9B9YFnTcgVHiW0FWvB71i3lCw5l6xe0sTPXEque9KAHY51amqOXnjhBQqEDBlE0wDWjnw5eLFAaGFqB2af+tQ/o189+ww99thjVClVyPX56I7f+W3avn0rjW3fyqpjGCG26FDlIeBBHkJ/4vQJwmB65Mht27KZh7FPTM5SDWSx3gQAlezBBx+kUjHPQ+qFlKFB4sCB5+nhH/6APWWFYoX8wRCXeuEj89VnUOIaueGGfezhA2Yof6LrFXEqOE546oANp+1jUkDAKJT4HY9BDtqtoCGjBgJ2+vS5/MTUTGlhcamAxHxPWKvXD2YTL68StlqXpG3Gv1hw62pKmO0NE4WrUX6Yt1y5mhrmVflw6agnbB3/vdalKwKXQkAJ2aUQuspff/LJJ93DLz35qccff+zbS+kMtbV3cfjnzPQcucEQ5YslQjlTYgVQJoRBHDe+YiHP3ZBNIBplk4bf3t5J3d2dNNg/wAoG4iTQ4fjqK6+wMoVxTFC6ZmamKRgKUyZT4FKWlOGwHZALjiqIRFaCTHlQc/3GC4IC4gNC6DpmsLfEGOAzuBGDjIn/C+QDN2yQQWwDhAw/w/OEshlIHsgASpRQsfB+NCiwtyuTZ+UNShsIH7xURhHLUblcokA4QG7AYWXMKFQVfh1rFJO+qFsgkDgukEWocFDufFXTQMHzF0ulFd+arF/y2UQV8xIyEGL2QhUwNNulJ554iteZhRmfnWyGTIKgwIvX3NREfr9DH/zgB/lY/+LLX+H35bLYjo/Gtm2jD99zF23q6eJGCiTng1zB2A89C+cQJVEQYOAz2LeJKuUa+dwAlRBbEYrR5PQ0feELX2AM4TO87eabOHh3cGCA/K7LQbXf/e532fSUL1S4w7SQr3BOWCBgRj8hMqWnp5uKeRNXApKMZgwQMUNQjWeOs9zquOOaABYBv0unz54tHD52Ijc3v1DOFwqVQrFURlOrJzHfJl62F0zmTIoHzNslaRvivZlhEuBqB7k2Kk16PWGrKWGN3uclYfYa7JKkkrCr/O+vLk8RuJIIKCG7kmiu0bbQdblw7tD9v3zm2S/PLSQ7m5pbfOlMgU6dwdBvY8pGeRFKCZui66GbUCyQ14R5SUZdQsgmku1zFAmFaHh4kLo6OpnwQHXhmYABl44fP85kAON4ULXDOB0TyumujKORYdCAREp3piMO3jGjDsWjUXKoxjdl7B/EQSIQoICZ4dbGZwbygC+QE5AK6eRE8CriNJCyj3WK2f/MmXMrxMoM4zbJ+SXEJgQCTNIwx7IJY6L8JsRVhkuDPIE84AtYyAgjHL/xiRVW/GRMmepzKCUsV7xS2KZRwQw+dvlSgktB7LAekDH44GDmZ2M7x5ZEeQ3AAplriPxwEFGxqYfuuusu+vZ3vkOHj5ygsjkJfF77ezt5huSusR20Z5dJ3jeeQKTSF5m0jo+fZ/UMxv/ldJp80E4dP+XLZZqeTdLnv/gl7oTF2ltammjf3uvolhv385zPSDhEbx47Sl/96lcpkytStlSlcDRKlSIx6S2XTffo7//+p5honztzivHCceILpXIcF44X1yOwAV75QrGaXl4uv374aO7chfFssVTxzo20ydjFcsK8fjBvRlgjMubtllzNG9ZofNHFQlxt1cwuRUoJ1G4g8HrD1uivie5WEVAE1goBJWRrhfwV3i/Kl//tv4Q/ceDZX/9JOpPdNjU950iKOggTbsZQ0HCThRIh5AKmbhAfeJLS6SVWpkAscpjVWClyqWxgoM/4v1qbqb2tjY4dO8olLHiIMM/RqEnoasSoH5SaSlyagm8IXAElUcQW8M23rjBhP1Cpwq6fyRWIAssB9TgIkAgmgMEgfw6qkfjERFHyB0AYWiiFIeQgD80mMBSv42YPcimp9um0SfvHtkAAw6Eoz8lEZheXTuu+LknSh/rFHq58diV0FGtCQwITizrJQjlYPGzYvpAM6agUMmfS+814IXzhZ/OaKXMCNwx5n1tIsecNXiqzPwTIBnjoNchQIhahW2+9mcnmX3/7O5QvlJkQg2YD70q5TL91+6089H3LyDDduG8fhYImhNeUBytMWqF+QmVMJZOsIgYw8mkpTf/hP/5nOnr8GGWyOXL8PhoeHKKxHaO0Z+cuuumm/eR3fEy8/vTP/4yHi5drLrnwD+ZLlEou8XUQCATpD/7g0+xVLBUKNDMzxaVZEDF04ZrSJJL+c9VkarE8NTNbPnb8ZG42uZgHC3uHvrBGhvxGsyMbKWHyPm+avt0laatZ3rKkPT9SfraVMju01btOO/tMfWFX+O+hbk4RWI8IKCFbj2dtlTU/8MAD7r5tPXc8/ctn/tWbR0/801iiieaTSKLP00IqRYVCkUcDsceralSbAMctgJZgpmSWb5aJpjjfOKFsFHI5vomD+KDDsqOtnWMt8DvIC2IHTCyGyYUyo29ANjBSyMeGb2wHv/Ng6JoxtONnLl2VDKEzWVxmnqEEpoLoyO/yGggNiAUrTjWjurghQzIRqirlL8PuzD54v+XqSmnQlEDhZTLBudxdWVfIsG1TsjTkEFiBSIBUCrkS0sZlXyYgULjMMchnhHTZZTkJg8UasT98Hh4/8bg9/PDD3OWJ/aOMDBKaiBmyiOxZTEPo7e6kj370Xjrw7K/olVdfp6nZFJUqVR5ZBOKGDLLhwX6KRyMcDnv97t08bByjm3AecN6wRumcjYZjPHlhbj5F3/hvf0VPPf0sFZB5Fg6xnLVj23Ya6O+hXTvGaM+eXdTS3MRxHF/84hepgPJu1cfjmHB+JyemKeSGmLzfeeedlC9kuYsU+4X6yvEmVaqdPHW2ePLM+UJ6ebkyu5AqFDC26B+b820V7HI7JL2zI1fLCbNjKkCUQKbkEa81Mufb6tjFvGHemArp0mxkzFcitoH+/uqhKALvFQElZO8Vwavr8zDn+D/3wL8Zml1M/vOjR45+pkIUdkNByhdKHDYKdQSeaBPlYEpqZswMyBNysEwQKZQQHokUi1M2t1zvdKux2R/jkDZv3sxeM6hUklOGz+NGL34qbAelRiEy3I3oM6N18DMM336fiY8AoUEZVMqbIEJQqeSLIyDqqQZiBGei5ycKx0CYTKcmlBeQHWwTx4LtoutPiJpJwi8xUQQRxYggrFsUK5NzZUiirMGQrLcM6FJWNR2Txvwvxn4ui9aPR44T65D0fhwP3r/yHscodsjmeuKJJ9jPhe0jKR/PI7QVZDDg+qmzs51uvvEG2rFjG504fozGJyZpam6RJifMLEkQHmSLDQ30UaVcpGKxQB/6rdsZl1dffomVPqhiIN5YE4hmT1cvZfMF+s53v0c/ffQxTt5HMG80EuNpCEMD/dScwPDuNtqyeTN1dLSzV+yzn/0sq2gVf4BHK6FUCWXPXwtwKXTv3r08Rmt5aZEJfCgcrL32+pHcwSPHM0uZTLlYqqAm6c3Q8pYiG3nE7DKft0PSjqNoZMxfTQkTEiave0cTeedGNhpdJCTO7sjEGhqVItWcf3X93dTVKAJXBQJKyK6K03BFFoFzCUIGiSo0MDAQ/+N/9rHfG5+a+O+zucy2UrESSKWXuTxVKJnxSj6/KWXxvMJ6fIOEmzKJQhK632SMGeWoQIVsgXOlQDAwQ3H37p1MnOC5kjwubA8/g2CBrIlKJOZ3ISUm6d7cm7hjMhplEoQSJkiDkDsQGyFh0okHUgMSQk5tZT4itoPinZAzIXBQb0BG8DyIGIz0KKnidS5fclabUe1EnTPqF5oeYrwmHBPIJQgYCJOofNI5KTEd+F2IoBAy8cy9Fc1h1En2nPkNOfvVL5/leZtYA0d0gLCC4AagCCJKwiEM7P7YfR8m1/XTUjJFmXyeMvkyXbgwUQ+8rTJ5GhnZzOSpra2VxytxYGshx7gCU3Ra4pigdN17z0cIfruvf+ObtJwvUKK5lb14mEwAAoj4it1jO6izA7M5DQ4g9V/44pdoKZOlGjkUDEeoUB/ZVSs7PIarq6eTFlOL1WDArU7NzpReP3I0PbeAkuRKp6C3i9D2iHlJ16VImF2O9Hq1Lpacb5OoSyXoe0mZraQ1GmGkMySvyJ813YgicO0goIRs45xrnEvUHhEihVh0OMKjH/jADYPX7Rj9V4sLqQ8vLS8nwNmyhTxdOD9BVYIaE+ROTHRecnJ+PXpAyoLZzDITEPwO4hKNxrg7ER6zag3lNZSjgtzxODAwwN/cfQg1rArih+T3KKtiuJlLwKeUzWpo0uOSosnvwntAzOxAV3kvtinbwHZAyNygn71OErXBmks9zf+tjkiQLZPHJUG5eI/pijRdf1DFZEA1FCkhgELasC2sS0qUUpIU9U+6BcWjJh4z8YwJURPCK9EZNcfHpBjzQxFUi30wUUMmVyhAvlrVlJADLu3bdz3d++G7qVwu8OtoUJieT9JCaomKHIiL7tYa9fVvop07xqivr5cOHTrEWI5sHuJmCMllA+lCt+Rdd91Dr77yOv3d3/89hVnN9FNLexuXHREOOzQ0QDvHdtDI8GYmc5Mz0/Tcc8/Tn/7Zn1EknuDoC8StFPIoXRdqlVK10t07UM4VcuXZufnCfDJVyOTyJUsNa+SdaqSMNVK/bB+WTYK8pUn7d9sD5v15tdKkPVNyNU/YxUiYBNSqErZx/r7qkSgC7zsCSsjed4h/YzvAuYQ6hkhzSD5wn/N3W1tb++999I77Mpn0nYV8YUckFnFTyUUetbSYMcO0JT8LN1YhNyAVMkRbRhlBYYK/yr/ScYicM1MiFDKHm30v5hG2NvO8S+R1CcGD4ibRGHgOChQICYgPZ6X5jdeMQ0IxJDqbXSFSQtzwvATR5gqmU09UKTHni4qF7b2dHL3lV/NGUWC7phHB+M1qVKVq3ZcmWWSZjFH8pLuSExzqCp94yaTD1ChyJmRVOjHxnO2hw9BvzHJ85JFHGBeZ04m4Cx7V5MfEgyg1RSP0sY/dS2M7tvPEBdfxU6WGeaM+Hj+Vz+UolzMeQJAyqGyIFYEqhu/t27fTT3/6UzbkA8fRkW2MC2ZnYv9PP/1LSqZSjDnej3M40N9HzfEEx4KgaSAYinAQ7EsvvUwPPfwDisabKJND564LQlabWUgv5wrlXLlaKRVgVvzHQ7vt8l0jj5hkhnljKrzky5sZJmXC1bojUWIURauREibPNSpVekmcN0pDk/N/Y3/idEeKwMZGQAnZxjm/7B+rkzEhZHE0EeI7GAwmdmzbPLhn++Y7SsXCnYupVCLR1ErZYoVT/VHWQnkReVZCGvCI5wxRMYZ1DutkwgK/WIAC7ltlPhARjtgoFXlkDuIk/E6AmlsSTOxAzDrbO1hBgxIEMobP4Nv2cUkWGE6NKFogWNi/kBz2vsGrxQGipoNRPHASwSE+MmxDyobo9sTx4HcheNJQAEUPRAy/uwG/CXWtlzsl0gKEzKh8homhnCjqn5A/UfuEJOJ58ajZOWf4uebz0yuvvMJjqyRuA+uOANt6yRIJYn293fTpT3+SmhAZAVx9xMdRqToEjyAINYgxvjDQW7xsWCsIL7oqEZ6LcuPWrVupKdHC5xJBusBhcmqavWE4L9gf1tDZ3spDzO2GC8y0fPbXL9Ijjz3BHa2xRJw/PzOXzpybmp+pVqF5/qP0fDuc1RviavusvCGudmSFrXpdTlZYo4gKm3BJWr43J8xr6rf3JQqdkrCN83dTj0QRuGoQUEJ21ZyK97wQkDEhZAjtgjoGMpaw1TLHoWh3Z3v7zXvHPloulvfG29pii0vLDoY9o6tP1DGk/JsIB3ipilSumqHe+Db+rSL7k2KRCHfQGdLmcs4UCIFRzEpULZn7LZ4HkcB7QDTCwRB/pn+wj1UhxGCAOEG1kUBZbEO6AUXlsr1bIBQgdWZkk8lBE8IonZDcPBAIrIw3AlERJYuVrarZB0gUvrncWSdDnN9VP254x4zKZ/xsMN8jNgNqlG3kZ0JUbybA87Z/TNQy8ZsxRlWin/78ZzQ5PrHS/Wgy2kzAKnLaXD/R/n3X0333fYRCfj8rViBkwAvrKVXMvEtR64DRUmaZTp06QdvHdnDAKwI+gNX09Czt2LFjxa+HyQxcknaML67CwhZP8+bsM7eenM+E0nFpOZOjb/7Vt+jYiTMUCIGYVskNBKpvvHn+XK5QAslpNEfSm5wvg71tRexSCfq2KnapmAopRXq7IYWENSJjdkSFkD/pkJR1eoNptST5nv9s6QYUAUVAEFBCtjGuBdvQD3UMhGxFHbMIGXxleC0UCQaj+/fu3DU81Hfr8nJuOJNZDkIFK2KMUDLJZcxS2QzYhm8KpSpEZYiaFQph/E2FuxShLInxHkQLg7dXQlLLCCSF58ncu0pl41NDCQxkiT1grilTokyGL4S2wlSObk6QtaBrCBX2JyXNCoJGqyBHRilDw57EZBiFyk+ZbJYS8TgVscZKhXIYTwQDP0gaRj0VChzvIOVU9r3hmOpdkVgLFDLjXSvXmxsCVEGQaQaNAS75HBPTUS1XuOMUxBMECTMYUVKU5zEkGwQGpcZytcLHhPeVKjX67t9+j9KLy0zuQHxAnGKREJMuBPHCqH/XXR+ifXuvN2Vd7KSe2eb4TAmYO0xdHyudUO3M3MrDPFnh5OlTdPrU2fqM0Ar7/SQnbXR0myHZPj9n0aHs6WDOqWPCcp064eRzX6nSwtIS/eVXv06z84tU8xFPWihWfOnDx8+dL1drIDVeM3sjg74QNFHAbG+YPcy7kVnfa9Jv5Au7nPmRtjJmq2924n8jtU9J2Mb4m6lHoQhcdQgoIbvqTsm7WpAY+rnDsm7oF4UMxAxEDL/jEYQN78FjsK+7o2vbyNC2rvaWvZViuadcq/oLxTLPwswVSrSczfBMzOVclst0GC5tCABmDhYpHgMxq1HQ77LChi+U++JR050YAUHjbkpQugrnm61kdTk+yqNjk4d1m+3ixg+FDAocto9B5ohxgLkdJCyfzfB2eIxQPEF9fX28fVHVJPICvibsMRoKk89F0G2O0iAr5KdAOMTrzeRzFAiGyOc3TQWsSPmM3wsEhYlZ2PjYAuEI55qBiIJo1TACgWoUdECisG6sr4rwMmYkDnep+jg931efjuDCT4ayKzosEatRLNP49Bz95Cc/oXwew83RAVrk7tVQwE/hYIAiQT+1tTTT7/7e/dTb20PhsBlgjm1BHZPmBjyHAFiUWYPBAC0vpWjTph7e3pFjR3k+JkrFbe3tjNnBI2+yr2xkeIRcP0rPZqIAum2RaQb/HCuIdR8cQoAL5RKdPHGavvr1bzAp5ckMfn/t9IWZ8zPJzHzN+LQaKWSX6pK0lSgvCbMzw2wyJiVJPNfI+2WrYPYwb296vtcTJoZ8+ziY/76rf5n6IUVAEVAELhMBJWSXCdRV/rbVCJmQMiFkUMdAxISUoeYUdBwn1NXW3DE2Ojw61Nd7YzKZbMkWy9TW0UnJxUWamZun5XSG0BGYTmcoi4R9Dm01njHcqxIxM+QbN2l+DjfwgknK96Ng5vez6oLSGYZjw1tW9VWo5tQoGo8wEYPBfGEhxSQAHYFQkX77tz/IHYJQiyrVIuVz8Lpl6Lrdu7gDsDnRxIoPyosmdsPEMoBk8VDtfJG9TijJmnKlyUnjcqTPx5EN0hnJ57hqcthA6KBkYd3lCvxpIUpnM5SIN1M2n6NSAYZ9P2HSgQ/9qvXB4ayqWfEZMnFAUvolT43Lq1Wi114/TM8+//zKnM9qtcKELOAjCrg+aopHqbUlTvd//BO0ffs2WlxepmwOo4iITp05w5EXi4tJCvj97Onr29RD+/ffQPMzs7Rt+yiXlTGSCWtntbEetjs+PkmbBgapo6XdlHv58yFyoeyV3irfcjwHZ80VqFSp0KOPP0FPPfUUY8ehuz5f7ti52ZPpbGGpTsa8Zn1vQv1q3ZN2qKs3uFVKlO82psLuprRjMYRA2p2fQlQ4rMEAACAASURBVL6UgF3lf/R0eYrARkNACdnGOKNeQiYeMpuQSbmSS5b1bxAy/IxWQP4OBPzh37n1pv1dne3bS+VyIpcvBDGrEGb21NIiZZaztLic5jDZYqXMCg2Ij/i4xGMGZUoCVFEu5OdrNcpmEbAKpSlMRYxYChhvliFkMPkbQjQ3N0/RUIg+8U8+Rt2dHaxCwWxeq5RoZmaCPnbfRzmYFqN54GGTEFd4siQ6AkO0s9k8E7SlpTSraPFEM5dG2ZAei9HswvxK3AZHXBRMlykUQBAQrA0klLPUKpjbGONRTUF/kKLRMJWLhRUyJqTMJmfSeSoeN7sxAYrjz37+OJ06e3alFOs4Pm5+cKogSURB16GdY1vpn3/6D+jgwTfohZdfpgvjkzQ1NUMFlGorFSZaZhh8J+3es5N27hyjWrnCSflQEjGMfdd1e3i2ZD5XZIUPxz43t0Bf+fJX+dzFIlGebzm6ZZjf19yUqMd8FFkaKhahlubp6998kPPLKjV489zaYjozdXJ87lSlwuVK25Rv+8aEbHnJWSMS5o2waFSSbNQV6VXEGnVH2vuzFTC7zLox/iLoUSgCisC6Q0AJ2bo7ZQ0XLIQMpn4QLJAuUcUk/kIImahjNikDGQM5k9gMf2tLU+vubSNb29paB2q1Wk8kEnFb2jqYyCBVHspPMrXIZT/plFwJO0WZrvpWR6aEnbIqhHInDylHOj46NsvcBBBwQ9wNCJUMhKhSNEGxH7/vPgqFA1QtlygUcFhdSyVn6WMf+xiFwwEq5DIrGWb4PJSs7t5eLp+CkJ08ebo+lcDkpaF5YMvIViaRyEfr7uoCsWCVSLoljepnEvTPnxunM+fO8/H2bOqnaDxGqcWllST/UACwmTFLon7ZjxLlYZv7xdQPlevh7/+I5pJJM0YKJy9kAnd9ILsBh7st9+zeQffefQ99/vOfo7MXLlChgGIs8eB4BMdu3jzEMycxKgllSShpUNZw/BhIjhyynXt2G8K1fSeV83n69Ysv0Be/+Kf0wq9fNV4xx6H21hba1NdDg339NDg4QD3d3TwuC/uKxOP0xhtv0N985yEzCaFSo1gkVrowM3/8/PTCRJ2MNfKEeUuQQspscrRabMXFRhh5h3o3Cm4VZc0mghrYujH+5ulRKAIbDgElZBvjlL4tpb9ekuRgWMs7Jv4xUcjYQ2Z9g5QJIcMjvgNtrU2to5uHBob7+nY4rr8VTEXiJKBGFUtlmk8lOdQUpIVLgfVICVHIJNAVBAfeLXi6MDYpEg1TcyLO5bZ4rImVrHK5wiN4sA+QgY/eey8H0KKU6KtBJatS0CX68Ic/TJFokMbPn2MzO8ptp8+c4RgH7A8kZGFhgZaWzNDycqnKnjKoZNu2beftI4pjy/DAyngnMfdzjljNJOgHgyE69OYReurJpykaT1BvXx9FYibqIb20/LZSpVxKQs7wu8R1cANDPapDGiCg3j30/R/w9IQqW86MSgjlDQpZJByglqY4XbdnjGdJ/sVf/DmTN7xvdOt2Tva/40O/w8PRMaMSyfwoDyMpP728yGsDMQXZ3LVrF5M1px4fcuzYMfqf//X/SsnFHLkuZnH6yFerUCQSoqHBftq7Zw9t3TZiul9DUWpqbaUHH3yQXn3tkGmCqPkoGAgtvnH83CvLuTxA9prxbeIl5EuyyRoFudqKlkRPyHOrkS953c4Zs0uSdkxFoxFGG+Nfvx6FIqAIbAgElJBtiNPI3nHJIRPlSwiZPIKIyfdqJUtRyYSc4dHvOE6wpSnRsn10eKCvu3OkVq21RCMRp0o+CscTND07w6VMv+vQwnySUulFKuYKTICgNkkOGIgEVCoYz6FmoUMPfiWU5WLRBAeSwtyO10Hs9u/fT7ffdhvl8hkmZFUk1Ncq1NbSRLfffhuFwi6dOHaUljOm/IjPIZoBjyBbyN1CdySXU+szIkEGYWoHCUlEo0w+QEJ45qWVdYYEf54KwN2kNfrpI4/QyVNnaGBoMxNFyW4LBU2TQqMvHK9MH5BpB+J1g3KGCIrv//DvOHEfBju8B8cBL5gQsnDQpQ/99gdo99hO+trXvkoz8/OM59DwFm562Do6ys0AUBOhgIG4AfOZ2SkmYiClIGs8jsnvp9Z24xk7ePAg/T///k8onSmR4w8y0fX5zOil4eFB2rVzjIeUDw8P85owDeBzn/s8+9eY9PqDqIqeeeHgsdfqoavesFabhHk9Yd7XvB4vIWDebkkx73sHeNtKmG3St0kYC5kb45+7HoUioAhsRASUkG2csyqETHxhUra0vWNeUz+Ima2S2QoZk7H66zKSiZWzob6err07d4y2tDZ3JJpbw4vpJT86/kAkkslFghZVzJcouZhipQrERsYyQUYR8hNGwGrd/F+pVJk0SDI/PvM7v/XbNLZ9Ow83Rx6XQxUKhwJcarzlpv18fx2/cIYJmZA++MNkoDjyt9KZ7MoYJrwHpVF4rrAv8lWpp6uTImFTdjRmfBPiig5JhMhir9jmidOn6W8f+j7Fm1po9+7dXC7kDsSgCZm1v7EtGakkHjvedyDAihV+Bjk6duwEPfrzx7gBweeHSuXwa8DRRQdnwGHyedONe2nPzl1cssT2+ocGKRqL85gq5IbhPR0dHRz4iqHvKC3ii0cl+U1aP8q+MqcT+0Fi/7994P+mdK7KcRZomsBw8r7eHto81EeDA/3U1tbCJA/H9vOfP0qPPvoYhSMxbniIRpoKR85NPjEzt5C6CCETtapRxpf3NTuGwpsfBoJmkzFvidPOMNPQ1o3zN02PRBG4phBQQrZxTrcQMiFVtiIm5EwyymwfmRAy8ZHZ6pj9s5QxQc5cx3Hcztamju1bR3tbWpraO1pbWyKRcAAdiFCgcNM/d2GCyQ3UMJAXvIZypPyOjkgmP/U8MWkMQPkR5bV77rmHWhIJKhZyJqOrUqIQdyeW6PbbbmWCls0s8gBskAaYzfft28clNiTfg4BMTs+wSiRDzkFQoJ6B+OB5v2Pyy6SMaJQsM8IJ03+ikTiVqlWKxmL0l1//Bjcf3HLbB1jNgpdMPmsPDhdlTMqUxq9mBnujLGuGlFc5of+F5180ihO6OmtV3i5Kluje9Ds1Doi9/rqd9MHbbqNvfOMbnNEGItbc1kaZzDIlYhEuK6IkOTIyQm+++SaTPhxvKrlEx48f5ywyqHrIgBO/GI73C1/6c3r98EkeMt/a3ERDw4M0snmYBoc20dBAP5NVnCseJv6FL7GxP9GEhP8a1ZzQiWdePvRM3TsmpUgvURLSZUdNQEnD7/Jox1bg843M+Xbqvh3aagfLakly4/wt0yNRBK5JBJSQbZzT7jX2S9aYrZBJ5MXbssg8PjLpuGQPmXjJ6o/yHJOyuoLmxiPhpu7O9paOzvbEQG9Pa29PV0ssFg00N7cy8cC8Q5TNkGMFQgbCgJs81CeoUCAPGNuDUlqlbJQyDLfetnUrZ2rlszDr+2lhbpbzsRKxKH3wA7fS6Mhm6mxvoaZ4jAqlIhMsKEh9fQNMdtCAsJzOsjKFbkqQMOwLZKuzs4t9U9VSmScImMHp0XoWmTH554pFU0YtlOjJJ39Br71xiLZu38bdllCkcByihIkqZv8O0iPkDARVzP7y8/PPP0/H3jxuQm99ZgSVGwzyWoIIRKuVOY/s1lv20wduuYWeO/AMJZqbmKxm80UuJfZ0ddC2baO0Z88eOnHiFEdcICwWyuRDDz3M27zhhn2s6oGILqVTjC8I8mNP/IIe+sFPKJ5o4cHl3T1dtHlokMZ2bmWlDL7AiYkL9M1vfpNOnzzDYbuOP0BuILIwu1R8+tipM1MWIfOOMxLC5SVZqwW5yvvsMqW3NHkpc76WJDfO3zM9EkXgmkNACdnGOeXiI4NSJqqXEDCvWrYSDGvFX+AzdrflShSGRcrs0uXbSBne4/P5AqGgGw4FQ6H2lqbYnp3be3ZsH21zXdfv9/t9sVicRkdHkJpKZ8+e5bBV+KemZmaZPIGkgbCBMHV39bDpP+j6TddlCTMyCxwsOzDYT1uGh9jvlEsvsvIjSf/cSdnaYSItZmf5G162VGqxXg40yfx4H9SiRFMTkzAOr61W+TmQmXwWuVtl/ky+aIJwW1rbKBQJ0zPPHGByic/lMyCLZu6kPd5JiBiInZA0/AwiBEKFxyeffJIW5pLcPIASKJdaMVA86Kegz0+Or8pdlv193fTpT36S0ulFmp2f4zT+luY22rJ1C8+4RJkShPbcuQuc7wZV6xe/eJrDYKGoQbG86aabaPPmYTN5oWTmlU5Oz9J//eu/paHhzdTb083esVtuvYkVt9xymubmZ+nhhx82uWMVQy6DoWi55Av+6sXXjx2qVCp2Lphtpreft0NZ7VKkbdy3PWONSJj6wjbO3yk9EkVAEVgFASVkG+vSkLKleL+EeNmlSrvLslGnpV26bFS+9KpkK0qZpZrJXE3H7/MFRob6Okc2D7U2N8ej/X2bgo7fCeRyOd+WzSMUSbQwIUFZb3Jykn/mQNlIlGczIlYCyhKM/VDJEKcxODRALU3NFA2HqFbO0/T0FBMqfA6qFTo1kaUFkmeM/g6X2UC4oBKhdAiVKByOcsApiFUkagJjoYhxB2Y0QbFEgoldcnGJmxbwODU1RafOnOPP8Fe1TAG/YwaS15+T8iVehomfw3GRtYbjyOVYLQRpAiFLLy1RAU0HNQ6Bo0AowoodCBlyyFyHqKU5Rv/iD/+Q8WCFL+By2RLEaevWEVayzp49z9usksPk8z999nO8P5jyBwb76NZbb6X+/j5WBFHyZTWy5qMDz73A+9zU00PXXbebdu7cya+dO3eGfvWrX3FnJQgqjo2PIxA+Pzmfe+zEmfPzntJjoy5JIVr5+nvtcqRNvLwlSSl96jDvjfX3SY9GEVAELoKAErKNdXnY3ZZCrISUCRGzCZndbWl7ybykzFvGFKXMq5iJagZiKERNSKLjuv5ge3O8qbO9NdGUSATb2lrdcCgS3NTXGwkGQw7IBhQpzNOUZHsQGjNku8pkaXl5iUczYbwPwkybExEmJ5gRGYlFKRqOcDPBluERHvvEn3Uc3t7E1BTmInGgasAJUFNrC4WjESY0UJ1A6DrbO1ilAwnBelAKBRlzg2Z4Oro2y9Uq+8xAljDSiUNr68ROSJlks4FkCVnk1P/6iCaEtULBKhWLpkvT52ei5bhBJmQBQgp+lQJ+HyXiYbr/4x+njnYzhB1NBoPDQzyhAKoZOibRZAt/W6FcpkcfeZy+9a1vsSG/p2cT7d17He3du5eamuPkw9pd888ea5yamSe/G6QdO7bR7uuuI0KXajpNjz/+OH3zm19noocsM44sCYWLkUTbc08deO1AEVKi8YKJ0mX7xORnm4iBjK3WJelNz7eHeXtHGG2sf7F6NIqAIqAI1BFQQrbxLgUQICFEQrKEeNkestUCYu3kfjssdjVPmZj9hYDZpGxFKav7zfA7r8/n8/ldv88NBYOheCwSaW5qcfv7eiN93V2J7u7OEEgMD+GulxJBwAyhKTKRQPq/CwkJWR6REGeZTaKr0HEoAJN+ucaESyYHgBhh0gAIGyY1lgolikSjxgdWV7hAyPA6gm/NdiOsCskoJbwPkwSgIBXy+HyIIiGQlSI/hy+sEeRMCBk+jy+odfCoSSfp4cOHObgVVjFEcMBPhyYCqFYgTG7NR7VqaUUhu+XGG2n3rjGeTwmTPkqnWO/x4yeZTNZ8BgtMJHjg3/1fNDu/QP39/dTV2UM333IjbRsdoZ7eLsasWMxTiGdhlmgxneH37dl/E3eWUrlCr774Cn33u9+lRx99lFVEHF8oFK4FotHDx8/NPn7uwiTUMe8MSW9pUjoj8bwQM5vESVSFN8VfuyQ33t8kPSJFQBG4DASUkF0GSOvsLbaXTDouJQpD1DJJ87cVMhA0Uca8nZfeOAybnK1WssTzdgnV+7O9TiZpruO4ftcfSESjoYH+3vjY9q2JlkQiFAgGfVC5CoW8D2oNBndDiQLx4UHgDlL1K5zHhUeZJQmShNdRssRQcIwRAsFwXdNMAEUK6hQHwaL6WEUOV9yUOX1m/iaEIKh2GH4O8ua6QVbV4H3DkHPEcSATtVHsBbYhOWxYC8gZnoPxHsGsUP+CAXR1+qlUrlAmB29XlfxBE5wLQgYFriURoS1DQ3TnHR+i1tZmuuuuu1gFPHHiBL+fxzpVUR4t0A9/8CP64Y9+zMG2KNvCP3bLLbfQls1D1NffzYQwl1umSCjEnjyoex3dPTS2ezdRMEKnDh6mf/jJz+mhh77PeICM4hg6OjoWXz12/mszCynEXNheMFG+QLa8ihh+9w72FjVMgmQlskK7JNfZHxpdriKgCFxZBJSQXVk8r5atSccliI6UGyVzzKuWeUNiven9Yva3Tf5vC46t78M2+YsyZpMy+XmlhFknbP+ImPHcIkPmfI7P529vbY50dXZEOtpawu2trcGg3++4Ab8TCgWd5pZmZ3Fx0RePN/kQjYEoDZQ2QSJAzNjbFcRyHVaGoHCBkCFtQ3xdMGchgNWwMmwjzxEbIFkgMJyjli9xMwLnl3FmmXk/Rjr5nLea+yQkVjK/6uOk+OlkKlVFKXRudsZJpVI+PNna1GQCdIslyubN0HAhZOiyRFODn8rU39tLd991Bw0M9NGmTZtMowP7wEweGnLMDh06TF/60z/nuaMgjP1DQxx3gS7L7VtHqLOztT4Uvkh+H0hsntcORfCeuz9KExNTdOzoCfryl/+SlpYxn7TMxLe5KVFcKlb//sDLB1+uE6xGpUhbCcvV3ydkTJL0G3nDlIhdLX81dB2KgCKwpggoIVtT+N/XnUvpUogSWMlqpEwUNPuxUT6Z7SWTcqZdsrTVMiFlq5UwZX2rPeLatMnays8B13GCgWCwOREPwIsWi0fdcDDkRKMRJxGNuLFE3N8UizuO6/hKpYovFAzydQ6CBrIFxQvqD6trrp9Ldz7YuOqKG/xo8HHZ8yeRXybKG0qLATdQW17O1KrVSq1UKtZgzC+Vy9ViqVyrlMu1YpGfq5VK5Vp6ebmayeWrcwvJMkqt7c3xWFtzPFQul3wdbS1MrnKFEqtkmH4gsRiYTsADxh0fz6bs7+uh+++/n2KxyMp70P2JKAoog3/17W/Rcwd+TTMzS9TcEqdt27ZRd3c3bRkZpj27dlJXd4dR0woF7kxFqTeTSfMAdhBWpPH/9X/9K8rkwJ9MTEcg4FaaWjtef+61N/9hdj65YBEyIWDyiI2IIiaEDY9i9m8UWQF1DF8aV/G+/inQjSsCisB6QEAJ2Xo4S+9ujTahsc33XlLmjcDwpvfbcRh2LIaULb1q2WqkTPxjNlGzmxBYEROPmfXoJWb2+5hnybffcfyBgOsPoHvAxcQnvxMI+H1+v8slT5/PJ48gND74zeCbqtaq7OWq1gwJww6rSN+vVmuVqlWOxPimGoamV+Fhq5WrtVoZQ8mrNbwP5Iyq1Rp+5S+zDQRGvO3L15KIhrZt7m8OBx0XcR5YBkY1oUMSBAs5Z1Cn+Jka8UxLvA95Y50drXTbbbdQV2c7e86oFqREvIkOHDhAf/fjH9VLpFEuVyIrDV2leBwb287KIQff+hxazqQpEAxSzXFoYnKSXnnlNe6qfMurVyY3ECglWtoPnRqfffLoiTMT1Wo1Wydd8ihKmK2IecuUMlJJzPnyqETs3f271k8pAorABkVACdkGPbH1w/KSMiFRXrO/t2wpv4uq5u26bGT2tzsvRTWzuy1tImardxdTyLyvNVTM6kRupcxplUIBg2AgP8sZv5LX/qUUHnmd9+nzka+nrSW2ebC7yfVVHChV6NoslCpcci0UitwxCc8ZBqtXiiXuuETmGPxf+2/YSzfcsJcJFlL+UaIEIRsfH2eVDwogOjFHR0d5cgEaCqAMyoQCKHLcGFEjmpydox/9/T/QG6+9xp+p1VDSRVerrxaOJo68ePjUD+eTi1DGQLpAxLyPIGA2IZOAVwmKBQGzOyUvhdXG/hepR6cIKAKKwCoIXMmbkoJ8dSLgVZhE0bK9Yl5CJh2Y9nvsEqaY/BvFYbxtxJLVXWkTMrv70uspuxgJk9cul5jJsdvX+Wo/ewnb5RCHi71ntddW9t/X2drU3Z5IxONRP3dmVqpU4mHoZfaHSYRGKIjJAWX2uVVKRRroM76wnbt2cNkR2WiHDh3iMiZIGggZHhEHsmXLFo7KQMYb/GvSfIDct5dffpV+9uhT7KvjEVbIKnEd9qT19vQlf3349Dcnp2amiShT/wYhs38WpUxKk3YgrB1dASwuB8+r81+QrkoRUAQUgd8AAkrIfgMgXwW78JIyIU12V6VdyvQSMnnNVsquhErWyOgPstaodNmIqF2sxGmTMS8xuxgpu9TpeqckzH6/7JfXg5SJ5ng00t3enGhKRMKOD7zMZJWxUR9vqMd6lEslKsO75jces87Odh4ddeON+6hUztFSconmknMUDoTJCTjU1d5FgXCA2lvayQ25VC6Uqau3i/KZPB349QE6/MZhHgUVjjSxhwxqHFS0eDxabWntGM8UaweefOaF14goXf9eJiL5BikTtUy6LGXGJIiYGvUvdRXp64qAIqAIeBBQQnbtXBI2KZFSou0Dsw39qxGyyxlE7s0lu5zy5cUUM6x7Jb+sAVnzlirFY2Y/b5cpbVLkVcVWuxoupe5cLkl7GyGTcmoo6AY7W5tjm7o7mtFWCjIGxQoGfMRScPRG0OSZgZhBPUP3qB9lzP4u2r17B+3YNkY1X5VHPmXzGWppauXffTWH4k0xymXydPb8GXrlpVfp2ImjFHRDFI7GKJ/DCCiMjeKRToiNPXtmfOEXJ89dOFetVhFxsYh4s/o3yBnIGIiZmPht074SsWvn74keqSKgCFxhBJSQXWFA18HmvKqSECZvCdOeh9modOmNw/Bmk3nN/XYp87LCYy3D/mqq2btRyLyE7FKk7HLJVqNTv6o6Vn/zinLp8/nc5kQ0OtTT2ea45GeDF4af17tBg66J7kBUB76qyFvzE/l9ZR4phTgOjEnCnEwE0IK0oSyJ9x8/fpz9ZdgWlDCULUH6TOyHjyLReK1QyFbcUPzcqfOzz4xPzZyvE7EkEYGUCTEDIRNlTMqUUMbUI7YO/uHrEhUBReDqRkAJ2dV9ft6v1V2shOkNh7W7Lr0/e7PJ8Lvd0dnIT2YrZheLxLC7Mi+lktmdl7Yy1qhUeaUI2aVUs9XOnY29vVZWCaPhUGhwU0dLIhoO+13HEeJUrYBEVeuTC4jnVvKQ8lKO/WUgYDDlQ00ThQ2lTZAumPhR/hQyhtIkfk9EYyB1aBhdTBdrR9548+SROvmCiR9kDIn8eMQ3yBiUMTHw2wO/Jb7i/bpedbuKgCKgCGx4BJSQbfhTvOoBekuYQo68ZczVlDMZsbSaUuadcylkzTtiyRuH4U30t03/F1PKbLVMfhb1y+sn86piF/t30Ih4vRcyhn17y6pvGzEVCgaCHa2xWG9XWzQRC4WX01meMBAMhii9lCHHDVCpUGTTP8YaSQgtyBin/pdKrJKBmElzgHjS8DpKoSBnuUKuWC5XJ2dS6aPnJ6YniMgmYiBjQshQthQyJiOP7O7Ja/dfkR65IqAIKAJXCAElZFcIyHW8Ga9aZhMp28RvEzDb5G/PvrQzyWy1zBuJcalU//fSheklXzb5eTf+MTm1V4KYydqElNnxH97pBm4k5Ab7ulvjna3xGMZKoRHSh2omzP4V4iHnXL6sP8pCeVyUz5j/8S1f8rPjOLVILJY9OzlzYmJ69kImk8XwTlHEQMLm6uQMBE3ImJj3ZdQRNvtuiek6/ueiS1cEFAFF4P1BQAnZ+4PretxqI28ZSILdTektZ9rq2LsZRG6rZavFYsjzdtmykVLmLVV6iZhNhhpd942eW41wvFsiYhNCu2vUJmNvI6+Oz+cGA363NREN93e3JUKBgFutcoqsTzxmNc63BfnyEUY0IaAWv/v9GBdV4pnh1RrVAoFAxecPLk/MzE8kU+nZdCYzXTfug4SBfNlEDAQNZn6Y+FGmlBKlRlisx3/dumZFQBG46hFQQnbVn6Lf6AK9/iZbybLzy2xiZqf32wTNm+R/OQPJGwXJekuWlzNqyXscq5Gxy73+r4Q6hhPZiJBJydb22zVUFzFpoL05Fu5qa4pGA8GAG/D7HX/N8fMQAow6qvpAyOApcxy35ji+WrFcrYTCkWKxXMsePX1hOplKi+qFx0bfYuKXjkrJFpM4i9/oBak7UwQUAUXgWkHgcm9I1woeepwGAVttEgIkapZNzLwBsbbJX16ziZh8Vp6zTf1etUwyyt7mr6r7ry7lJbtcQmaTpNXOvZeM2b/Lz5dSzBqVSgVjWxlsRMRs/FbiP0LBgNscjwRCIX8gGPCDmfnMJCgHJ69KPqdSrVGpVKbM9FxyaTmTlTwxlCBtRQxKGIgZ1DC8ZsdaoExplyj134cioAgoAorA+4SAErL3CdgNsFm5NuzSn62Y2eGyjYaOe4mb7S/zdl+uNv/ynZIyr3+s0e9epepSp8pbovOSsEYEzbtN+9+ZvSYv2bXLlV68vE0R9nmBRFbz+3w1cgjjN8vVahXKlgz+BskCIRPyNWupY0LEEGchyfv4rAwD1w7KS10h+roioAgoAlcAASVkVwDEa2ATjUqZtu/JJmd2MGwjUnG5eWV2+dLbebmiFHmGkNujlWxVyiZBjVQx778DL8lajYRdTD1b7bLwli1tBdAmpo1wtFVEIWTYjwSyis8LRAykSkgWyBhKkbYyJoGv8h4hcKKIqVfsGviHrYeoCCgCVw8CSsiunnOxHlbiJWY2UWqkntkdm15FzSYcq4XIXoyUeWdgrlambOQfu5zrvlE50n7u3Shlco7ttTYy96+GpSiG9jHZZAyRFLYyBrKFuApRwSToVTon8bp8RmIsVBFbD/8SdY2KgCKw4RC4nBvThjtoPaD3jIC3V+MICgAAB6JJREFU7Ob1QwlZ8hIt20Pm9UZ51SFvDEQjL5lNZmQNtnK0WsmykUomoFxMDWtUvnyn6plXIfOSM29XqZ3T1kgVQ2kRypgQKyFk6IyUYeAS6gpyJnMooaLhM5on9p7/OegGFAFFQBF47wgoIXvvGF7LW7CVGm/Yqbc7crVyXCM1qFG3pZeYrGbsx/l4p5EX9jlcTQWzydjFfpYSojw2UtpWI2Ve3553AoFdngSRkhKlzJPEo5Qr8QhSJt8YdSQkDKRNidi1/C9Xj10RUASuOgSUkF11p2TdLsjr2ZJEUq/f62LdlFKSk/d4S6LeMqU3AsOriMkaGpUtGwF9KTK2mkImz3s/v1pDwGoKnfffo/d3mRkpqpg8gpiJSobnJKoCj/j2puvLdtbtxaYLVwQUAUVgoyGghGyjndGr43hWI2dCoLwkzf7dLk3ahAzbtF+T371Gfildrmbkb3TNNyo7NlLBViNcq73XJmqXE5FxOeVSm4zZnZBixhfly35NMsQuFc9xdVw9ugpFQBFQBK5BBJSQXYMn/Td8yF5y1kjF8pIqm7jZ3jAhaN7nRAm7kqXKixEyuxzpJV1etUzUKO/zlyqTekuetuneJl1i6pftNVrPb/iU6+4UAUVAEVAE3ikCSsjeKWL6/veCgE3OpGznLSeu1jDgNb83UsLels1VD7h9J9f45frEVlPUGhE1uzx4sc5N+exqj/bavCTvvZwT/awioAgoAorAVYDAO7lZXQXL1SVsQATsa7CRmiaH3IiANSpLNiJ9lwPbO+2WvFR50UvObAWrkTq22us2QfP+fDnHpe9RBBQBRUARWAcIKCFbByfpGl3ixYiaqGs2NF4i1ug9l4LS9lh5/VaX8l81+uxq27vUti61Tn1dEVAEFAFFYIMhoIRsg53Qa+BwGl2zl/vcpeC5FFG61OuqYF0KYX1dEVAEFAFFoCECSsj0wlAEFAFFQBFQBBQBRWCNEVBCtsYnQHevCCgCioAioAgoAoqAEjK9BhQBRUARUAQUAUVAEVhjBJSQrfEJ0N0rAoqAIqAIKAKKgCKghEyvAUVAEVAEFAFFQBFQBNYYASVka3wCdPeKgCKgCCgCioAioAgoIdNrQBFQBBQBRUARUAQUgTVGQAnZGp8A3b0ioAgoAoqAIqAIKAJKyPQaUAQUAUVAEVAEFAFFYI0RUEK2xidAd68IKAKKgCKgCCgCioASMr0GFAFFQBFQBBQBRUARWGMElJCt8QnQ3SsCioAioAgoAoqAIqCETK8BRUARUAQUAUVAEVAE1hgBJWRrfAJ094qAIqAIKAKKgCKgCCgh02tAEVAEFAFFQBFQBBSBNUZACdkanwDdvSKgCCgCioAioAgoAkrI9BpQBBQBRUARUAQUAUVgjRFQQrbGJ0B3rwgoAoqAIqAIKAKKgBIyvQYUAUVAEVAEFAFFQBFYYwSUkK3xCdDdKwKKgCKgCCgCioAioIRMrwFFQBFQBBQBRUARUATWGAElZGt8AnT3ioAioAgoAoqAIqAIKCHTa0ARUAQUAUVAEVAEFIE1RkAJ2RqfAN29IqAIKAKKgCKgCCgCSsj0GlAEFAFFQBFQBBQBRWCNEVBCtsYnQHevCCgCioAioAgoAoqAEjK9BhQBRUARUAQUAUVAEVhjBJSQrfEJ0N0rAoqAIqAIKAKKgCKghEyvAUVAEVAEFAFFQBFQBNYYASVka3wCdPeKgCKgCCgCioAioAgoIdNrQBFQBBQBRUARUAQUgTVGQAnZGp8A3b0ioAgoAoqAIqAIKAJKyPQaUAQUAUVAEVAEFAFFYI0RUEK2xidAd68IKAKKgCKgCCgCioASMr0GFAFFQBFQBBQBRUARWGMElJCt8QnQ3SsCioAioAgoAoqAIqCETK8BRUARUAQUAUVAEVAE1hgBJWRrfAJ094qAIqAIKAKKgCKgCCgh02tAEVAEFAFFQBFQBBSBNUZACdkanwDdvSKgCCgCioAioAgoAkrI9BpQBBQBRUARUAQUAUVgjRFQQrbGJ0B3rwgoAoqAIqAIKAKKgBIyvQYUAUVAEVAEFAFFQBFYYwSUkK3xCdDdKwKKgCKgCCgCioAioIRMrwFFQBFQBBQBRUARUATWGAElZGt8AnT3ioAioAgoAoqAIqAIKCHTa0ARUAQUAUVAEVAEFIE1RkAJ2RqfAN29IqAIKAKKgCKgCCgCSsj0GlAEFAFFQBFQBBQBRWCNEVBCtsYnQHevCCgCioAioAgoAoqAEjK9BhQBRUARUAQUAUVAEVhjBJSQrfEJ0N0rAoqAIqAIKAKKgCKghEyvAUVAEVAEFAFFQBFQBNYYASVka3wCdPeKgCKgCCgCioAioAgoIdNrQBFQBBQBRUARUAQUgTVGQAnZGp8A3b0ioAgoAoqAIqAIKAJKyPQaUAQUAUVAEVAEFAFFYI0RUEK2xidAd68IKAKKgCKgCCgCioASMr0GFAFFQBFQBBQBRUARWGMElJCt8QnQ3SsCioAioAgoAoqAIqCETK8BRUARUAQUAUVAEVAE1hgBJWRrfAJ094qAIqAIKAKKgCKgCCgh02tAEVAEFAFFQBFQBBSBNUZACdkanwDdvSKgCCgCioAioAgoAv8fNULPXbuZCMEAAAAASUVORK5CYII=;" parent="1" vertex="1">
          <mxGeometry x="96" y="201" width="128.13" height="85.5" as="geometry" />
        </mxCell>
        <mxCell id="bMoABtOeyOEBQM-wrku_-38" value="&lt;span style=&quot;color: rgb(0, 0, 0); font-family: &amp;quot;Times New Roman&amp;quot;; font-size: 12px; font-style: normal; font-variant-ligatures: normal; font-variant-caps: normal; font-weight: 400; letter-spacing: normal; orphans: 2; text-align: center; text-indent: 0px; text-transform: none; widows: 2; word-spacing: 0px; -webkit-text-stroke-width: 0px; white-space: normal; text-decoration-thickness: initial; text-decoration-style: initial; text-decoration-color: initial; float: none; display: inline !important;&quot;&gt;⋮&lt;/span&gt;" style="text;whiteSpace=wrap;html=1;" parent="1" vertex="1">
          <mxGeometry x="110" y="124" width="40" height="40" as="geometry" />
        </mxCell>
        <mxCell id="bMoABtOeyOEBQM-wrku_-39" value="&lt;span style=&quot;color: rgb(0, 0, 0); font-family: &amp;quot;Times New Roman&amp;quot;; font-size: 12px; font-style: normal; font-variant-ligatures: normal; font-variant-caps: normal; font-weight: 400; letter-spacing: normal; orphans: 2; text-align: center; text-indent: 0px; text-transform: none; widows: 2; word-spacing: 0px; -webkit-text-stroke-width: 0px; white-space: normal; text-decoration-thickness: initial; text-decoration-style: initial; text-decoration-color: initial; float: none; display: inline !important;&quot;&gt;⋮&lt;/span&gt;" style="text;whiteSpace=wrap;html=1;" parent="1" vertex="1">
          <mxGeometry x="145" y="123" width="40" height="40" as="geometry" />
        </mxCell>
        <mxCell id="bMoABtOeyOEBQM-wrku_-40" value="&lt;font face=&quot;Courier New&quot;&gt;A photo of a &lt;font style=&quot;color: rgb(255, 153, 153);&quot;&gt;car&lt;/font&gt;&lt;font style=&quot;color: rgb(0, 0, 0);&quot;&gt;.&lt;/font&gt;&lt;/font&gt;" style="rounded=0;whiteSpace=wrap;html=1;" parent="1" vertex="1">
          <mxGeometry x="426" y="301" width="100" height="50" as="geometry" />
        </mxCell>
      </root>
    </mxGraphModel>
  </diagram>
</mxfile>
